<?xml version="1.0" encoding="utf-8"?>
<!-- Generator: Adobe Illustrator 16.0.3, SVG Export Plug-In . SVG Version: 6.00 Build 0)  -->
<!DOCTYPE svg PUBLIC "-//W3C//DTD SVG 1.1//EN" "http://www.w3.org/Graphics/SVG/1.1/DTD/svg11.dtd">
<svg version="1.1" id="Layer_1" xmlns="http://www.w3.org/2000/svg" xmlns:xlink="http://www.w3.org/1999/xlink" x="0px" y="0px"
	 width="77.775px" height="77.773px" viewBox="0 0 77.775 77.773" enable-background="new 0 0 77.775 77.773" xml:space="preserve">
<g>
	<defs>
		<circle id="SVGID_1_" cx="38.888" cy="38.887" r="37.888"/>
	</defs>
	<use xlink:href="#SVGID_1_"  overflow="visible" fill="#F7941E"/>
	<clipPath id="SVGID_2_">
		<use xlink:href="#SVGID_1_"  overflow="visible"/>
	</clipPath>
	<g clip-path="url(#SVGID_2_)">
		<path fill="#414042" d="M2.426,26.964c0.97,1.56,3.013,3.236,6.132,5.019v0.222c-0.446,3.866-0.67,8.398-0.67,13.599
			c0,3.367-2.502,24.367-2.378,28.039l41.622,10.523c0.192-3.937,6.912-35.684,6.912-39.227c0-5.353-0.227-9.958-0.666-13.826
			c2.821-1.633,4.603-3.157,5.347-4.57c0.743-1.412,1.262-2.712,1.564-3.903c0.143-1.482,0.031-2.599-0.338-3.344
			c-0.371-0.74-0.708-1.259-1.004-1.563c-0.743-0.443-1.414,0.154-2.001,1.787c-0.304,0.895-0.712,1.896-1.228,3.01
			c-0.526,1.115-1.974,2.045-4.35,2.79c-0.302-0.896-1.113-1.709-2.457-2.456c3.129-2.97,4.945-5.462,5.469-7.47
			c0.512-2.004,0.63-3.602,0.334-4.792c-1.194-2.677-3.274-2.751-6.244-0.22c-1.188,0.742-2.383,2.003-3.568,3.789
			c-1.191,1.78-2.603,3.939-4.242,6.464c-1.333-0.295-2.781-0.444-4.341-0.444c-1.558,0-3.387,0-5.468,0c-1.927,0-3.676,0-5.237,0
			c-1.558,0-3.012,0.149-4.347,0.444c-1.635-2.972-3.157-5.385-4.566-7.246c-1.416-1.856-2.717-3.231-3.908-4.125
			c-2.97-2.228-4.979-2.154-6.018,0.22c-0.152,0.599-0.188,1.307-0.111,2.12c0.072,0.82,0.335,1.785,0.783,2.901
			c0.44,1.112,1.184,2.375,2.223,3.789c1.042,1.412,2.531,2.864,4.466,4.346c-1.49,0.895-2.679,1.862-3.57,2.901
			c-2.526-0.743-4.125-1.709-4.794-2.901c-0.667-1.186-1.15-2.226-1.447-3.121c-0.447-1.633-1.121-2.23-2.008-1.787
			c-0.304,0.305-0.635,0.823-1.005,1.563c-0.377,0.746-0.482,1.862-0.334,3.344C0.979,24.03,1.461,25.403,2.426,26.964z"/>
		<path fill="#FFFFFF" d="M11.458,33.319c0.45,1.489,1.56,2.196,3.344,2.118c1.783-0.072,3.273-0.333,4.463-0.78h0.217
			c0.894-0.448,2.233-1.299,4.016-2.566c1.784-1.259,2.451-2.709,2.009-4.348c-0.448-1.633-1.672-2.372-3.684-2.225
			c-2,0.148-3.606,0.442-4.788,0.888c-0.451,0.152-1.042,0.413-1.786,0.78c-0.744,0.375-1.453,0.859-2.119,1.453
			c-0.672,0.592-1.188,1.301-1.559,2.118C11.197,31.571,11.16,32.429,11.458,33.319z"/>
		<path fill="#FFFFFF" d="M11.908,13.477c-0.45,0.595-0.377,1.448,0.223,2.563c0.588,1.115,2.077,3.086,4.454,5.911
			c0.451-0.146,0.928-0.261,1.45-0.335c0.523-0.073,1.007-0.257,1.447-0.56c-1.931-4.458-3.56-7.022-4.906-7.692
			C13.241,12.695,12.351,12.731,11.908,13.477z"/>
		<path fill="#414042" d="M21.715,29.083c0.296,0.892,0.222,1.823-0.226,2.785c-0.445,0.971-1.036,1.604-1.78,1.896
			c-0.155,0.15-0.373,0.223-0.668,0.223c-2.231,0.445-3.496-0.297-3.792-2.228c-0.302-1.043-0.262-2.082,0.106-3.122
			c0.371-1.042,0.936-1.708,1.679-2.009h0.445c1.035-0.447,1.931-0.407,2.674,0.112C20.898,27.265,21.42,28.045,21.715,29.083z"/>
		<path fill="#FFFFFF" d="M19.042,31.982c0.591-0.591,0.809-1.339,0.668-2.231c-0.298-1.185-0.82-1.482-1.564-0.891
			c-0.448,0-0.665,0.075-0.665,0.223c0-0.444-0.303-0.669-0.896-0.669c-0.292,0.593-0.37,1.042-0.222,1.337
			c0,0.151,0.036,0.299,0.115,0.448c0.071,0.148,0.181,0.075,0.333-0.225c0,0.445,0.073,0.743,0.225,0.893
			c0,0.445,0.222,0.781,0.662,1.001C18.146,32.091,18.59,32.131,19.042,31.982z"/>
		<path fill="#414042" d="M18.369,29.083c0.597,0,0.896,0.298,0.896,0.892c0,0.743-0.299,1.114-0.896,1.114
			c-0.593,0-0.888-0.371-0.888-1.114C17.48,29.381,17.776,29.083,18.369,29.083z"/>
		<path fill="#FFFFFF" d="M27.068,32.205c-0.301,0.893-0.524,1.711-0.672,2.453c-0.149,0.743-0.185,1.375-0.109,1.895
			c0.074,0.524,0.334,0.78,0.782,0.78c0.448,0,0.816-0.369,1.115-1.114c0.294-0.742,0.446-1.482,0.446-2.23
			c0-0.741-0.114-1.374-0.334-1.897C28.072,31.571,27.659,31.616,27.068,32.205z"/>
		<path fill="#FFFFFF" d="M32.638,32.205c-0.295,0.893-0.521,1.711-0.668,2.453c-0.146,0.743-0.185,1.375-0.111,1.895
			c0.071,0.524,0.335,0.78,0.779,0.78c0.451,0,0.779-0.369,1.004-1.114c0.223-0.742,0.37-1.482,0.448-2.23
			c0.071-0.741,0-1.374-0.225-1.897C33.642,31.571,33.229,31.616,32.638,32.205z"/>
		<path fill="#FFFFFF" d="M50.697,33.765c0.298-0.741,0.228-1.521-0.224-2.342c-0.44-0.813-0.999-1.56-1.669-2.229
			c-0.671-0.671-1.379-1.228-2.118-1.671c-0.74-0.445-1.334-0.743-1.783-0.893h-0.671c-1.039-0.447-2.416-0.705-4.125-0.78
			c-1.705-0.073-2.86,0.635-3.453,2.117c-0.151,0.894,0,1.712,0.448,2.454c0.443,0.748,1.005,1.414,1.667,2.008
			c0.672,0.596,1.338,1.116,2.009,1.56c0.672,0.445,1.229,0.749,1.669,0.893c0.155,0,0.298,0.036,0.448,0.108
			c0.146,0.079,0.37,0.115,0.673,0.115c1.035,0.446,2.378,0.668,4.007,0.668C49.208,35.771,50.256,35.104,50.697,33.765z"/>
		<path fill="#FFFFFF" d="M39.551,50.774c0.206-0.579-0.052-1.022-0.773-1.327c-0.711-0.307-1.546-0.52-2.502-0.636
			c-0.958-0.121-1.935-0.153-2.927-0.104c-0.99,0.049-1.775,0.123-2.347,0.226l-0.814,0.288c-1.353,0.176-3.075,0.612-5.161,1.303
			c-2.078,0.691-3.321,1.62-3.72,2.775c0.013,0.607,0.373,1.041,1.075,1.299c0.696,0.264,1.518,0.429,2.452,0.502
			c0.943,0.072,1.861,0.104,2.769,0.083c0.909-0.018,1.65-0.074,2.211-0.176c0.188-0.066,0.37-0.106,0.566-0.126
			c0.195-0.016,0.471-0.09,0.838-0.222c1.348-0.174,3.023-0.618,4.997-1.319C38.188,52.636,39.312,51.777,39.551,50.774z"/>
		<path fill="#414042" d="M42.447,34.433c-0.889-0.593-1.484-1.372-1.786-2.342c-0.294-0.964-0.294-1.891,0-2.787
			c0.451-1.78,1.49-2.673,3.129-2.673c0.295,0,0.516,0.037,0.665,0.112c0.146,0.077,0.296,0.112,0.448,0.112
			c1.042,0.593,1.705,1.415,2.009,2.449c0.293,1.044,0.293,1.935,0,2.679c-0.752,1.783-1.862,2.675-3.345,2.675
			c-0.151,0-0.342-0.036-0.559-0.109C42.786,34.472,42.603,34.433,42.447,34.433z"/>
		<path fill="#FFFFFF" d="M49.585,14.812c-0.299-0.592-1.191-0.629-2.673-0.107c-1.488,0.519-3.051,2.637-4.683,6.351
			c0.739,0.302,1.409,0.486,2.003,0.56c0.593,0.075,1.191,0.189,1.784,0.335c1.929-2.231,3.121-3.865,3.568-4.904
			C50.033,16.004,50.033,15.259,49.585,14.812z"/>
		<path fill="#FFFFFF" d="M42.447,30.42c-0.146,0.297-0.146,0.635,0,1.002c0.155,0.373,0.448,0.633,0.898,0.782
			c0.741,0.299,1.257,0,1.558-0.892c0.146-0.145,0.222-0.37,0.222-0.669c0.299,0,0.444-0.223,0.444-0.668
			c0.298-0.145,0.222-0.446-0.217-0.892c-0.302-0.148-0.526,0.075-0.674,0.668c0-0.295-0.075-0.448-0.222-0.448
			c-0.149,0-0.223-0.072-0.223-0.22C43.346,28.787,42.746,29.231,42.447,30.42z"/>
		<path fill="#414042" d="M43.469,31.761c-0.683,0-1.021-0.37-1.021-1.118c0-0.892,0.338-1.339,1.021-1.339
			c0.508,0,0.764,0.448,0.764,1.339C44.233,31.391,43.977,31.761,43.469,31.761z"/>
	</g>
	
		<path clip-path="url(#SVGID_2_)" fill-rule="evenodd" clip-rule="evenodd" fill="#E6E7E8" stroke="#414042" stroke-miterlimit="10" d="
		M67.909,22.238c0.414,1.197,0.541,2.447,0.572,3.699c0.038,1.697-0.135,3.379-0.483,5.037c-0.218,1.09-0.489,2.166-0.774,3.236
		c-0.225,0.825-0.479,1.649-0.766,2.46c-0.675,1.928-1.417,3.831-2.295,5.673c-0.629,1.319-1.252,2.648-1.929,3.943
		c-0.85,1.603-1.734,3.187-2.653,4.745c-0.805,1.354-1.664,2.67-2.53,3.979c-0.56,0.839-1.136,1.668-1.764,2.456
		c-0.978,1.235-1.975,2.453-3.016,3.632c-1.023,1.158-2.148,2.214-3.351,3.195c-1.109,0.9-2.268,1.697-3.538,2.355
		c-0.838,0.438-1.727,0.767-2.653,0.977c-1.111,0.257-2.233,0.279-3.342-0.038c-0.672-0.201-1.28-0.529-1.848-0.945
		c-0.968-0.695-1.931-1.408-2.871-2.143c-0.489-0.386-0.995-0.759-1.35-1.291c-0.296-0.426-0.458-0.898-0.563-1.39
		c-0.151-0.727-0.108-1.46,0.182-2.15c0.201-0.472,0.464-0.932,0.712-1.388c0.367-0.675,0.745-1.346,1.121-2.028
		c0.607-1.114,1.202-2.245,1.836-3.344c0.347-0.597,0.881-1.021,1.499-1.343c0.707-0.357,1.452-0.561,2.243-0.42
		c0.486,0.09,0.954,0.249,1.429,0.379c0.847,0.225,1.68,0.48,2.547,0.57c0.347,0.036,0.593-0.127,0.828-0.318
		c1.262-1.021,2.335-2.241,3.267-3.563c0.725-1.007,1.406-2.043,2.08-3.089c0.432-0.688,0.825-1.393,1.206-2.108
		c0.504-0.937,1.008-1.882,1.477-2.844c0.454-0.979,0.886-1.967,1.288-2.974c0.288-0.721,0.529-1.459,0.749-2.195
		c0.276-0.893,0.449-1.803,0.534-2.746c0.033-0.409-0.105-0.71-0.373-0.963c-0.728-0.705-1.47-1.399-2.235-2.063
		c-1.183-1.03-1.56-2.315-1.305-3.827c0.123-0.727,0.53-1.321,0.866-1.948c0.94-1.739,1.883-3.477,2.838-5.205
		c0.547-0.987,1.409-1.577,2.494-1.865c0.815-0.224,1.602-0.079,2.38,0.199c0.988,0.362,1.989,0.673,2.974,1.05
		c0.837,0.327,1.671,0.688,2.391,1.259c0.53,0.427,0.984,0.938,1.318,1.527c0.328,0.571,0.578,1.188,0.871,1.783
		C67.95,22.219,67.933,22.226,67.909,22.238z"/>
	<g clip-path="url(#SVGID_2_)">
		<path fill="#414042" d="M57.235,32.23c-0.185,0.764-0.157,1.476,0.093,2.126c0.251,0.654,0.927,1.221,2.02,1.71
			c1.098,0.49,2.691,0.816,4.786,0.968c-2.406-0.138-4.311-0.024-5.719,0.353c-1.41,0.381-2.508,0.853-3.303,1.426
			c-0.794,0.571-1.353,1.219-1.666,1.93c-0.316,0.707-0.526,1.348-0.625,1.918c-0.594,2.365-0.149,3.801,1.326,4.303
			c0.902,0.399,2.03,0.559,3.387,0.461c1.355-0.09,2.835-0.55,4.438-1.383c-3.813,2.324-5.493,4.357-5.036,6.108
			c0.466,1.745,2.357,2.516,5.7,2.303c-3.818,2.319-4.661,3.329-8.003,5.331c-2.614,1.563-3.903,4.715-6.189,5.163
			c-0.693,0.138-5.064,2.581-5.715,2.68l4.402,16.739c0.928-0.981,12.344-13.514,13.253-14.46c0.175-0.387,0.356-0.614,0.535-0.686
			c5.801-6.075,9.353-12.139,10.661-18.202c0.676-3.25,0.907-6.281,0.688-9.086c-0.222-2.796-0.886-5.217-1.985-7.254
			c-1.042-2.165-2.196-3.833-3.45-5.014c-1.248-1.175-2.418-1.929-3.512-2.258c-1.087-0.333-2.062-0.224-2.925,0.32
			c-0.859,0.545-1.61,1.37-2.255,2.475C57.723,30.784,57.423,31.466,57.235,32.23z"/>
		<path fill="#FFFFFF" d="M62.146,51.914c0.012-1.077-0.433-1.813-1.338-2.217c-0.896-0.4-1.422-0.095-1.566,0.924
			c-0.399,0.901-0.151,1.555,0.749,1.957C61.026,53.036,61.743,52.813,62.146,51.914z"/>
		<path fill="#FFFFFF" d="M58.151,41.093c-0.788-0.656-1.539-0.528-2.257,0.383c-0.918,0.683-1.291,1.517-1.124,2.519
			c0.148,0.373,0.465,0.709,0.945,0.999c0.487,0.3,0.982,0.402,1.483,0.318c1.22,0.383,1.991-0.123,2.305-1.53
			c0.043-0.443-0.072-0.955-0.352-1.545C58.874,41.648,58.54,41.265,58.151,41.093z"/>
		<path fill="#FFFFFF" d="M63.664,30.805c-0.497-1.306-1.251-1.873-2.258-1.704c-0.501,0.089-1.014,0.285-1.535,0.593
			c-0.523,0.305-0.799,0.843-0.83,1.6c-0.313,1.405,0.114,2.524,1.285,3.355c0.593,0.416,1.227,0.548,1.916,0.388
			c0.687-0.159,1.184-0.403,1.483-0.73C64.571,33.448,64.548,32.281,63.664,30.805z"/>
	</g>
	<g clip-path="url(#SVGID_2_)">
		<g>
			<path fill="#E6E7E8" d="M47.611,64.319c2.787-1.289,3.997,0.216,4.634,2.292c0.642,2.09-1.756,2.946-2.279,0.695
				c-0.715-3.076,3.467-3.409,5.35-1.925c0.943,0.743,1.169,2.083,1.357,3.176c0.229,1.338,0.172,2.754-0.16,4.064
				c-0.863,0.727-1.28,0.658-1.251-0.205c-0.202-0.975,0.036-1.975,0.348-2.89c1.066-3.126,3.857,0.112,4.537,0.93
				c0.834,1.001,1.417,2.203,1.817,3.433c0.063,0.195,0.783-0.014,0.725-0.193c-0.773-2.374-2.575-5.404-5.252-5.851
				c-2.177-0.362-2.886,2.527-2.946,4.066c-0.047,1.217,1.082,3.163,2.243,1.505c1.537-2.198,1.026-6.376-0.738-8.293
				c-1.098-1.192-3.936-1.946-5.362-0.865c-1.641,1.243-2.258,4.781,0.442,5.018c2.005,0.176,2.115-2.135,1.704-3.475
				c-0.869-2.829-3.467-2.599-5.596-1.613C46.747,64.391,47.421,64.407,47.611,64.319L47.611,64.319z"/>
		</g>
	</g>
	<use xlink:href="#SVGID_1_"  overflow="visible" fill="none" stroke="#F7941E" stroke-width="2" stroke-miterlimit="10"/>
</g>
</svg>
