<?xml version="1.0" encoding="utf-8"?>
<!-- Generator: Adobe Illustrator 16.0.3, SVG Export Plug-In . SVG Version: 6.00 Build 0)  -->
<!DOCTYPE svg PUBLIC "-//W3C//DTD SVG 1.1//EN" "http://www.w3.org/Graphics/SVG/1.1/DTD/svg11.dtd">
<svg version="1.1" id="Layer_1" xmlns="http://www.w3.org/2000/svg" xmlns:xlink="http://www.w3.org/1999/xlink" x="0px" y="0px"
	 width="45.174px" height="45.046px" viewBox="0.722 0.133 45.174 45.046" enable-background="new 0.722 0.133 45.174 45.046"
	 xml:space="preserve">
<path fill="#F6921E" d="M21.699,0.133h3.219c3.443,0,7.365,1.424,11.76,4.271c3.313,2.584,5.715,5.57,7.205,8.957
	c1.342,3.227,2.014,5.949,2.014,8.168v1.861c0,4.99-2.051,9.939-6.152,14.848c-4.76,4.629-10.283,6.941-16.577,6.941
	c-7.854,0-14.271-3.657-19.248-10.973c-2.132-3.94-3.197-7.816-3.197-11.627c0-6.277,2.584-11.935,7.752-16.971
	C13.29,1.958,17.699,0.133,21.699,0.133z M11.275,19.645v6.964c0,3.797,1.205,6.329,3.614,7.6c1.079,0.612,4.554,0.84,10.423,0.68
	c4.496,0,7.08-0.488,7.752-1.467c1.519-1.213,2.276-3.219,2.276-6.021v-8.96c0-3.532-1.248-5.847-3.743-6.941l-1.664-0.548
	l-1.688-0.131H18.5c-3.476,0-5.796,1.693-6.963,5.08C11.363,16.937,11.275,18.186,11.275,19.645z M18.896,12.966h9.351
	c3.387,0,5.08,1.781,5.08,5.344v9.48c-0.451,3.299-1.832,4.949-4.138,4.949h-3.877c-1.812,0-3.724,0.043-5.737,0.131
	c-3.358,0-5.321-1.064-5.892-3.197c-0.175-1.184-0.263-2.963-0.263-5.344v-2.956c0-4.453,0.356-6.679,1.072-6.679
	C15.21,13.543,16.678,12.966,18.896,12.966z M17.166,22.995c0,2.875,1.648,4.875,4.949,6h2.672c3.195-1.152,4.795-3.195,4.795-6.133
	v-0.284c0-1.664-0.848-3.219-2.539-4.664c-1.154-0.803-2.354-1.204-3.592-1.204H23.32c-2.76,0-4.68,1.423-5.76,4.27
	C17.415,21.171,17.283,21.843,17.166,22.995z M23.32,18.834h0.132c1.926,0,3.219,1.03,3.875,3.088
	c0.088,0.117,0.133,0.432,0.133,0.941c-0.424,2.762-1.76,4.141-4.008,4.141c-1.781,0-3.073-0.892-3.876-2.672
	c-0.116-0.146-0.213-0.592-0.284-1.335C19.611,20.222,20.955,18.834,23.32,18.834z M28.379,16.579
	c0.393,0.891,0.889,1.336,1.488,1.336c0.598,0,1.088-0.445,1.467-1.336c-0.205-1.08-0.744-1.62-1.621-1.62
	C28.825,15.236,28.379,15.776,28.379,16.579z"/>
</svg>
