<?xml version="1.0" encoding="utf-8"?>
<!-- Generator: Adobe Illustrator 16.0.3, SVG Export Plug-In . SVG Version: 6.00 Build 0)  -->
<!DOCTYPE svg PUBLIC "-//W3C//DTD SVG 1.1//EN" "http://www.w3.org/Graphics/SVG/1.1/DTD/svg11.dtd">
<svg version="1.1" id="Layer_1" xmlns="http://www.w3.org/2000/svg" xmlns:xlink="http://www.w3.org/1999/xlink" x="0px" y="0px"
	 width="45.202px" height="45.197px" viewBox="0.92 0.057 45.202 45.197" enable-background="new 0.92 0.057 45.202 45.197"
	 xml:space="preserve">
<path fill="#F6921E" d="M22.842,0.057H24.2c5.547,0,10.803,2.358,15.766,7.073c3.49,4.234,5.41,8.066,5.76,11.497
	c0.262,1.62,0.396,2.649,0.396,3.088v1.862c0,3.006-1.023,6.488-3.066,10.443c-2.979,4.875-7.219,8.264-12.723,10.162
	c-2.789,0.715-4.973,1.071-6.547,1.071h-0.527c-5.766,0-11.116-2.321-16.051-6.965C3.016,33.649,0.92,28.254,0.92,22.108v-0.263
	c0-0.204,0.045-0.379,0.133-0.525c0-0.103-0.045-0.153-0.133-0.153c0.57-4.351,1.729-7.868,3.481-10.555
	C7.175,6.1,11.453,2.889,17.235,0.976C19.396,0.363,21.264,0.057,22.842,0.057z M19.775,14.488l0.131,4.139
	c0,0.131-0.131,0.27-0.395,0.416h-2.276v4.665h2.276c0.132,0,0.264,0.139,0.395,0.416V35.62l0.065,0.811h4.753V23.991
	c0.028-0.189,0.114-0.283,0.262-0.283h3.877c0.175,0,0.4-1.468,0.679-4.401v-0.263h-4.556c-0.176,0-0.262-0.088-0.262-0.263v-3.22
	c0-1.372,0.801-2.131,2.407-2.276h2.673V9.276c0-0.263-0.937-0.395-2.804-0.395H26.32c-3.079,0-5.088,1.153-6.021,3.46
	C20.125,12.823,19.95,13.539,19.775,14.488z"/>
</svg>
