<?xml version="1.0" encoding="utf-8"?>
<!-- Generator: Adobe Illustrator 16.0.3, SVG Export Plug-In . SVG Version: 6.00 Build 0)  -->
<!DOCTYPE svg PUBLIC "-//W3C//DTD SVG 1.1//EN" "http://www.w3.org/Graphics/SVG/1.1/DTD/svg11.dtd">
<svg version="1.1" id="Layer_1" xmlns="http://www.w3.org/2000/svg" xmlns:xlink="http://www.w3.org/1999/xlink" x="0px" y="0px"
	 width="45.043px" height="45.046px" viewBox="0 0 45.043 45.046" enable-background="new 0 0 45.043 45.046" xml:space="preserve">
<path fill="#F6921E" d="M22.139,0h0.92c5.021,0,9.869,1.913,14.541,5.738c4.963,5.036,7.443,10.321,7.443,15.854v2.146
	c0,3.213-1.239,6.985-3.723,11.321c-3.064,4.38-7.24,7.401-12.525,9.065c-2.453,0.613-4.496,0.92-6.13,0.92h-0.132
	c-6.117,0-11.584-2.396-16.402-7.183C2.043,33.191,0,28.082,0,22.534c0-5.928,2.313-11.351,6.941-16.271
	C11.76,2.089,16.825,0,22.139,0z M23.475,18.658v1.073c0,0.175-0.096,0.262-0.285,0.262c-2.788-0.379-5.182-1.357-7.183-2.934
	l-1.861-1.73h-0.153c0,0.146-0.175,0.504-0.526,1.073v1.599c0.117,0.905,0.737,1.927,1.861,3.066v0.131
	c-0.613,0-1.234-0.175-1.861-0.525v0.131c0,1.708,1.109,3.176,3.329,4.4l-0.263,0.133h-0.657l-0.679-0.133v0.264
	c1.021,1.869,2.313,2.804,3.875,2.804v0.394c-1.752,1.066-3.489,1.6-5.212,1.6h-0.788v0.263c2.511,1.154,4.687,1.729,6.526,1.729
	c3.854,0,7.14-1.555,9.854-4.664c1.957-2.715,2.935-5.292,2.935-7.729v-0.92c1.415-1.357,2.132-2.116,2.146-2.277v-0.132
	c-0.512,0.264-1.227,0.489-2.146,0.679l-0.132-0.283c0.832-0.482,1.453-1.146,1.861-1.994v-0.131h-0.131
	c-1.314,0.628-2.111,0.941-2.388,0.941h-0.394c-0.979-0.803-1.869-1.248-2.673-1.336h-1.071c-1.488,0-2.687,0.84-3.592,2.52
	C23.606,17.366,23.475,17.942,23.475,18.658z"/>
</svg>
