<?xml version="1.0" encoding="utf-8"?>
<!-- Generator: Adobe Illustrator 16.0.3, SVG Export Plug-In . SVG Version: 6.00 Build 0)  -->
<!DOCTYPE svg PUBLIC "-//W3C//DTD SVG 1.1//EN" "http://www.w3.org/Graphics/SVG/1.1/DTD/svg11.dtd">
<svg version="1.1" id="Layer_1" xmlns="http://www.w3.org/2000/svg" xmlns:xlink="http://www.w3.org/1999/xlink" x="0px" y="0px"
	 width="266.571px" height="284.193px" viewBox="0 0 266.571 284.193" enable-background="new 0 0 266.571 284.193"
	 xml:space="preserve">
<g>
	<g>
		<path fill="#414042" d="M107.871,197.888c0.368,0.976,0.727,1.964,1.095,2.938c0.358,0.971,0.735,2.081,1.136,3.306
			c-4.387,1.77-8.077,3.521-11.066,5.253c-2.985,1.731-5.943,3.142-8.876,4.242c-13.266,6.586-25.426,9.346-36.482,8.293
			c-5.93-0.603-11.229-1.852-15.886-3.756c-4.679-1.885-8.579-4.318-11.704-7.278c-3.139-2.946-5.31-5.827-6.501-8.625
			c-1.211-2.785-1.672-5.216-1.396-7.287c-0.206-4.04,2.188-6.479,7.193-7.296c0.974-0.363,2.173-0.499,3.595-0.401
			c1.398,0.097,2.599,0.532,3.573,1.314c0.982,0.781,1.651,2.234,2.025,4.352c0.357,2.126,0.118,5.015-0.746,8.675
			c1.054-4.182,2.23-7.369,3.505-9.554c1.29-2.186,2.625-3.796,4.045-4.842c1.406-1.056,2.799-1.649,4.188-1.807
			c1.373-0.154,2.705-0.179,3.998-0.071c2.32,0.247,3.897,0.704,4.734,1.378c0.846,0.672,1.354,1.755,1.518,3.266
			c0.2,1.76-0.032,3.762-0.661,5.989c-0.65,2.239-2.241,4.519-4.774,6.835c6.028-5.258,10.348-7.014,12.969-5.268
			c2.609,1.749,2.835,5.409,0.655,10.998c6.03-5.259,10.841-10,14.443-14.227c3.602-4.216,6.398-8.16,8.413-11.82
			c2.002-3.664,3.534-7.015,4.598-10.066c1.048-3.041,2.196-5.908,3.428-8.597c0.993-2.403,2.027-4.552,3.092-6.451
			c0.134,1.257,0.357,2.695,0.676,4.31c0.306,1.627,0.533,3.063,0.669,4.32c0.786,2.458,1.454,4.987,2.007,7.599
			c0.54,2.613,1.225,5.28,2.032,7.986c0.814,2.711,1.568,5.427,2.251,8.148C106.304,192.466,107.06,195.185,107.871,197.888z"/>
		<path fill="#414042" d="M29.376,199.446c0.979-0.364,1.665-1.078,2.064-2.141c0.396-1.06,0.385-2.202-0.016-3.44
			c-0.777-2.449-2.462-3.786-5.027-4.01c-1.313-0.362-2.446-0.175-3.373,0.564c-0.935,0.745-1.612,1.522-2.03,2.327
			c-0.271,2.072,0.408,3.651,2.066,4.734C25.118,200.054,27.233,200.708,29.376,199.446z"/>
		<path fill="#414042" d="M47.108,197.457c2.562,0.224,4.112-0.849,4.605-3.191c0.776-2.12,0.348-3.724-1.301-4.822
			c-0.564-0.441-1.352-0.606-2.354-0.493c-1.004,0.111-1.851,0.461-2.56,1.045c-1.73,0.455-2.478,1.683-2.252,3.689
			c0.327,0.729,0.933,1.496,1.786,2.284C45.884,196.772,46.57,197.264,47.108,197.457z"/>
		<path fill="#414042" d="M59.565,206.37c1.759-0.195,2.773-1.325,3.06-3.399c-0.2-1.758-1.312-2.526-3.318-2.301
			c-1.563-0.333-2.496,0.412-2.803,2.22c0.081,0.756,0.471,1.417,1.171,1.975C58.373,205.42,58.997,205.926,59.565,206.37z"/>
	</g>
	<g>
		<path fill="#414042" d="M255.611,96.688c2.57-0.144,4.788,0.198,6.654,1.034c1.87,0.837,3.127,2.353,3.776,4.541
			c0.666,2.189,0.702,4.99,0.117,8.383c-0.576,3.409-2.093,7.193-4.555,11.336c-2.191,4.105-5.5,7.902-9.942,11.376
			c-4.444,3.485-9.778,6.464-15.972,8.939c-11.597,4.54-25.692,5.332-42.297,2.368c-0.314-0.224-0.901-0.278-1.739-0.138
			c-3.276-0.599-6.603-1.185-10.002-1.77c-3.396-0.574-7.593-1.154-12.588-1.761c0.326-1.484,0.444-2.875,0.377-4.162
			c-0.074-1.281-0.062-2.509,0.023-3.667c0.047-1.451,0.007-2.95-0.097-4.509c-0.12-1.561-0.033-3.083,0.297-4.578
			c-0.14-4.292-0.123-7.599,0.06-9.933c0.043-1.442-0.079-3.002-0.357-4.688c-0.286-1.671-0.275-3.252,0.064-4.747
			c0.04-1.445-0.052-2.866-0.288-4.269c-0.225-1.396-0.329-2.813-0.286-4.264c0.041-1.44-0.075-3.07-0.39-4.895
			c-0.3-1.814-0.44-3.442-0.397-4.885c1.032,0.97,1.893,1.904,2.64,2.784c0.716,0.894,1.608,1.96,2.681,3.216
			c2.152,2.515,4.269,5.256,6.346,8.209c2.079,2.955,4.756,6.098,8.052,9.424c3.291,3.328,7.447,6.727,12.494,10.184
			c5.035,3.47,11.608,7.109,19.73,10.919c-4.07-5.355-4.878-9.379-2.471-12.094c2.423-2.708,7.687-2.155,15.814,1.652
			c-3.175-1.764-5.59-3.731-7.247-5.896c-1.663-2.161-2.65-4.225-2.986-6.183c-0.803-3.028,1.111-5.367,5.727-6.997
			c1.067-0.466,2.377-0.826,3.907-1.087c1.542-0.257,3.241-0.043,5.072,0.652c1.851,0.696,3.859,2.009,6.061,3.944
			c2.195,1.938,4.504,5,6.939,9.178c-2.072-3.672-3.296-6.701-3.696-9.082c-0.392-2.373-0.191-4.132,0.626-5.275
			c0.81-1.142,1.966-1.981,3.455-2.519S254.174,96.644,255.611,96.688z"/>
		<path fill="#414042" d="M223.716,127.498c1.822-1.174,2.56-2.739,2.229-4.697c-0.327-1.945-1.422-2.484-3.284-1.597
			c-1.955,0.331-2.774,1.472-2.449,3.427C220.597,126.875,221.763,127.825,223.716,127.498z"/>
		<path fill="#414042" d="M237.391,108.806c0.23-2.05-0.816-3.161-3.144-3.355c-2.158-0.781-3.97-0.476-5.465,0.915
			c-0.461,0.664-0.669,1.562-0.625,2.692c0.044,1.152,0.419,2.094,1.122,2.836c0.711,2.464,2.414,3.191,5.122,2.16
			c0.79-0.422,1.517-1.183,2.19-2.311C237.269,110.628,237.534,109.645,237.391,108.806z"/>
		<path fill="#414042" d="M260.736,106.604c1.631-2.278,1.745-4.173,0.342-5.667c-0.706-0.738-1.596-1.38-2.69-1.917
			c-1.098-0.53-2.299-0.399-3.605,0.393c-2.69,1.032-4.096,2.992-4.188,5.871c-0.038,1.456,0.446,2.662,1.476,3.636
			c1.035,0.978,1.995,1.538,2.875,1.679C257.32,111.058,259.244,109.726,260.736,106.604z"/>
	</g>
	<path fill="#F7941E" d="M22.195,102.589c-3.923-0.104-7.476-1.058-10.653-2.874l5.532-15.184c2.11,1.269,4.019,2.09,5.727,2.448
		c1.715,0.364,3.31,0.271,4.806-0.279c1.904-0.705,3.152-1.803,3.737-3.305c0.581-1.503,0.471-3.36-0.349-5.571L23.43,57.291
		L5.066,64.063L0,50.324l36.359-13.396l12.226,33.188c2.71,7.362,2.852,13.577,0.427,18.646c-2.429,5.072-7.29,8.955-14.598,11.647
		C30.197,101.965,26.121,102.692,22.195,102.589z"/>
	<path fill="#F7941E" d="M44.635,12.705c1.54,1.163,2.43,2.839,2.675,5.022c0.114,0.984,0.093,1.976-0.061,2.988
		c-0.152,1.008-0.592,2.563-1.311,4.667l-3.017,8.868l-7.914,0.883l1.759-9.87c-1.237-0.436-2.23-1.152-2.988-2.155
		c-0.767-1.001-1.222-2.237-1.393-3.709c-0.246-2.183,0.258-4.013,1.505-5.491c1.249-1.473,2.968-2.333,5.149-2.579
		C41.225,11.082,43.095,11.542,44.635,12.705z"/>
	<path fill="#F7941E" d="M67.555,37.274l-17.121,5.033l-4.495-15.282l53.946-15.859l4.495,15.281l-17.121,5.031l12.69,43.171
		l-19.707,5.795L67.555,37.274z"/>
	<path fill="#F7941E" d="M138.683,43.146l-17.865,2.002l-2.235,8.548l-16.118,1.801l15.284-49.306l15.58-1.744l25.805,44.705
		l-16.378,1.835L138.683,43.146z M133.042,32.222l-5.891-11.306l-3.241,12.331L133.042,32.222z"/>
	<path fill="#F7941E" d="M191.518,1.334c4.072,1.293,7.344,3.437,9.811,6.436c2.467,2.997,3.942,6.657,4.421,10.971
		c0.486,4.313-0.137,8.206-1.883,11.677c-1.74,3.471-4.457,6.286-8.142,8.446c-3.69,2.159-8.156,3.534-13.385,4.118l-8.167,0.916
		l1.556,13.911l-19.093,2.135L150.3,3.327l27.259-3.053C182.791-0.312,187.448,0.042,191.518,1.334z M185.113,26.003
		c1.162-1.302,1.622-3.006,1.393-5.109c-0.234-2.102-1.063-3.661-2.5-4.675c-1.421-1.011-3.427-1.375-6.017-1.087l-6.952,0.782
		l1.485,13.262l6.956-0.778C182.074,28.104,183.945,27.312,185.113,26.003z"/>
	<path fill="#F7941E" d="M237.411,45.667l-1.964,11.194l-36.596-6.405l7.705-44.014l35.779,6.262l-1.96,11.192l-21.185-3.708
		l-0.911,5.155l18.614,3.254l-1.867,10.692l-18.622-3.257l-1.004,5.784L237.411,45.667z"/>
	<path fill="#414042" d="M122.978,254.102c2.53,0.258,4.105,0.762,4.739,1.52c0.636,0.756,1.078,1.645,1.334,2.651
		c0,0.76-0.135,1.713-0.379,2.85c-0.256,1.138-0.759,2.09-1.515,2.847c-0.513,1.013-1.332,1.646-2.472,1.899
		c-1.132,0.251-2.336,0.502-3.6,0.755c-1.268,0-2.722-0.057-4.365-0.189c-1.653-0.124-3.217-0.063-4.746,0.189
		c-4.046,1.274-7.467,3.167-10.245,5.692c-2.028,1.27-3.737,2.725-5.13,4.364c-1.385,1.647-2.712,2.725-3.98,3.229
		c-2.026,1.771-4.422,2.151-7.208,1.132c-1.274-0.75-2.025-1.955-2.272-3.605c-0.255-1.638,2.272-4.104,7.585-7.396
		c-3.296,1.524-5.689,2.028-7.217,1.524c-1.514-0.507-2.528-1.39-3.023-2.659c-0.513-1.268-0.384-2.337,0.373-3.231
		c0.758-0.881,2.791-2.087,6.072-3.604c-2.028,0.254-3.421,0.136-4.166-0.383c-0.769-0.5-1.403-1.131-1.906-1.893
		c-0.506-1.521-0.122-2.654,1.137-3.416c0.505-0.248,1.33-0.382,2.473-0.382c1.129,0,2.841-0.248,5.119-0.756
		c1.519-0.248,3.413-0.627,5.689-1.138c2.278-0.501,4.806-1.14,7.592-1.896l6.827-3.414l-1.137-23.535
		c-2.539-2.018-3.981-4.164-4.355-6.443c-0.384-2.278,0.69-4.428,3.218-6.454c-0.51-1.771-0.891-3.663-1.135-5.693
		c-0.267-2.025-0.384-4.046-0.384-6.074c0.255,0.258,0.384,0.517,0.384,0.766c0,0.259,0.119,0.51,0.379,0.755
		c0.5,1.272,1.14,2.408,1.893,3.418c0.764,1.013,1.519,2.026,2.283,3.031c1.015,0.763,1.954,1.583,2.848,2.473
		c0.878,0.884,1.947,1.707,3.222,2.46c1.259,0.516,2.528,1.02,3.791,1.519c1.267,0.511,2.526,0.893,3.801,1.139h0.382
		c-0.511,1.27-1.023,2.468-1.524,3.607c-0.5,1.138-1.131,2.212-1.893,3.224c2.272,1.518,4.043,3.603,5.313,6.265
		c1.264,2.654,1.638,5.376,1.135,8.155c-0.51,2.793-1.647,5.381-3.412,7.784C122.732,247.592,122.227,250.562,122.978,254.102z"/>
	<path fill="#414042" d="M85.268,272.779c0.5-1.258,0.124-1.896-1.146-1.896c-0.503-0.251-1.261-0.379-2.272-0.379
		c-1.269,0.51-2.027,1.139-2.272,1.896c-0.263,0.251-0.134,1.02,0.376,2.274c1.008,0.516,2.017,0.638,3.041,0.379
		C84.5,274.551,85.268,273.794,85.268,272.779z"/>
	<path fill="#414042" d="M82.995,265.57c1.249-0.761,1.393-1.388,0.379-1.894c-0.255-1.011-0.763-1.521-1.525-1.521
		c-1.269,0-1.896,0.633-1.896,1.893c0,1.021,0.248,1.647,0.769,1.903C81.971,265.952,82.735,265.827,82.995,265.57z"/>
	<path fill="#414042" d="M178.993,51.923c0.501,0.515,1.076,1.397,1.709,2.658c0.63,1.266,0.819,3.167,0.572,5.688
		c-0.511,2.029-1.392,4.243-2.661,6.646c-1.269,2.403-4.299,4.999-9.101,7.777c0.749,6.584,1.131,14.42,1.131,23.531
		c0,9.103-0.382,18.973-1.131,29.597v5.691c-0.762,9.363-1.771,18.662-3.041,27.893c-1.257,9.239-2.782,17.903-4.553,25.997
		c-0.511,1.771-0.892,3.359-1.137,4.744c-0.255,1.39-0.633,2.721-1.146,3.983c-2.02,5.818-4.484,10.754-7.401,14.795
		c-2.896,4.057-7.263,6.71-13.082,7.971c-1.273,0.251-2.467,0.449-3.615,0.571c-1.124,0.132-2.588,0.187-4.359,0.187
		c-1.27,0-2.463-0.055-3.603-0.187c-1.133-0.122-2.332-0.32-3.604-0.571c-5.823-1.261-10.241-3.914-13.277-7.971
		c-3.038-4.041-5.312-8.855-6.836-14.419c-0.503-1.26-0.942-2.651-1.332-4.17c-0.379-1.522-0.819-3.162-1.319-4.934
		c-2.032-8.094-3.665-16.757-4.935-25.997c-1.269-9.231-2.272-18.53-3.042-27.893c0-0.762-0.06-1.637-0.184-2.654
		c-0.132-1.011-0.192-2.024-0.192-3.037c-0.503-10.112-0.759-19.6-0.759-28.464c0-8.851,0.38-16.561,1.135-23.144v-0.379
		c-5.306-3.036-8.786-5.889-10.435-8.541c-1.643-2.657-2.462-4.995-2.462-7.023c-0.256-2.521-0.072-4.422,0.574-5.688
		c0.624-1.261,1.188-2.143,1.704-2.658c1.511-0.756,2.656,0.257,3.42,3.039c0.505,1.522,1.325,3.291,2.462,5.307
		c1.135,2.029,3.857,3.677,8.158,4.939c1.514-1.77,3.542-3.415,6.069-4.939c-3.286-2.521-5.824-4.992-7.594-7.395
		c-1.772-2.404-3.031-4.553-3.79-6.45c-0.755-1.899-1.203-3.542-1.33-4.936c-0.134-1.382-0.066-2.587,0.189-3.609
		c1.77-4.042,5.19-4.163,10.24-0.375c2.028,1.521,4.24,3.861,6.655,7.021c2.396,3.167,4.99,7.273,7.771,12.333
		c2.276-0.504,4.747-0.756,7.399-0.756c2.655,0,5.628,0,8.916,0c3.54,0,6.648,0,9.304,0c2.652,0,5.12,0.252,7.391,0.756
		c2.789-4.297,5.19-7.972,7.215-11.004c2.017-3.035,4.045-5.185,6.073-6.449c5.055-4.306,8.597-4.179,10.63,0.375
		c0.499,2.028,0.3,4.745-0.57,8.156c-0.889,3.419-3.979,7.66-9.303,12.715c2.283,1.271,3.664,2.655,4.176,4.182
		c4.043-1.268,6.511-2.852,7.406-4.749c0.88-1.899,1.572-3.601,2.084-5.123C176.586,52.18,177.73,51.167,178.993,51.923z"/>
	<path fill="#414042" d="M87.161,283.781c1.525-1.006,2.272-1.763,2.272-2.274c-0.5-1.517-1.648-2.271-3.402-2.271
		c-0.518,0-1.08,0.184-1.717,0.566c-0.634,0.376-0.939,0.943-0.939,1.704c-0.255,0.764,0,1.521,0.748,2.274
		C85.391,284.299,86.411,284.299,87.161,283.781z"/>
	<path fill="#FFFFFF" d="M98.165,78.109c0.764,2.533,2.657,3.739,5.693,3.603c3.04-0.123,5.566-0.565,7.594-1.328h0.374
		c1.521-0.761,3.797-2.212,6.833-4.366c3.041-2.141,4.17-4.611,3.417-7.401c-0.755-2.778-2.849-4.035-6.269-3.784
		c-3.402,0.249-6.135,0.748-8.152,1.51c-0.758,0.258-1.773,0.702-3.037,1.326c-1.264,0.637-2.472,1.464-3.596,2.477
		c-1.149,1.005-2.032,2.212-2.663,3.6C97.726,75.133,97.659,76.594,98.165,78.109z"/>
	<path fill="#FFFFFF" d="M98.929,44.337c-0.764,1.014-0.64,2.464,0.379,4.362c1.009,1.895,3.542,5.252,7.59,10.058
		c0.758-0.248,1.571-0.442,2.467-0.571c0.889-0.125,1.709-0.438,2.461-0.951c-3.285-7.585-6.064-11.953-8.347-13.089
		C101.207,43.009,99.687,43.069,98.929,44.337z"/>
	<path fill="#414042" d="M115.623,70.9c0.508,1.518,0.386,3.102-0.383,4.739c-0.756,1.655-1.77,2.729-3.029,3.23
		c-0.261,0.256-0.634,0.379-1.137,0.379c-3.797,0.756-5.947-0.505-6.455-3.794c-0.511-1.773-0.439-3.541,0.184-5.309
		c0.63-1.774,1.594-2.91,2.853-3.423h0.758c1.759-0.759,3.289-0.694,4.555,0.192C114.238,67.809,115.118,69.134,115.623,70.9z"/>
	<path fill="#FFFFFF" d="M111.073,75.834c1.009-1.005,1.383-2.279,1.137-3.795c-0.507-2.019-1.394-2.523-2.662-1.517
		c-0.758,0-1.134,0.128-1.134,0.378c0-0.754-0.514-1.139-1.517-1.139c-0.5,1.008-0.63,1.771-0.386,2.278
		c0,0.256,0.069,0.507,0.195,0.759c0.129,0.252,0.313,0.13,0.57-0.38c0,0.759,0.123,1.264,0.379,1.518
		c0,0.757,0.379,1.328,1.134,1.703C109.548,76.019,110.312,76.087,111.073,75.834z"/>
	<path fill="#FFFFFF" d="M150.157,185.352c2.468-3.198,3.905-7.927,4.319-14.203c0.412-6.271,0.613-14.513,0.613-24.721
		c0-10.63-0.202-19.032-0.613-25.2c-0.414-6.167-1.98-10.954-4.697-14.36c0,5.106-0.125,8.992-0.349,11.649
		c-0.236,2.659-0.528,4.623-0.872,5.899c-0.346,1.276-0.694,1.967-1.042,2.07c-0.359,0.113-0.641,0.057-0.873-0.156
		c-0.233-0.208-0.408-0.584-0.52-1.113c-0.124-0.53-0.228-1.541-0.348-3.036c-0.124-1.485-0.174-3.719-0.174-6.699
		c0-2.975,0-7.018,0-12.116c-0.503-0.427-0.887-0.646-1.138-0.646c-0.255,0-0.634-0.101-1.14-0.318
		c0,6.169-0.133,10.907-0.379,14.197c-0.26,3.305-0.569,5.688-0.948,7.176c-0.382,1.489-0.695,2.346-0.946,2.554
		c-0.255,0.213-0.518,0.213-0.762,0c-0.256-0.208-0.44-0.584-0.565-1.113c-0.132-0.53-0.26-1.649-0.382-3.349
		c-0.139-1.708-0.189-4.154-0.189-7.341c0-3.191,0-7.547,0-13.079c-0.758,0-1.273-0.216-1.526-0.636
		c-0.251,6.594-0.562,11.638-0.941,15.153c-0.385,3.502-0.764,6.055-1.148,7.652c-0.368,1.6-0.745,2.505-1.124,2.713
		c-0.386,0.213-0.707,0.213-0.953,0c-0.256-0.208-0.452-0.638-0.574-1.275c-0.122-0.639-0.184-1.756-0.184-3.353
		c0-1.593,0-4.035,0-7.334c0-3.294,0-7.823,0-13.555h-1.524h-0.757c0,5.732-0.068,10.261-0.194,13.555
		c-0.119,3.299-0.248,5.741-0.375,7.334c-0.128,1.597-0.25,2.714-0.374,3.353c-0.134,0.637-0.328,1.067-0.58,1.275
		c-0.239,0.213-0.499,0.213-0.75,0c-0.259-0.208-0.574-1.113-0.954-2.713c-0.368-1.597-0.695-4.149-0.95-7.652
		c-0.259-3.515-0.379-8.559-0.379-15.153c-0.248,0.42-0.888,0.636-1.896,0.636c0,5.532,0,9.888,0,13.079
		c0,3.187-0.061,5.633-0.184,7.341c-0.132,1.7-0.316,2.819-0.571,3.349c-0.251,0.528-0.514,0.905-0.758,1.113
		c-0.256,0.213-0.511,0.213-0.757,0c-0.258-0.208-0.568-1.064-0.953-2.554c-0.379-1.488-0.758-3.872-1.137-7.176
		c-0.382-3.291-0.566-8.028-0.566-14.197c-0.261,0.217-0.569,0.318-0.948,0.318c-0.379,0-0.707,0.219-0.958,0.646
		c0,5.098,0,9.141,0,12.116c0,2.98-0.068,5.214-0.188,6.699c-0.135,1.495-0.259,2.506-0.379,3.036
		c-0.124,0.528-0.319,0.905-0.563,1.113c-0.262,0.213-0.522,0.27-0.769,0.156c-0.251-0.103-0.562-0.794-0.94-2.07
		c-0.38-1.277-0.701-3.24-0.953-5.899c-0.256-2.658-0.511-6.543-0.757-11.649c-2.532,3.406-3.983,8.192-4.366,14.36
		c-0.383,6.167-0.567,14.569-0.567,25.2c0,10.208,0.184,18.451,0.567,24.721c0.383,6.276,1.834,11.005,4.366,14.203
		c0-5.106,0.122-9.04,0.379-11.806c0.245-2.766,0.562-4.732,0.95-5.901c0.38-1.167,0.758-1.81,1.136-1.918
		c0.379-0.104,0.691-0.044,0.953,0.164c0.244,0.215,0.439,0.529,0.563,0.955c0.12,0.425,0.244,1.437,0.379,3.033
		c0.12,1.593,0.188,3.934,0.188,7.019c0,3.081,0,7.28,0,12.599c0.506,0.426,1.142,0.639,1.905,0.639
		c0-6.385,0.121-11.276,0.376-14.673c0.252-3.401,0.568-5.853,0.948-7.342c0.379-1.485,0.764-2.283,1.132-2.392
		c0.383-0.104,0.701-0.044,0.957,0.164c0.244,0.215,0.507,0.587,0.758,1.113c0.255,0.54,0.439,1.593,0.571,3.194
		c0.123,1.593,0.184,4.039,0.184,7.336c0,3.302,0,7.92,0,13.874c0.247,0,0.502,0.061,0.763,0.164
		c0.245,0.106,0.625,0.155,1.133,0.155c0-6.592,0.12-11.75,0.379-15.47c0.255-3.723,0.582-6.379,0.95-7.975
		c0.379-1.602,0.694-2.446,0.954-2.555c0.251-0.104,0.511-0.044,0.75,0.164c0.252,0.215,0.508,0.587,0.764,1.113
		c0.245,0.54,0.446,1.593,0.564,3.194c0.125,1.593,0.194,4.096,0.194,7.495s0,8.081,0,14.035h0.757h1.524c0-5.954,0-10.637,0-14.035
		s0-5.902,0-7.495c0-1.601,0.063-2.654,0.184-3.194c0.123-0.525,0.318-0.897,0.574-1.113c0.507-0.208,1.013-0.268,1.516-0.164
		c0.5,0.109,0.945,0.953,1.324,2.555c0.385,1.596,0.701,4.252,0.951,7.975c0.248,3.72,0.375,8.878,0.375,15.47
		c0.252,0,0.513-0.049,0.768-0.155c0.246-0.104,0.5-0.164,0.758-0.164c0-5.954,0-10.572,0-13.874c0-3.297,0.05-5.744,0.189-7.336
		c0.122-1.601,0.25-2.654,0.382-3.194c0.125-0.525,0.309-0.897,0.565-1.113c0.244-0.208,0.563-0.268,0.942-0.164
		c0.385,0.109,0.767,0.907,1.146,2.392c0.379,1.489,0.694,3.941,0.948,7.342c0.246,3.397,0.385,8.289,0.385,14.673
		c0.244,0,0.879-0.213,1.893-0.639c0-5.318,0-9.518,0-12.599c0-3.085,0.05-5.426,0.174-7.019c0.12-1.596,0.224-2.607,0.348-3.033
		c0.123-0.426,0.287-0.739,0.52-0.955c0.243-0.208,0.533-0.268,0.882-0.164c0.348,0.109,0.697,0.751,1.049,1.918
		c0.353,1.169,0.701,3.135,1.049,5.901C149.973,176.312,150.157,180.246,150.157,185.352z"/>
	<path fill="#414042" d="M109.928,70.9c1.013,0,1.524,0.507,1.524,1.518c0,1.264-0.511,1.893-1.524,1.893
		c-1.004,0-1.514-0.629-1.514-1.893C108.414,71.407,108.924,70.9,109.928,70.9z"/>
	<path fill="#FFFFFF" d="M124.733,76.213c-0.516,1.521-0.895,2.913-1.139,4.172c-0.262,1.269-0.319,2.343-0.191,3.228
		c0.126,0.89,0.567,1.328,1.33,1.328c0.765,0,1.388-0.629,1.894-1.897c0.509-1.262,0.764-2.52,0.764-3.794
		c0-1.26-0.195-2.337-0.563-3.23C126.442,75.133,125.742,75.209,124.733,76.213z"/>
	<path fill="#FFFFFF" d="M134.213,76.213c-0.506,1.521-0.885,2.913-1.132,4.172c-0.256,1.269-0.316,2.343-0.195,3.228
		c0.123,0.89,0.574,1.328,1.327,1.328c0.764,0,1.324-0.629,1.709-1.897c0.379-1.262,0.628-2.52,0.764-3.794
		c0.121-1.26,0-2.337-0.385-3.23C135.922,75.133,135.221,75.209,134.213,76.213z"/>
	<path fill="#414042" d="M175.364,264.665c3.033,1.517,4.938,2.72,5.687,3.601c0.767,0.897,0.89,1.968,0.378,3.231
		c-0.496,1.271-1.507,2.155-3.031,2.659c-1.513,0.505-3.921,0-7.207-1.523c2.52,1.523,4.362,2.912,5.498,4.181
		c1.141,1.267,1.771,2.34,1.905,3.222c0.123,0.888-0.135,1.647-0.765,2.273c-0.633,0.639-1.199,1.083-1.702,1.325
		c-2.539,1.023-4.812,0.642-6.83-1.129c-1.524-0.506-2.988-1.582-4.367-3.228c-1.395-1.641-2.981-3.095-4.743-4.361
		c-2.79-2.529-6.205-4.425-10.256-5.696c-1.504-0.253-3.021-0.314-4.545-0.19c-1.514,0.134-3.173,0.19-4.934,0.19
		c-1.266-0.253-2.346-0.506-3.229-0.758c-0.885-0.251-1.699-0.881-2.461-1.896c-0.758-0.759-1.264-1.71-1.524-2.851
		c-0.248-1.135-0.37-2.089-0.37-2.843c0.246-1.012,0.75-1.902,1.515-2.655c0.758-0.756,2.272-1.263,4.549-1.52
		c0.504-3.538,0-6.513-1.508-8.916c-1.533-2.402-2.539-4.99-3.041-7.781c-0.765-2.78-0.512-5.506,0.758-8.16
		c1.257-2.657,2.906-4.743,4.934-6.264c-0.518-1.005-1.019-2.082-1.516-3.222c-0.512-1.139-1.019-2.338-1.525-3.605
		c2.523-0.249,5.179-1.141,7.974-2.657c1.002-0.755,2.022-1.579,3.03-2.463c1.013-0.886,1.77-1.708,2.283-2.471
		c1.259-1.007,2.273-2.211,3.031-3.605c0.767-1.39,1.646-2.717,2.654-3.982c0-0.249,0.07-0.438,0.201-0.565
		c0.124-0.127,0.184-0.323,0.184-0.574c0,2.03-0.131,4.114-0.385,6.265c-0.255,2.153-0.885,4.238-1.887,6.263
		c2.775,2.023,4.043,4.17,3.79,6.452c-0.248,2.275-1.773,4.424-4.556,6.442l-1.516,23.535l7.211,3.413
		c5.81,1.515,10.251,2.533,13.283,3.032c2.027,0.511,3.613,0.758,4.74,0.758c1.144,0,2.209,0.133,3.233,0.379
		c0.998,1.021,1.253,2.154,0.748,3.42C180.548,264.162,178.643,264.922,175.364,264.665z"/>
	<path fill="#FFFFFF" d="M164.947,78.87c0.511-1.262,0.39-2.589-0.378-3.987c-0.749-1.385-1.699-2.653-2.838-3.793
		c-1.144-1.144-2.352-2.091-3.605-2.845c-1.266-0.758-2.273-1.265-3.037-1.521h-1.14c-1.766-0.759-4.11-1.198-7.023-1.326
		c-2.9-0.125-4.865,1.08-5.875,3.601c-0.255,1.523,0,2.916,0.762,4.179c0.747,1.27,1.71,2.406,2.835,3.417
		c1.148,1.014,2.277,1.899,3.42,2.655c1.146,0.756,2.088,1.274,2.845,1.517c0.258,0,0.503,0.062,0.758,0.184
		c0.255,0.136,0.63,0.197,1.146,0.197c1.76,0.757,4.043,1.136,6.818,1.136C162.42,82.283,164.201,81.147,164.947,78.87z"/>
	<path fill="#414042" d="M150.914,80.005c-1.515-1.01-2.534-2.336-3.04-3.986c-0.503-1.64-0.503-3.221,0-4.742
		c0.761-3.033,2.534-4.553,5.323-4.553c0.503,0,0.882,0.064,1.136,0.192c0.246,0.131,0.502,0.19,0.757,0.19
		c1.771,1.01,2.906,2.41,3.422,4.171c0.499,1.773,0.499,3.293,0,4.557c-1.282,3.036-3.175,4.551-5.693,4.551
		c-0.261,0-0.583-0.06-0.951-0.185C151.487,80.07,151.171,80.005,150.914,80.005z"/>
	<path fill="#FFFFFF" d="M163.06,46.609c-0.509-1.006-2.034-1.069-4.549-0.184c-2.528,0.886-5.19,4.489-7.972,10.811
		c1.257,0.513,2.403,0.827,3.411,0.951c1.009,0.128,2.033,0.323,3.037,0.571c3.283-3.795,5.311-6.577,6.074-8.348
		C163.821,48.64,163.821,47.37,163.06,46.609z"/>
	<path fill="#FFFFFF" d="M150.914,73.177c-0.251,0.505-0.251,1.081,0,1.706c0.258,0.637,0.758,1.076,1.527,1.33
		c1.258,0.506,2.137,0,2.648-1.52c0.247-0.246,0.381-0.626,0.381-1.138c0.513,0,0.758-0.377,0.758-1.137
		c0.5-0.249,0.378-0.759-0.375-1.518c-0.517-0.25-0.895,0.125-1.14,1.139c0-0.507-0.135-0.762-0.381-0.762
		c-0.253,0-0.383-0.125-0.383-0.376C152.441,70.396,151.417,71.152,150.914,73.177z"/>
	<path fill="#414042" d="M152.653,75.455c-1.166,0-1.74-0.626-1.74-1.9c0-1.516,0.574-2.278,1.74-2.278
		c0.862,0,1.296,0.762,1.296,2.278C153.949,74.829,153.515,75.455,152.653,75.455z"/>
	<path fill="#414042" d="M177.097,279.236c-1.768,0-2.782,0.754-3.037,2.271c0,0.764,0.634,1.521,1.898,2.274
		c0.762,0.518,1.772,0.518,3.035,0c0.501-0.504,0.767-1.257,0.767-2.274C179.248,279.99,178.366,279.236,177.097,279.236z"/>
	<path fill="#414042" d="M183.169,274.675c1.012-1.001,1.27-1.759,0.767-2.274c-0.517-0.505-1.399-1.137-2.661-1.896
		c-1.012,0-1.78,0.128-2.281,0.379c-1.263,0-1.648,0.638-1.139,1.896c0,1.015,0.759,1.771,2.279,2.274
		C180.64,275.313,181.652,275.19,183.169,274.675z"/>
	<path fill="#414042" d="M179.37,263.677c-0.256,0.252-0.122,0.889,0.39,1.894c0.245,0.257,0.623,0.382,1.136,0.382
		c0.502,0,0.883,0,1.138,0c0.503-0.256,0.942-0.575,1.326-0.951c0.382-0.382,0.321-0.693-0.19-0.952c0-1.26-0.633-1.893-1.895-1.893
		C180.263,262.156,179.623,262.666,179.37,263.677z"/>
	<path fill="#F7941E" d="M31.517,142.524c-3.245-1.677-5.522-4.703-6.838-9.09l-4.848-16.13l9.885-2.969l4.758,15.836
		c0.646,2.15,1.496,3.601,2.559,4.348c1.066,0.747,2.326,0.901,3.779,0.464c1.449-0.435,2.415-1.257,2.886-2.469
		c0.471-1.204,0.39-2.883-0.256-5.038l-4.761-15.836l9.725-2.916l4.842,16.13c1.322,4.383,1.085,8.167-0.7,11.354
		c-1.788,3.186-4.919,5.453-9.424,6.801C38.631,144.363,34.761,144.199,31.517,142.524z"/>
	<path fill="#F7941E" d="M88.349,96.563l1.148,34.279l-9.501,0.317l-13.542-15.135l0.516,15.571l-11.264,0.377L54.56,97.7
		l9.498-0.323l13.553,15.138l-0.522-15.572L88.349,96.563z"/>
	<path fill="#F7941E" d="M206.844,65.777l17.854-9.023l11.465,30.088l-11.916,6.015L206.844,65.777z M232.035,109.103
		c-2.413-0.717-4.175-2.18-5.286-4.389c-1.131-2.25-1.264-4.525-0.373-6.827c0.881-2.302,2.61-4.097,5.16-5.387
		c2.559-1.297,5.038-1.615,7.409-0.964c2.377,0.657,4.136,2.11,5.271,4.354c1.117,2.208,1.247,4.496,0.397,6.863
		c-0.854,2.373-2.562,4.198-5.115,5.488C236.933,109.535,234.453,109.824,232.035,109.103z"/>
	<path fill="#F7941E" d="M128.333,163.051l-5.375,1.863l5.117,14.788l-19.833,6.862l-20.354-58.818l28.314-9.798
		c5.436-1.881,10.482-2.624,15.141-2.227c4.645,0.399,8.647,1.894,11.997,4.505c3.348,2.602,5.794,6.146,7.351,10.627
		c1.452,4.2,1.769,8.199,0.95,11.994c-0.819,3.801-2.701,7.24-5.646,10.332l18.638,13.874l-21.183,7.329L128.333,163.051z
		 M126.908,133.391c-1.759-0.743-3.98-0.648-6.672,0.287l-7.228,2.495l4.771,13.784l7.225-2.501
		c2.695-0.933,4.495-2.229,5.428-3.903c0.93-1.666,1.01-3.595,0.26-5.78C129.935,135.586,128.676,134.129,126.908,133.391z"/>
	<path fill="#F7941E" d="M67.181,208.729c-6.372-0.088-12.186-1.776-17.442-5.065c-5.254-3.286-9.393-7.937-12.428-13.942
		c-3.034-6.011-4.313-12.104-3.842-18.287c0.475-6.172,2.563-11.854,6.278-17.038c3.717-5.185,8.724-9.365,15.009-12.545
		c5.782-2.918,11.454-4.504,17.021-4.752c5.569-0.251,10.796,0.813,15.683,3.176l-6.952,17.705
		c-6.032-2.786-11.546-2.918-16.52-0.403c-4.208,2.119-6.9,5.172-8.087,9.15c-1.192,3.98-0.64,8.242,1.649,12.772
		c2.293,4.536,5.396,7.503,9.303,8.907c3.902,1.408,7.959,1.049,12.157-1.069c4.985-2.521,8.147-7.033,9.485-13.54l18.376,4.912
		c-1,5.342-3.249,10.179-6.754,14.507c-3.507,4.334-8.149,7.956-13.927,10.88C79.894,207.27,73.558,208.816,67.181,208.729z"/>
	<g>
		<path fill="#414042" d="M62.425,216.404c-6.576,0.974-12.647,1.081-18.206,0.301c-5.571-0.754-10.456-2.313-14.649-4.652
			c-4.205-2.325-7.338-4.849-9.4-7.546c-2.076-2.675-3.242-5.177-3.513-7.489c-1.335-4.314,0.6-7.609,5.78-9.865
			c0.95-0.659,2.209-1.137,3.766-1.421c1.545-0.28,2.959-0.139,4.234,0.442c1.274,0.572,2.393,1.961,3.383,4.145
			c0.972,2.199,1.499,5.389,1.575,9.586c-0.011-4.81,0.384-8.579,1.164-11.292c0.792-2.716,1.795-4.828,3.043-6.35
			c1.229-1.522,2.576-2.552,4.034-3.104c1.438-0.542,2.876-0.936,4.298-1.173c2.58-0.365,4.403-0.311,5.503,0.188
			c1.09,0.495,1.936,1.529,2.532,3.116c0.696,1.848,1.004,4.073,0.933,6.656c-0.092,2.6-1.182,5.501-3.286,8.703
			c5.077-7.339,9.252-10.427,12.57-9.26c3.305,1.179,4.556,5.07,3.737,11.713"/>
		<path fill="#FFFFFF" d="M29.992,198.779c0.951-0.661,1.493-1.624,1.633-2.885c0.126-1.25-0.19-2.485-0.959-3.714
			c-1.52-2.429-3.705-3.416-6.541-2.955c-1.514-0.024-2.686,0.485-3.488,1.541c-0.806,1.061-1.328,2.088-1.557,3.071
			c0.276,2.318,1.443,3.836,3.531,4.555C25.549,200.605,28.012,200.729,29.992,198.779z"/>
		<path fill="#FFFFFF" d="M48.611,191.76c2.826-0.461,4.208-2.049,4.095-4.715c0.255-2.511-0.645-4.122-2.723-4.856
			c-0.738-0.325-1.627-0.287-2.683,0.114c-1.053,0.393-1.878,1.006-2.475,1.829c-1.751,0.967-2.223,2.503-1.436,4.613
			c0.563,0.698,1.425,1.358,2.57,1.973C47.092,191.355,47.971,191.698,48.611,191.76z"/>
		<path fill="#FFFFFF" d="M64.524,197.975c1.849-0.696,2.63-2.198,2.37-4.519c-0.696-1.846-2.109-2.37-4.219-1.577
			c-1.785,0.077-2.587,1.137-2.425,3.172c0.297,0.796,0.9,1.405,1.816,1.813C62.973,197.274,63.786,197.65,64.524,197.975z"/>
	</g>
	<path fill="#F7941E" d="M181.429,160.192c-6.551-0.093-12.505-1.8-17.863-5.122c-5.371-3.322-9.577-8.007-12.632-14.056
		c-3.049-6.046-4.319-12.212-3.818-18.502c0.511-6.29,2.673-12.095,6.491-17.415c3.818-5.325,8.977-9.629,15.475-12.913
		c6.512-3.286,13.042-4.885,19.584-4.795c6.546,0.09,12.509,1.796,17.872,5.124c5.354,3.324,9.563,8.007,12.621,14.052
		c3.05,6.043,4.324,12.214,3.813,18.505c-0.505,6.287-2.666,12.094-6.48,17.417c-3.822,5.321-8.978,9.626-15.479,12.912
		C194.511,158.682,187.98,160.28,181.429,160.192z M198.606,133.583c1.421-2.273,2.157-4.85,2.217-7.737
		c0.065-2.884-0.671-5.853-2.217-8.902c-1.541-3.051-3.491-5.404-5.847-7.072c-2.366-1.665-4.872-2.6-7.54-2.806
		c-2.674-0.206-5.267,0.332-7.805,1.612c-2.537,1.275-4.504,3.051-5.926,5.322c-1.421,2.267-2.161,4.85-2.223,7.733
		c-0.06,2.885,0.687,5.854,2.223,8.904c1.541,3.053,3.49,5.408,5.845,7.067c2.364,1.669,4.871,2.6,7.544,2.809
		c2.673,0.206,5.273-0.331,7.799-1.607C195.212,137.621,197.193,135.85,198.606,133.583z"/>
	<g>
		<path fill="#414042" d="M236.933,141.518c6.09-2.671,11.287-5.809,15.572-9.424c4.32-3.607,7.631-7.522,9.933-11.733
			c2.327-4.209,3.636-8.008,3.949-11.386c0.33-3.373-0.016-6.109-1.01-8.214c-1.166-4.358-4.554-6.125-10.146-5.278
			c-1.16-0.053-2.475,0.215-3.947,0.801c-1.455,0.583-2.582,1.459-3.349,2.621c-0.768,1.167-0.984,2.935-0.648,5.31
			c0.337,2.379,1.59,5.367,3.754,8.959c-2.55-4.083-4.888-7.064-6.996-8.948c-2.106-1.876-4.095-3.126-5.945-3.756
			c-1.854-0.635-3.536-0.794-5.067-0.48c-1.511,0.307-2.938,0.735-4.271,1.297c-2.375,1.059-3.888,2.075-4.558,3.083
			c-0.651,0.998-0.823,2.325-0.486,3.985c0.394,1.937,1.324,3.979,2.755,6.128c1.459,2.16,3.927,4.033,7.414,5.627
			c-8.205-3.517-13.395-3.908-15.575-1.154c-2.169,2.753-1.156,6.712,3.074,11.9"/>
		<path fill="#FFFFFF" d="M255.02,109.343c-1.161-0.053-2.13-0.578-2.919-1.569c-0.774-0.993-1.158-2.208-1.165-3.659
			c0-2.863,1.318-4.862,3.97-5.979c1.268-0.828,2.537-1.018,3.777-0.552c1.249,0.468,2.23,1.062,2.948,1.775
			c1.003,2.106,0.819,4.016-0.569,5.732C259.757,108.527,257.741,109.945,255.02,109.343z"/>
		<path fill="#FFFFFF" d="M235.516,113.3c-2.639,1.118-4.646,0.512-5.975-1.806c-1.553-1.989-1.645-3.839-0.269-5.567
			c0.446-0.659,1.218-1.105,2.335-1.328c1.095-0.222,2.113-0.146,3.062,0.234c1.996-0.108,3.214,0.938,3.663,3.146
			c-0.103,0.889-0.481,1.907-1.117,3.033C236.592,112.156,236.027,112.913,235.516,113.3z"/>
		<path fill="#FFFFFF" d="M225.354,127.031c-1.94,0.391-3.399-0.457-4.414-2.564c-0.386-1.934,0.524-3.129,2.734-3.575
			c1.545-0.89,2.797-0.417,3.736,1.395c0.173,0.835-0.011,1.67-0.571,2.496C226.296,125.614,225.802,126.367,225.354,127.031z"/>
	</g>
	<g>
		<path fill="#414042" d="M148.19,167.645c-0.353-1.167-0.705-1.81-1.053-1.918c-0.348-0.104-0.634-0.044-0.876,0.164
			c-0.24,0.215-0.398,0.529-0.527,0.955c-0.121,0.425-0.225,1.437-0.348,3.033c-0.124,1.593-0.174,3.934-0.174,7.019
			c0,3.081,0,7.28,0,12.599c-1.008,0.426-1.649,0.639-1.893,0.639c0-6.385-0.139-11.276-0.379-14.673
			c-0.255-3.401-0.569-5.853-0.953-7.342c-0.376-1.485-0.756-2.283-1.14-2.392c-0.385-0.104-0.701-0.044-0.948,0.164
			c-0.256,0.215-0.44,0.587-0.562,1.113c-0.134,0.54-0.258,1.593-0.379,3.194c-0.139,1.593-0.194,4.039-0.194,7.336
			c0,3.302,0,7.92,0,13.874c-0.256,0-0.511,0.061-0.758,0.164c-0.256,0.106-0.511,0.155-0.757,0.155
			c0-6.592-0.139-11.75-0.384-15.47c-0.25-3.723-0.569-6.379-0.948-7.975c-0.379-1.602-0.829-2.446-1.33-2.555
			c-0.503-0.104-1.009-0.044-1.517,0.164c-0.251,0.215-0.451,0.587-0.571,1.113c-0.124,0.54-0.184,1.593-0.184,3.194
			c0,1.593,0,4.096,0,7.495s0,8.081,0,14.035h-1.525h-0.754c0-5.954,0-10.637,0-14.035s-0.065-5.902-0.188-7.495
			c-0.13-1.601-0.325-2.654-0.574-3.194c-0.256-0.525-0.512-0.897-0.757-1.113c-0.252-0.208-0.507-0.268-0.758-0.164
			c-0.25,0.109-0.574,0.953-0.952,2.555c-0.37,1.596-0.697,4.252-0.947,7.975c-0.26,3.72-0.384,8.878-0.384,15.47
			c-0.5,0-0.88-0.049-1.132-0.155c-0.262-0.104-0.517-0.164-0.761-0.164c0-5.954,0-10.572,0-13.874c0-3.297-0.064-5.744-0.184-7.336
			c-0.135-1.601-0.319-2.654-0.58-3.194c-0.246-0.525-0.506-0.897-0.752-1.113c-0.257-0.208-0.572-0.268-0.951-0.164
			c-0.37,0.109-0.758,0.907-1.137,2.392c-0.378,1.489-0.697,3.941-0.941,7.342c-0.255,3.397-0.385,8.289-0.385,14.673
			c-0.764,0-1.399-0.213-1.904-0.639c0-5.318,0-9.518,0-12.599c0-3.085-0.065-5.426-0.184-7.019
			c-0.139-1.596-0.262-2.607-0.384-3.033c-0.122-0.426-0.316-0.739-0.563-0.955c-0.256-0.208-0.567-0.268-0.95-0.164
			c-0.379,0.109-0.758,0.751-1.138,1.918c-0.195,0.585-0.37,1.374-0.528,2.355v23.202h36.723v-11.908
			c-0.072-3.178-0.24-5.77-0.489-7.749C148.888,170.78,148.538,168.814,148.19,167.645z"/>
		<path fill="#414042" d="M113.002,90.601v28.331c0.24,2.444,0.548,4.276,0.907,5.485c0.379,1.276,0.691,1.967,0.942,2.07
			c0.25,0.113,0.51,0.057,0.766-0.156c0.247-0.208,0.442-0.584,0.563-1.113c0.123-0.53,0.245-1.541,0.384-3.036
			c0.119-1.485,0.184-3.719,0.184-6.699c0-2.975,0-7.018,0-12.116c0.255-0.427,0.58-0.646,0.956-0.646
			c0.379,0,0.688-0.101,0.948-0.318c0,6.169,0.184,10.907,0.569,14.197c0.379,3.305,0.757,5.688,1.136,7.176
			c0.389,1.489,0.697,2.346,0.952,2.554c0.245,0.213,0.5,0.213,0.757,0c0.247-0.208,0.507-0.584,0.752-1.113
			c0.261-0.53,0.445-1.649,0.58-3.349c0.12-1.708,0.184-4.154,0.184-7.341c0-3.191,0-7.547,0-13.079
			c1.013,0,1.649-0.216,1.893-0.636c0,6.594,0.124,11.638,0.384,15.153c0.25,3.502,0.577,6.055,0.947,7.652
			c0.377,1.6,0.702,2.505,0.952,2.713c0.251,0.213,0.506,0.213,0.758,0c0.245-0.208,0.44-0.638,0.573-1.275
			c0.123-0.639,0.247-1.756,0.372-3.353c0.135-1.593,0.256-4.035,0.386-7.334c0.123-3.294,0.188-7.823,0.188-13.555h0.754h1.525
			c0,5.732,0,10.261,0,13.555c0,3.299,0,5.741,0,7.334c0,1.597,0.06,2.714,0.184,3.353c0.12,0.637,0.32,1.067,0.571,1.275
			c0.252,0.213,0.574,0.213,0.953,0c0.379-0.208,0.758-1.113,1.126-2.713c0.387-1.597,0.767-4.149,1.146-7.652
			c0.379-3.515,0.69-8.559,0.953-15.153c0.246,0.42,0.757,0.636,1.515,0.636c0,5.532,0,9.888,0,13.079
			c0,3.187,0.055,5.633,0.194,7.341c0.121,1.7,0.245,2.819,0.379,3.349c0.122,0.528,0.306,0.905,0.562,1.113
			c0.247,0.213,0.507,0.213,0.762,0c0.251-0.208,0.57-1.064,0.949-2.554c0.376-1.488,0.69-3.872,0.945-7.176
			c0.25-3.291,0.385-8.028,0.385-14.197c0.499,0.217,0.879,0.318,1.137,0.318c0.251,0,0.631,0.219,1.135,0.646
			c0,5.098,0,9.141,0,12.116c0,2.98,0.05,5.214,0.174,6.699c0.123,1.495,0.227,2.506,0.348,3.036
			c0.119,0.528,0.287,0.905,0.527,1.113c0.231,0.213,0.518,0.27,0.866,0.156c0.348-0.103,0.701-0.794,1.053-2.07
			c0.339-1.277,0.627-3.24,0.862-5.899c0.224-2.658,0.348-6.543,0.348-11.649c0.124,0.149,0.227,0.313,0.337,0.467V90.601H113.002z"
			/>
	</g>
</g>
</svg>
