<?xml version="1.0" encoding="utf-8"?>
<!-- Generator: Adobe Illustrator 16.0.3, SVG Export Plug-In . SVG Version: 6.00 Build 0)  -->
<!DOCTYPE svg PUBLIC "-//W3C//DTD SVG 1.1//EN" "http://www.w3.org/Graphics/SVG/1.1/DTD/svg11.dtd">
<svg version="1.1" id="Layer_1" xmlns="http://www.w3.org/2000/svg" xmlns:xlink="http://www.w3.org/1999/xlink" x="0px" y="0px"
	 width="179.367px" height="119.708px" viewBox="0 0 179.367 119.708" enable-background="new 0 0 179.367 119.708"
	 xml:space="preserve">
<path fill-rule="evenodd" clip-rule="evenodd" fill="#F7941E" d="M156.974,80.88c-4.117-22.855-1.876-9.805-6.05-32.977
	c-4.589,0-0.47-4.54,0.934-6.653c0.92-1.385,1.054-3.574,2.137-5.015c1.508-0.876,2.381-2.458,3.528-1.384
	c0.797,0.745-0.787,4.49-1.545,7.172c-0.94,3.331-0.493,1.997,0.049,5.087c3.671,20.947,1.125,6.281,4.871,27.215
	c0.32,1.795,0.771,3.565,1.133,5.216c3.711,0.841,7.336,1.37,10.719,2.577c1.293,0.462,2.035,2.472,3.027,3.776
	c-1.555,0.29-3.143,0.935-4.656,0.79c-2.596-0.246-5.145-0.985-8.041-0.742c7.894,2.128,14.791,5.534,16.108,14.137
	c0.6,3.92-0.352,8.752-2.278,12.245c-4.361,7.909-15.218,9.642-22.661,4.337c-5.421-3.863-7.216-9.246-6.511-15.734
	c0.717-6.592,5.674-9.982,11.365-13.971c-6.822,0.643-12.452,5.864-13.203,12.555c-0.628,5.596-2.938,6.926-8.291,6.841
	c-19.991-0.321-39.99-0.128-59.986-0.128c-1.814,0-3.628,0-5.262,0c-5.186,10.918-10.533,14.455-19.53,13.174
	c-6.317-0.9-12.286-7.088-12.978-13.453c-0.82-7.564,2.684-14.635,9.363-17.088c11.959-4.394,19.218,1.385,23.669,13.555
	c1.066-8.381-6.449-16.451-14.601-16.927c-3.225-0.188-6.508,0.927-9.785,1.175c-1.528,0.116-3.105-0.42-4.661-0.66
	c0.941-1.335,1.585-3.28,2.871-3.91c12.429-6.092,27.893,1.58,31.924,15.676c0.269,0.939,0.448,1.904,0.72,3.076
	c1.406,0.116,2.707,0.314,4.006,0.316c17.498,0.021,34.994-0.053,52.49,0.076c3.202,0.022,4.488-0.865,5.334-4.182
	C143.256,88.917,149.048,83.829,156.974,80.88z M66.015,101.193c-1.564-6.161-6.097-9.355-11.443-8.725
	c-5.6,0.661-9.872,5.607-9.771,11.314c0.092,5.303,4.133,9.948,9.282,10.67c5.849,0.82,10.327-2.154,11.873-8.263
	c-3.232,0-6.381,0.228-9.464-0.123c-1.078-0.123-1.994-1.669-2.984-2.565c1.045-0.77,2.031-2.084,3.145-2.203
	C59.582,100.986,62.567,101.193,66.015,101.193z M159.13,93.484c-6.229,4.275-7.988,9.256-5.649,14.471
	c2.136,4.761,7.059,7.363,12.231,6.467c5.023-0.869,9.158-5.889,9.066-11.006c-0.096-5.44-3.675-9.324-10.314-10.735
	c0.48,3.239,1.176,6.298,1.273,9.375c0.041,1.277-1.195,2.595-1.851,3.895c-1.005-1.081-2.509-2.005-2.911-3.276
	C160.099,99.894,159.783,96.937,159.13,93.484z"/>
<g>
	<path fill="#414042" d="M76.405,83.23c-0.465,1.46-0.525,2.829-0.174,4.11c0.236,0.935,0.555,1.78,0.963,2.539
		s0.787,1.548,1.135,2.361c0.35,0.818,0.645,1.692,0.877,2.624c0.107,0.425,0.15,0.863,0.16,1.311l8.031,2.718l1.254-19.075
		c3.27-2.211,4.143-4.954,2.623-8.222h-0.176l0.826-4.933c-3.258,1.298-7.828,0.258-16.156-2.317l2.91,15.124
		C77.629,80.521,76.872,81.773,76.405,83.23z"/>
	<path fill="#414042" d="M103.019,99.146c-6.613-3.789-22.641-5.154-22.641-5.154s-3.951-0.051-3.75,3.444
		c0.199,3.497,11.424,9.274,12.357,13.39c0.361,1.594,7.436,5.734,10.43,3.133c1.945-1.691,0.951-2.77,0.014-3.318
		c1.154,0.42,3.127,0.826,4.926-0.367c2.738-1.815-0.441-3.94-0.441-3.94s4.664,1.681,6.416,0.083
		C112.08,104.82,109.632,102.935,103.019,99.146z M98.341,113.277c-0.014,1.012-0.309,0.199-2.646-0.035
		c-2.34-0.232-0.373-1.32,0.025-2.125c0.404-0.805,1.537-0.385,2.639,0.617C98.359,111.734,98.353,112.265,98.341,113.277z
		 M103.15,109.289c-0.414,0.603-1.223,0.592-3.035-0.038c-1.816-0.632-0.582-2.134,0.74-2.624c1.324-0.489,2.225,0.131,2.719,1.149
		C103.574,107.776,103.564,108.687,103.15,109.289z M108.255,105.81c-1.021,0.797-1.314-0.016-2.818-1.102
		c-1.506-1.084-0.287-1.367,0.832-1.758c1.117-0.391,3.225,1.256,3.225,1.256S109.281,105.015,108.255,105.81z"/>
</g>
<path fill="#FBB040" d="M149.479,47.653l-6.891,10.528c0,0,1.136,4.48,2.063,5.478s3.342,0,4.827-0.997s4.078-14.055,4.078-14.055
	L149.479,47.653z"/>
<path fill="#414042" d="M158.837,32.747c0.866-0.316,1.658-0.233,1.785-0.789c0.129-0.555-0.227-1.586-0.47-2.045
	c-0.317-0.866-1.146-1.248-2.484-1.15c-0.58,0.019-1.3,0.363-2.154,1.028c-0.852,0.665-1.997,2.301-3.434,4.907
	c-3.474-3.271-6.368-5.995-8.677-8.167c-2.31-2.173-4.373-3.492-6.193-3.963c0.259-0.998,0.227-1.709-0.108-2.138
	c-0.334-0.426-0.733-0.692-1.202-0.793c-0.876-0.032-1.531,0.427-1.969,1.37c-2.44-1.729-5.049-2.714-7.823-2.952
	c-1.052-0.089-3.973-0.386-4.913-0.272c1.185,1.232,0.839,1.024,1.446,1.715c0.929,1.446,1.463,2.073,2.184,4.719
	c0.915,3.362,1.417,4.826,1.545,7.557c2.161,0.11,4.37,0.762,7.644,2.031c3.271,1.271,7.324,3.727,12.149,7.363
	c-0.848,1.227-1.037,1.776-1.02,2.694c0.021,1.101,0.242,1.923,0.575,2.771c0.6,0.565,1.033,1.046,1.69,1.362
	c1.6,0.77,1.396,0.688,1.891-0.067c1.062-1.489,1.996-2.688,2.75-2.831c0.751-0.138,1.454-0.07,2.103,0.2
	c0.594,0.333,1.13,0.721,1.609,1.174c0.48,0.452,1.013,0.843,1.605,1.175c1.19,0.781,2.417,0.917,3.682,0.411
	c0.635-0.189,1.266-0.53,1.893-1.017c0.625-0.483,1.066-1.342,1.318-2.574c0.261-1.111,0.252-2.306-0.02-3.583
	c-0.269-1.271-1.256-2.028-2.952-2.269c-0.574,0.251-1.096,0.327-1.567,0.224c0.348-0.125,0.636-0.192,0.87-0.203
	c0.233-0.006,0.466-0.014,0.697-0.021c0.982-0.201,1.784-0.634,2.406-1.295c0.96-1.02,1.191-2.104,0.688-3.254
	c-0.309-0.63-0.878-1.167-1.708-1.607C161.844,32.017,160.567,32.111,158.837,32.747z M162.821,40.904
	c0.601,0.566,0.768,1.349,0.509,2.347c-0.044,0.524-0.187,1.039-0.436,1.542c-0.246,0.503-0.569,0.848-0.976,1.034
	c-0.401,0.188-0.791,0.244-1.171,0.167c-0.381-0.074-0.691-0.229-0.931-0.453c-0.479-0.451-0.735-1.142-0.762-2.075
	c0.043-0.409,0.149-0.76,0.316-1.058c0.165-0.292,0.332-0.589,0.496-0.887c0.51-0.542,0.908-0.842,1.196-0.913
	C161.873,40.468,162.46,40.566,162.821,40.904z M163.688,34.938c-0.087,0.935-0.506,1.502-1.258,1.696
	c-0.289,0.069-0.612,0.019-0.965-0.144c-0.355-0.165-0.597-0.418-0.724-0.765c-0.188-0.399-0.229-0.807-0.124-1.22
	c0.103-0.408,0.239-0.763,0.404-1.059c0.562-0.598,1.114-0.704,1.651-0.314C163.327,33.521,163.663,34.124,163.688,34.938z"/>
<g>
	<path fill="#414042" d="M117.438,4.318c-1.093-2.331-2.313-3.719-3.663-4.16c-0.571-0.205-0.998-0.211-1.28-0.016
		c-0.288,0.198-0.397,0.536-0.333,1.014c-0.061,0.421,0.1,0.892,0.48,1.415c0.378,0.523,0.78,1.262,1.206,2.217
		c0.239,0.419,0.437,0.854,0.588,1.301c0.152,0.451,0.203,1.032,0.146,1.752c-0.057,0.72-0.256,1.537-0.592,2.453
		c-0.341,0.918-0.959,1.975-1.848,3.179c-0.571-0.206-1.142-0.338-1.711-0.395c-0.571-0.054-1.214-0.113-1.936-0.169
		c0.447-0.75,0.712-1.516,0.797-2.296c0.086-0.78,0.037-1.439-0.146-1.976c-0.34-1.587-1.346-2.345-3.025-2.275
		c-0.78,0.065-1.463,0.547-2.061,1.449c-0.594,0.902-0.808,2.778-0.641,5.622c-2.754,0.436-5.628,1.113-8.62,2.027
		c-2.991,0.917-6.016,1.892-9.065,2.927c-3.229,1.097-6.397,2.226-9.509,3.379c-3.111,1.159-5.92,2.46-8.427,3.913
		c-1.515-2.387-2.81-3.773-3.893-4.157c-1.08-0.385-1.948-0.363-2.605,0.06c-1.374,0.968-1.71,2.182-1.014,3.647
		c0.336,0.688,0.742,1.299,1.226,1.836c0.483,0.536,1.201,1.041,2.165,1.517c-0.717,0.542-1.461,1.298-2.234,2.257
		c-3.029-0.971-4.928-1.978-5.682-3.023c-0.753-1.043-1.224-1.987-1.407-2.824c-0.247-1.016-0.378-1.847-0.398-2.491
		c-0.019-0.645-0.136-1.131-0.345-1.461c-0.753-0.744-1.426-0.664-2.021,0.236c-0.623,1.112-0.748,2.956-0.373,5.53
		c0.126,1.26,0.635,2.688,1.532,4.285c0.889,1.6,2.854,3.335,5.891,5.204c-0.23,1.381-0.305,2.783-0.221,4.204
		c0.081,1.424,0.413,2.989,0.991,4.692l0.229,0.672c1.127,3.323,2.502,6.109,4.117,8.361c1.613,2.256,3.355,4.064,5.22,5.433
		c2.376,1.708,4.891,2.818,7.529,3.388c1.603,0.123,11.958,0.846,17.571-0.5c0.974-0.244,1.911-0.523,2.826-0.827
		c1.485-0.452,3.009-0.926,4.584-1.492c0.229-0.089,0.461-0.207,0.689-0.284c0.149-0.051,0.313-0.107,0.467-0.159
		c3.663-1.41,7.61-3.406,12.027-6.979c2.004-1.621,3.631-2.942,4.947-4.017c0.889-1.04,1.724-2.147,2.479-3.342
		c0.846-1.337,1.458-2.771,1.842-4.302c0.734-2.25,1.103-4.778,1.103-7.582c-0.001-2.799-0.579-5.905-1.737-9.317l-0.183-0.537
		c-1.341-3.647-3.197-6.319-5.572-8.015c1.147-3.094,1.583-5.494,1.305-7.199C118.577,6.783,118.105,5.395,117.438,4.318z
		 M93.539,30.747c-0.064-0.778-0.127-1.706-0.197-2.786c0.237-0.479,0.553-0.509,0.946-0.095c0.391,0.419,0.71,0.987,0.953,1.703
		c0.243,0.719,0.359,1.432,0.349,2.133c-0.013,0.705-0.198,1.119-0.556,1.24c-0.448,0.152-0.804,0-1.06-0.467
		C93.717,32.014,93.57,31.439,93.539,30.747z M83.578,34.13c-0.063-0.779-0.126-1.706-0.195-2.786
		c0.235-0.479,0.552-0.509,0.945-0.095c0.39,0.42,0.71,0.987,0.952,1.703c0.244,0.72,0.359,1.432,0.351,2.133
		c-0.014,0.705-0.199,1.119-0.558,1.24c-0.448,0.152-0.802-0.001-1.059-0.468C83.755,35.397,83.61,34.821,83.578,34.13z
		 M65.962,26.901c-0.182,0.062-0.389,0.183-0.629,0.362c-0.963-0.471-1.592-0.934-1.895-1.38c-0.303-0.447-0.455-0.823-0.455-1.124
		c0.119-0.238,0.434-0.344,0.942-0.32c0.511,0.03,1.38,0.683,2.618,1.965C66.335,26.675,66.143,26.84,65.962,26.901z M117.61,43.064
		c0.126,0.808,0.041,1.513-0.257,2.113c-0.119,0.244-0.318,0.461-0.602,0.656c-0.285,0.197-0.77,0.461-1.458,0.794
		c-0.457-1.346-0.863-2.385-1.21-3.118c-0.345-0.729-0.628-1.261-0.838-1.593c-0.212-0.325-0.416-0.482-0.609-0.467
		c-0.199,0.017-0.338,0.039-0.43,0.07c-0.537,0.183-0.79,0.47-0.758,0.858c-0.118,0.242-0.068,0.675,0.145,1.301
		c0.214,0.629,0.639,1.884,1.279,3.77l-1.077,0.366c-0.548-1.314-0.998-2.338-1.344-3.072c-0.35-0.729-0.632-1.26-0.843-1.591
		c-0.212-0.325-0.391-0.491-0.541-0.49s-0.271,0.017-0.358,0.046c-0.628,0.213-0.972,0.532-1.029,0.95
		c-0.03,0.212,0.063,0.63,0.275,1.256c0.214,0.63,0.641,1.884,1.28,3.77l-1.212,0.412c-0.458-1.346-0.858-2.386-1.206-3.119
		c-0.35-0.729-0.632-1.26-0.841-1.592c-0.212-0.324-0.391-0.49-0.542-0.489c-0.15,0-0.271,0.016-0.359,0.046
		c-0.631,0.214-0.928,0.517-0.895,0.904c-0.119,0.243-0.071,0.676,0.142,1.302c0.214,0.629,0.656,1.931,1.326,3.903l-1.076,0.366
		c-0.579-1.402-1.045-2.472-1.392-3.205c-0.346-0.73-0.627-1.261-0.838-1.593c-0.212-0.325-0.394-0.49-0.545-0.489
		c-0.146,0-0.271,0.017-0.357,0.046c-0.628,0.213-0.926,0.516-0.895,0.904c-0.027,0.211,0.063,0.63,0.275,1.256
		c0.214,0.63,0.655,1.931,1.325,3.903l-1.344,0.456c-0.486-1.433-0.886-2.525-1.188-3.273c-0.304-0.745-0.581-1.277-0.839-1.593
		c-0.256-0.31-0.461-0.467-0.611-0.466s-0.271,0.017-0.358,0.046c-0.628,0.213-0.928,0.517-0.895,0.904
		c-0.121,0.243-0.071,0.676,0.142,1.302c0.214,0.629,0.655,1.931,1.324,3.903l-1.211,0.412c-0.487-1.433-0.904-2.519-1.252-3.252
		c-0.349-0.729-0.632-1.26-0.841-1.592c-0.213-0.324-0.392-0.49-0.542-0.49s-0.271,0.017-0.359,0.047
		c-0.631,0.214-0.928,0.517-0.894,0.904c-0.03,0.211,0.063,0.63,0.276,1.256c0.213,0.63,0.655,1.931,1.325,3.903l-1.212,0.411
		c-0.486-1.433-0.908-2.518-1.255-3.25c-0.349-0.729-0.649-1.254-0.907-1.57c-0.257-0.309-0.46-0.467-0.61-0.466
		c-0.147,0-0.272,0.017-0.358,0.046c-0.537,0.183-0.838,0.486-0.896,0.905c-0.117,0.242-0.067,0.675,0.146,1.301
		c0.213,0.63,0.655,1.932,1.325,3.903c-0.213-0.025-0.634,0.066-1.258,0.278c-0.456-1.345-0.863-2.384-1.209-3.118
		c-0.349-0.728-0.633-1.259-0.843-1.591c-0.211-0.325-0.367-0.499-0.472-0.514c-0.106-0.015-0.205-0.006-0.293,0.024
		c-0.719,0.244-1.063,0.563-1.028,0.95c-0.031,0.212,0.063,0.63,0.275,1.256c0.214,0.63,0.64,1.884,1.28,3.77l-1.213,0.412
		c-0.457-1.345-0.858-2.386-1.205-3.118c-0.35-0.729-0.653-1.253-0.911-1.568c-0.256-0.31-0.456-0.468-0.607-0.468
		c-0.15,0-0.271,0.017-0.359,0.046c-0.539,0.184-0.793,0.471-0.758,0.858c-0.029,0.212,0.063,0.63,0.275,1.257
		c0.214,0.629,0.64,1.884,1.279,3.77l-1.482,0.503c-0.456-1.346-0.835-2.393-1.139-3.141c-0.306-0.744-0.563-1.284-0.776-1.614
		c-0.209-0.326-0.391-0.49-0.541-0.49c-0.151,0-0.271,0.017-0.358,0.046c-0.719,0.244-1.06,0.562-1.03,0.95
		c-0.025,0.211,0.064,0.63,0.277,1.256c0.214,0.629,0.624,1.84,1.233,3.634c-0.418-0.055-0.701-0.085-0.853-0.085
		c-0.149,0-0.329-0.012-0.538-0.043c-0.605-0.293-1.078-0.809-1.425-1.542c-0.349-0.731-0.781-1.561-1.296-2.486
		c-0.366-1.077-0.717-2.184-1.055-3.321c-0.337-1.136-0.443-2.124-0.33-2.964c0.235-0.781,0.519-1.278,0.846-1.489
		c0.427,1.256,0.784,2.236,1.071,2.938c0.292,0.703,0.554,1.188,0.797,1.456c0.241,0.268,0.415,0.409,0.518,0.423
		c0.108,0.017,0.247-0.006,0.429-0.068c0.536-0.182,0.835-0.483,0.895-0.906c0.117-0.24,0.072-0.672-0.142-1.302
		c-0.213-0.626-0.625-1.838-1.234-3.635l0.808-0.274l0.401-0.136c0.915,2.693,1.561,4.227,1.938,4.595
		c0.376,0.375,0.653,0.532,0.832,0.471c0.719-0.244,1.06-0.559,1.028-0.952c0.026-0.208-0.062-0.626-0.275-1.256
		c-0.213-0.626-0.624-1.839-1.233-3.635l1.211-0.412c1.002,2.664,1.693,4.182,2.071,4.55c0.375,0.375,0.7,0.516,0.969,0.424
		c0.537-0.182,0.791-0.468,0.76-0.86c0.026-0.209-0.019-0.641-0.145-1.3c-0.121-0.658-0.489-1.885-1.1-3.681l1.212-0.412
		c0.915,2.693,1.536,4.235,1.871,4.618c0.331,0.391,0.63,0.54,0.9,0.448c0.715-0.243,1.06-0.56,1.028-0.952
		c0.027-0.209-0.063-0.626-0.275-1.256c-0.214-0.626-0.625-1.839-1.234-3.635l1.208-0.41c0.914,2.692,1.583,4.218,2.005,4.572
		c0.423,0.359,0.77,0.492,1.037,0.401c0.54-0.183,0.793-0.469,0.758-0.86c0.03-0.209-0.062-0.625-0.275-1.255
		c-0.213-0.627-0.624-1.839-1.235-3.635l1.482-0.504c0.915,2.693,1.535,4.235,1.866,4.62c0.331,0.39,0.635,0.538,0.904,0.446
		c0.537-0.183,0.882-0.499,1.028-0.952c0.027-0.209-0.064-0.625-0.279-1.255c-0.212-0.626-0.624-1.839-1.234-3.635l1.213-0.412
		c0.914,2.693,1.562,4.226,1.935,4.596c0.376,0.375,0.657,0.53,0.836,0.469c0.72-0.244,1.061-0.559,1.029-0.952
		c0.027-0.208-0.063-0.626-0.276-1.255c-0.213-0.626-0.624-1.839-1.233-3.635l1.212-0.412c1.092,2.632,1.807,4.144,2.136,4.528
		c0.333,0.39,0.634,0.538,0.901,0.447c0.539-0.183,0.837-0.483,0.894-0.906c0.026-0.208-0.04-0.633-0.206-1.28
		c-0.169-0.641-0.56-1.861-1.169-3.657l1.211-0.412c0.915,2.693,1.559,4.227,1.937,4.596c0.376,0.375,0.653,0.532,0.835,0.47
		c0.716-0.243,1.06-0.56,1.028-0.952c0.027-0.208-0.065-0.625-0.279-1.254c-0.212-0.626-0.624-1.839-1.234-3.635l2.425-0.823
		c0.61,1.796,1.021,3.008,1.234,3.635c0.214,0.63,0.394,1.016,0.546,1.164c0.393,0.27,0.855,0.313,1.396,0.128
		c0.266-0.09,0.438-0.399,0.507-0.925c0.071-0.521-0.302-2.147-1.128-4.87c0.48-0.061,0.945-0.095,1.396-0.099
		c0.447-0.001,0.854,0.235,1.215,0.715c0.603,0.598,1.115,1.448,1.544,2.553c0.424,1.107,0.823,2.198,1.188,3.275
		C117.302,41.343,117.486,42.257,117.61,43.064z M107.16,10.959c0.019,0.497-0.211,1.224-0.684,2.185
		c-0.54-0.116-1.079-0.083-1.619,0.1c0.411-1.74,0.764-2.76,1.061-3.064c0.298-0.298,0.568-0.391,0.811-0.275
		C106.999,10.115,107.143,10.467,107.16,10.959z"/>
	<path fill="#FFFFFF" d="M61.973,44.769c0.724,0.956,1.545,1.528,2.46,1.716c0.912,0.193,1.817,0.209,2.718,0.054
		s1.706-0.429,2.424-0.823c0.715-0.394,1.282-0.71,1.7-0.953c0.39-0.331,0.874-0.821,1.455-1.471c0.58-0.646,1.054-1.383,1.425-2.21
		c0.371-0.824,0.548-1.708,0.523-2.653c-0.019-0.945-0.395-1.894-1.115-2.851c-0.694-0.863-1.5-1.388-2.413-1.581
		c-0.915-0.188-1.816-0.182-2.699,0.015c-0.884,0.203-1.705,0.506-2.466,0.915c-0.763,0.407-1.308,0.721-1.635,0.93
		c-0.388,0.333-0.851,0.813-1.387,1.446c-0.534,0.631-0.995,1.34-1.381,2.12c-0.386,0.783-0.592,1.652-0.615,2.611
		C60.943,42.995,61.276,43.906,61.973,44.769z"/>
	<path d="M66.25,37.913c0.864-0.692,1.8-0.886,2.805-0.578c1.006,0.312,1.797,0.868,2.372,1.673
		c0.628,0.686,0.974,1.546,1.022,2.581c0.054,1.032-0.357,1.897-1.221,2.589c-0.863,0.696-1.778,0.88-2.739,0.555
		c-0.961-0.323-1.728-0.888-2.299-1.695c-0.666-0.774-1.015-1.657-1.05-2.647C65.102,39.404,65.473,38.577,66.25,37.913z"/>
	<path fill="#FFFFFF" d="M69.869,42.387c0.656-0.722,0.649-1.471-0.013-2.247c-0.632-0.686-1.381-0.83-2.248-0.436
		c-0.062,0.121-0.113,0.187-0.157,0.202c-0.047,0.016-0.082,0.13-0.109,0.338c-0.152-0.449-0.424-0.505-0.812-0.174
		c-0.179,0.061-0.284,0.196-0.311,0.405c-0.029,0.213,0.032,0.392,0.183,0.538c0.301,0.299,0.613,0.344,0.944,0.129
		c-0.03,0.214-0.005,0.354,0.067,0.429c0.078,0.073,0.131,0.155,0.161,0.245C68.329,42.562,69.094,42.752,69.869,42.387z"/>
	<path d="M68.238,39.789c0.358-0.122,0.645,0.133,0.856,0.759c0.245,0.72,0.188,1.138-0.17,1.26
		c-0.453,0.154-0.797-0.128-1.041-0.848C67.671,40.334,67.786,39.943,68.238,39.789z"/>
	<path fill="#FFFFFF" d="M106.267,24.473c0.009,1.198,0.314,2.172,0.917,2.918c0.604,0.748,1.305,1.334,2.101,1.762
		c0.795,0.431,1.599,0.734,2.411,0.908c0.809,0.177,1.466,0.28,1.98,0.305c0.476-0.062,1.146-0.165,1.997-0.304
		c0.854-0.139,1.682-0.42,2.491-0.845c0.805-0.424,1.513-0.989,2.123-1.699c0.611-0.707,0.914-1.661,0.906-2.859
		c0.022-1.107-0.267-2.033-0.871-2.781c-0.603-0.746-1.296-1.311-2.075-1.698c-0.782-0.384-1.6-0.658-2.455-0.817
		c-0.857-0.159-1.492-0.267-1.91-0.327c-0.48,0.065-1.147,0.164-1.999,0.304c-0.853,0.139-1.693,0.4-2.515,0.777
		c-0.822,0.381-1.538,0.925-2.149,1.632C106.61,22.459,106.291,23.365,106.267,24.473z"/>
	<path d="M113.358,29.872c-1.111-0.022-1.916-0.474-2.411-1.356c-0.502-0.88-0.801-1.756-0.892-2.625
		c0.051-1.017,0.387-1.956,0.995-2.816c0.607-0.856,1.465-1.272,2.576-1.25c1.108,0.024,1.905,0.454,2.389,1.291
		c0.483,0.837,0.788,1.735,0.914,2.692c-0.053,1.02-0.387,1.958-0.994,2.813C115.326,29.48,114.466,29.898,113.358,29.872z"/>
	<path fill="#FFFFFF" d="M112.122,25.787c-0.057,1.021,0.398,1.618,1.357,1.792c1.048-0.152,1.494-0.756,1.338-1.805
		c0.058-0.119,0.029-0.358-0.094-0.72c0.39-0.03,0.612-0.257,0.669-0.677c-0.06-0.177-0.12-0.356-0.183-0.538
		c-0.061-0.179-0.182-0.238-0.36-0.177c-0.48,0.064-0.704,0.29-0.67,0.678c-0.24-0.118-0.385-0.171-0.429-0.156
		c-0.047,0.016-0.127-0.005-0.245-0.065C112.638,24.213,112.175,24.771,112.122,25.787z"/>
	<path d="M113.742,26.589c-0.537,0.182-0.929-0.084-1.173-0.803c-0.213-0.626-0.05-1.033,0.487-1.216
		c0.54-0.183,0.918,0.041,1.13,0.667C114.43,25.957,114.282,26.406,113.742,26.589z"/>
</g>
<path fill="#414042" d="M137.859,56.079c-6.915,1.158-12.376,1.505-16.377,1.046c-3.999-0.455-5.229-0.626-7.452-1.697
	c-1.338,1.634-2.397,2.369-4.749,3.962c-2.352,1.592-5.297,3.37-12.143,4.682c-7.512,1.306-11.39,1.244-15.062,1.111
	c-5.192-0.189-8.799-1.671-8.573-1.547c2.086,1.59,16.527,4.631,20.951,5.184c3.052,0.383,17.745,1.416,21.04,0.935
	c0.01,1.333,0.439,2.161,1.301,2.481c0.515,0.138,1.047,0.078,1.59-0.176c0.552-0.252,0.945-0.941,1.19-2.064
	c2.042,0.455,4.753,0.168,8.126-0.861c3.375-1.03,7.627-2.244,12.754-3.646c0.106,3.314,0.408,5.49,0.902,6.539
	c0.5,1.051,1.035,1.73,1.596,2.041c0.598,0.4,1.161,0.617,1.693,0.652c0.54,0.038,1.002-0.099,1.389-0.406
	c0.478-0.328,0.793-0.8,0.947-1.42c0.156-0.617-0.114-1.304-0.815-2.054c1.395,1.504,2.607,2.228,3.639,2.163
	c1.03-0.059,1.875-0.281,2.525-0.668c1.056-0.968,1.363-2.203,0.927-3.701c-0.233-0.795-0.797-1.58-1.694-2.374
	c-0.505-0.421-0.983-0.759-1.438-1.009c0.54,0.223,1.019,0.562,1.438,1.009c0.86,0.327,1.619,0.393,2.281,0.199
	c0.659-0.191,1.23-0.524,1.708-1.003c0.486-0.471,0.897-1.023,1.24-1.646c0.343-0.625,0.568-1.241,0.679-1.844
	c0.373-1.348,0.37-2.423-0.006-3.221c-0.378-0.798-0.829-1.455-1.36-1.968c-0.973-1.05-2.273-1.579-3.9-1.582
	c-0.751,0.028-1.48,0.144-2.186,0.35c-0.704,0.204-1.445,0.274-2.229,0.219c-0.756,0.028-2.394-0.266-2.67-1.072
	c-0.119-0.348,1.506-2.421,1.484-2.65c-0.687-1.712-0.955-1.728-1.651-2.145c-0.695-0.419-1.346-0.554-2.611-0.554
	c-0.872,0-1.873,0.698-3.088,2.162C138.51,52.404,137.316,52.899,137.859,56.079z M145.419,71.277
	c0.243,0.166,0.302,0.365,0.173,0.594c0.18,0.617,0.019,1.043-0.484,1.285c-0.39,0.305-0.778,0.275-1.17-0.09
	c-0.453-0.247-0.627-0.678-0.52-1.281c0.039-0.201,0.172-0.406,0.398-0.617c0.225-0.211,0.495-0.261,0.809-0.161
	C144.916,71.018,145.181,71.107,145.419,71.277z M150.684,68.451c0.437,0.02,0.765,0.088,0.994,0.213
	c0.671,0.664,0.813,1.48,0.428,2.456c-0.438,0.795-1.079,1.218-1.921,1.272c-0.728,0.119-1.224-0.267-1.479-1.146
	c-0.015-0.377,0.034-0.792,0.135-1.256c0.105-0.46,0.354-0.842,0.738-1.146C149.883,68.566,150.25,68.435,150.684,68.451z
	 M154.76,58.603c0.4,0.073,0.768,0.347,1.096,0.826c0.311,0.389,0.451,0.872,0.424,1.453c-0.019,0.579-0.144,1.14-0.368,1.682
	c-0.218,1.21-0.772,1.942-1.649,2.199c-0.529,0.151-1.158-0.044-1.893-0.595c-0.274-0.3-0.521-0.801-0.726-1.505
	c-0.011-0.38-0.034-0.782-0.063-1.204c-0.026-0.417,0.043-0.842,0.205-1.273c0.496-0.906,1.112-1.422,1.84-1.538
	C153.977,58.545,154.358,58.531,154.76,58.603z"/>
<path fill="#414042" d="M134.524,94.33c1.303-0.025,2.146-0.258,2.537-0.695c0.386-0.437,0.588-0.893,0.611-1.374
	c0.362-1.145,0.083-1.921-0.834-2.329c-0.501-0.135-1.125-0.129-1.868,0.022c-0.745,0.151-1.823,0.255-3.242,0.304
	c-1.302,0.028-3.054,0.059-5.246,0.088c-2.198,0.031-4.861,0.248-7.991,0.646l-2.64-18.21c1.092-1.652,1.54-3.23,1.354-4.737
	c-0.191-1.509-0.813-2.513-1.864-3.016l1.073-5.052c-4.206,2.65-7.077,3.01-15.317,5.061l4.919,11.176
	c-0.683,1.33-1.095,2.664-1.239,4.002c-0.144,1.342,0.024,2.614,0.513,3.823c0.299,0.893,0.751,1.663,1.362,2.313
	c0.608,0.65,1.193,1.336,1.756,2.052c0.563,0.721,1.054,1.512,1.468,2.38c0.414,0.869,0.611,1.839,0.593,2.912
	c-1.323,0.513-2.193,1.072-2.6,1.693c-0.411,0.619-0.661,1.295-0.749,2.026c0.256,1.258,0.956,2.368,2.105,3.319
	c1.237,0.818,2.603,1.078,4.085,0.776c0.939-0.073,1.879-0.265,2.828-0.576c0.948-0.312,1.96-0.458,3.039-0.44
	c2.032,0.061,4.437,0.763,7.209,2.102c1.33,0.683,2.516,1.391,3.563,2.131c1.042,0.742,2.077,1.301,3.109,1.688
	c1.604,0.864,3.112,0.678,4.524-0.564c0.298-0.297,0.584-0.656,0.857-1.068c0.271-0.41,0.327-0.871,0.166-1.373
	c-0.165-0.504-0.66-1.055-1.5-1.658c-0.834-0.602-2.215-1.246-4.141-1.924c2.381,0.585,4.023,0.609,4.925,0.066
	c0.897-0.539,1.393-1.174,1.485-1.908c0.183-0.867-0.064-1.621-0.727-2.262C137.98,95.083,136.608,94.621,134.524,94.33z
	 M134.587,91.998c0.105-0.617,0.447-0.984,1.023-1.102c0.252,0.066,0.48,0.17,0.688,0.305c0.202,0.139,0.443,0.3,0.723,0.479
	c0.139,0.686,0,1.19-0.409,1.512c-0.683,0.139-1.234,0.074-1.649-0.199C134.345,92.88,134.218,92.547,134.587,91.998z
	 M133.833,102.773c0.364-0.254,0.72-0.413,1.063-0.483c0.912-0.186,1.554,0.04,1.926,0.679c0.251,0.662,0.184,1.211-0.202,1.648
	c-0.228,0.643-0.788,0.814-1.681,0.521c-1.237-0.223-1.75-0.717-1.55-1.471C133.32,103.324,133.467,103.027,133.833,102.773z
	 M138.382,98.363c-0.571,0.715-1.23,0.969-1.99,0.764c-0.893-0.292-1.502-0.645-1.822-1.057c-0.163-0.797-0.04-1.357,0.373-1.684
	c0.525-0.345,1.093-0.461,1.716-0.35c0.843,0.07,1.385,0.376,1.612,0.924C138.616,97.488,138.653,97.953,138.382,98.363z"/>
<g>
	<g>
		<path fill="#414042" d="M30.594,104.746c-8.172-0.751-16.326-0.881-24.489,0.046c-3.166,0.359-3.201,5.363,0,5
			c8.163-0.927,16.317-0.797,24.489-0.046C33.806,110.041,33.777,105.039,30.594,104.746L30.594,104.746z"/>
	</g>
</g>
<g>
	<g>
		<path fill="#414042" d="M22.799,89.639c-6.719-1.468-13.547-2.046-20.394-2.555c-3.218-0.239-3.195,4.763,0,5
			c6.404,0.477,12.779,1.003,19.065,2.377C24.612,95.148,25.948,90.328,22.799,89.639L22.799,89.639z"/>
	</g>
</g>
<g>
	<g>
		<path fill="#414042" d="M31.505,96.208c-6.249-0.018-12.495-0.228-18.743-0.246c-3.225-0.01-3.224,4.99,0,5
			c6.249,0.019,12.495,0.229,18.743,0.246C34.73,101.217,34.729,96.217,31.505,96.208L31.505,96.208z"/>
	</g>
</g>
</svg>
