<?xml version="1.0" encoding="utf-8"?>
<!-- Generator: Adobe Illustrator 16.0.3, SVG Export Plug-In . SVG Version: 6.00 Build 0)  -->
<!DOCTYPE svg PUBLIC "-//W3C//DTD SVG 1.1//EN" "http://www.w3.org/Graphics/SVG/1.1/DTD/svg11.dtd">
<svg version="1.1" id="Layer_1" xmlns="http://www.w3.org/2000/svg" xmlns:xlink="http://www.w3.org/1999/xlink" x="0px" y="0px"
	 width="184.045px" height="132.124px" viewBox="0 0 184.045 132.124" enable-background="new 0 0 184.045 132.124"
	 xml:space="preserve">
<path fill="#414042" d="M178.861,64.624c-0.125-1.143-0.791-2.029-2.002-2.667c-1.207-0.634-3.648-0.188-7.336,1.333
	c1.018-1.016,1.906-2.38,2.67-4.096c0.76-1.717,1.08-3.334,0.951-4.859c0-1.395-0.381-2.506-1.143-3.334
	c-0.764-0.826-1.648-1.303-2.668-1.432c-1.27,0-2.541,0.641-3.813,1.908c-1.268,1.271-2.539,4.129-3.809,8.574
	c0.381-3.432,0.414-6.161,0.094-8.192c-0.316-2.031-0.824-3.587-1.523-4.67c-0.697-1.077-1.523-1.745-2.479-2.001
	c-0.953-0.252-1.936-0.314-2.953-0.188c-0.887,0.126-1.713,0.506-2.477,1.142c-0.762,0.636-1.238,1.747-1.428,3.334
	c-0.191,1.589-0.063,3.877,0.379,6.859c0.447,2.987,1.367,6.893,2.764,11.718c-1.906-0.38-4.064-0.695-6.477-0.951
	c-2.412-0.254-4.859-0.063-7.338,0.571c-2.477,0.638-4.92,1.842-7.334,3.62s-4.574,4.448-6.48,8.002
	c1.398,3.432,2.381,7.146,2.955,11.148c0.57,4.001,0.922,8.286,1.047,12.86c1.904-4.574,3.559-8.384,4.953-11.434
	c1.402-3.05,2.639-5.492,3.717-7.335c1.08-1.84,2.064-3.24,2.955-4.191c0.889-0.954,1.777-1.62,2.666-2
	c1.781-0.766,3.494-0.982,5.143-0.667c1.654,0.317,3.18,0.667,4.574,1.047c1.398,0.38,2.668,0.638,3.811,0.762
	c1.145,0.13,2.605-0.124,4.383-0.762c1.781-0.634,3.781-1.587,6.004-2.858c2.223-1.27,4.096-2.603,5.621-4.001
	c1.777-1.398,3.018-2.698,3.713-3.905C178.703,66.753,178.99,65.642,178.861,64.624z M158.092,52.619
	c-0.127,0.512-0.57,0.827-1.334,0.954c-1.016,0.509-1.906,0.379-2.668-0.381c-0.504-0.382-0.855-0.92-1.047-1.619
	c-0.191-0.695-0.158-1.363,0.096-2.004c0.256-0.631,0.73-1.074,1.428-1.333c0.699-0.253,1.367-0.38,2.002-0.38
	c0.762,0,1.396,0.639,1.904,1.904C158.602,50.779,158.473,51.733,158.092,52.619z M166.855,54.718
	c-0.252-1.398,0.129-2.289,1.145-2.67c0.891-0.379,1.715-0.188,2.477,0.571c0.51,0.383,0.762,1.081,0.762,2.099
	c-0.506,1.019-1.076,1.587-1.715,1.714C168.256,56.432,167.365,55.86,166.855,54.718z M176.002,65.769
	c-0.123,0.38-0.445,0.794-0.953,1.238c-0.504,0.447-0.887,0.667-1.143,0.667c-0.506,0-0.887-0.22-1.143-0.667
	c-0.254-0.444-0.314-0.858-0.191-1.238c0.381-0.765,1.143-1.145,2.287-1.145c0.256,0,0.541,0.096,0.859,0.287
	C176.035,65.102,176.131,65.386,176.002,65.769z"/>
<g>
	
		<rect x="51.674" y="25.647" transform="matrix(0.9108 -0.4129 0.4129 0.9108 -6.9584 52.2279)" fill="#F7941E" width="131.392" height="33.135"/>
	<g>
		<path fill="#FFFFFF" d="M79.19,69.852c-2.028-0.113-3.857-0.729-5.484-1.846c-1.628-1.115-2.885-2.651-3.771-4.604
			c-0.885-1.953-1.211-3.91-0.978-5.87c0.233-1.959,0.975-3.741,2.226-5.342c1.251-1.6,2.899-2.864,4.945-3.791
			c1.879-0.852,3.707-1.28,5.482-1.286c1.775-0.004,3.426,0.402,4.951,1.221l-2.452,5.543c-1.882-0.968-3.634-1.084-5.256-0.35
			c-1.364,0.619-2.261,1.554-2.693,2.805c-0.432,1.251-0.314,2.613,0.354,4.087c0.669,1.474,1.616,2.461,2.842,2.96
			c1.226,0.5,2.52,0.44,3.884-0.179c1.622-0.734,2.688-2.128,3.201-4.183l5.785,1.809c-0.39,1.688-1.172,3.198-2.345,4.529
			c-1.175,1.332-2.7,2.422-4.58,3.275C83.256,69.558,81.219,69.965,79.19,69.852z"/>
		<path fill="#FFFFFF" d="M107.037,54.178l-7.352,3.333l0.23,3.962l-6.635,3.007l-0.313-23.182l6.41-2.907l17.23,15.513
			l-6.744,3.058L107.037,54.178z M103.111,50.294l-4.084-4.013l0.324,5.718L103.111,50.294z"/>
		<path fill="#FFFFFF" d="M123.746,44.804l-1.77,0.802l2.206,4.865l-6.522,2.958l-8.771-19.349l9.314-4.223
			c1.787-0.81,3.479-1.221,5.071-1.233c1.595-0.012,3.002,0.373,4.222,1.152s2.164,1.907,2.832,3.38
			c0.626,1.382,0.859,2.731,0.701,4.047s-0.69,2.544-1.593,3.688l6.769,4.128l-6.965,3.157L123.746,44.804z M122.329,34.768
			c-0.624-0.196-1.376-0.093-2.261,0.308l-2.377,1.078l2.055,4.533l2.378-1.078c0.884-0.401,1.458-0.9,1.722-1.497
			c0.262-0.597,0.23-1.254-0.096-1.973C123.425,35.42,122.949,34.964,122.329,34.768z"/>
		<path fill="#FFFFFF" d="M135.699,28.023l-5.668,2.569l-2.292-5.058l17.855-8.094l2.292,5.058l-5.666,2.569l6.479,14.29
			l-6.522,2.957L135.699,28.023z"/>
		<path fill="#FFFFFF" d="M169.906,23.812l2.23,4.92l-16.086,7.293l-8.771-19.349l15.727-7.129l2.23,4.92l-9.314,4.222l1.027,2.267
			l8.182-3.708l2.13,4.698l-8.181,3.71l1.152,2.542L169.906,23.812z"/>
	</g>
</g>
<path fill="#414042" d="M168.732,101.162c-0.506-2.349-1.078-4.349-1.713-6.001c-1.398-3.303-2.764-5.432-4.098-6.383
	c-1.336-0.954-2.697-1.303-4.098-1.05c-0.76,0.256-1.459,0.605-2.096,1.05c-0.635,0.444-1.109,1.143-1.43,2.093
	c-0.316,0.954-0.381,2.259-0.189,3.908c0.189,1.654,0.793,3.686,1.809,6.099c-0.885-0.889-1.713-1.587-2.475-2.099
	c-0.764-0.506-1.461-0.95-2.096-1.333c-2.16-1.013-3.779-1.238-4.859-0.667c-1.078,0.574-1.811,1.43-2.191,2.574
	c-0.383,1.524-0.191,3.081,0.57,4.667c0.764,1.59,1.973,2.952,3.621,4.097c-2.158-0.507-3.84-0.763-5.049-0.763
	c-1.207,0-2.096,0.13-2.668,0.383c-0.57,0.253-0.92,0.667-1.049,1.238c-0.125,0.57-0.125,1.176,0,1.809
	c0.129,1.145,0.605,2.318,1.43,3.525c0.826,1.209,2.191,2.571,4.096,4.096l-87.077-8.764l67.263,5.335
	c0.635-2.667,0.922-5.875,0.855-9.622c-0.063-3.747-0.252-7.557-0.572-11.434c-0.314-3.871-0.762-7.588-1.332-11.146
	c-0.572-3.554-1.174-6.479-1.811-8.764c-1.016-4.574-1.969-7.494-2.857-8.766c-0.887-1.267-1.84-1.97-2.859-2.097
	c-1.016,0-2.031,0.256-3.049,0.763c-2.791-3.937-4.699-6.192-5.717-6.766c-1.014-0.569-1.713-0.667-2.097-0.285
	c-0.381,0.51-0.381,1.401,0,2.668c0.384,1.271,1.655,3.747,3.813,7.433c-0.254,0.256-0.541,0.506-0.859,0.76
	c-0.314,0.258-0.666,0.573-1.045,0.956c-1.525-3.174-2.733-5.081-3.622-5.717c-0.887-0.636-1.525-0.765-1.906-0.383
	c-0.506,0.383-0.666,1.21-0.477,2.477c0.191,1.271,1.176,3.685,2.953,7.241c-0.506,0.383-1.143,1.08-1.904,2.096
	c-0.889-1.904-1.621-3.334-2.191-4.287c-0.572-0.951-1.051-1.618-1.43-2.001c-0.383-0.382-0.668-0.506-0.857-0.382
	c-0.191,0.129-0.35,0.32-0.477,0.573c-0.254,0.51-0.287,1.365-0.096,2.571c0.191,1.21,0.797,3.652,1.809,7.338
	c-0.379,0.38-0.729,0.76-1.047,1.142c-0.314,0.383-0.666,0.763-1.049,1.143c-1.266-3.3-2.219-5.43-2.857-6.384
	c-0.633-0.95-1.143-1.3-1.523-1.046c-0.381,0.256-0.572,1.145-0.572,2.667c0,1.524,0.508,4.321,1.523,8.386
	c-0.379,0.636-0.791,1.143-1.236,1.522s-0.859,0.763-1.238,1.146c-1.016-3.813-1.84-6.066-2.479-6.767
	c-0.633-0.697-1.143-0.537-1.523,0.476c-0.381,0.639-0.539,1.846-0.477,3.623c0.066,1.778,0.225,3.939,0.477,6.477
	c-0.252,0.13-0.443,0.284-0.572,0.476c-0.125,0.191-0.316,0.352-0.572,0.476c-0.252,0.13-0.506,0.259-0.762,0.383
	c-0.254,0.129-0.506,0.32-0.762,0.573c-0.506-3.173-0.982-5.59-1.43-7.241c-0.443-1.648-0.855-2.794-1.238-3.432
	c-0.381-0.634-0.729-0.822-1.047-0.569c-0.314,0.254-0.541,0.698-0.666,1.334c-0.254,1.398-0.254,3.111,0,5.143
	c0.256,2.034,0.443,4.321,0.57,6.859c-0.635,0.129-1.238,0.259-1.811,0.383c-0.572,0.129-1.109,0.19-1.619,0.19
	c-0.127-3.173-0.41-5.494-0.857-6.957c-0.445-1.457-0.857-2.157-1.238-2.093c-0.383,0.062-0.666,0.827-0.857,2.284
	c-0.191,1.463-0.158,3.525,0.096,6.192c-2.287-0.76-4.193-2.476-5.717-5.143c-1.779-2.921-3.303-6.924-4.574-12.005
	c-0.635-2.158-1.143-4.35-1.523-6.575c-0.383-2.22-0.762-4.479-1.145-6.763c-0.254-1.525-0.441-3.081-0.57-4.668
	c-0.125-1.587-0.254-3.145-0.381-4.67c-0.252-1.648-0.41-3.334-0.479-5.047c-0.061-1.716,0.096-3.337,0.479-4.859
	c0.889,0.637,1.713,1.236,2.477,1.81c0.762,0.571,1.525,1.047,2.287,1.427c1.525,1.019,2.477,1.559,2.857,1.623
	c0.381,0.062,0.447-0.223,0.189-0.858c-0.25-0.507-0.729-1.303-1.426-2.383c-0.699-1.077-2.383-3.077-5.051-6.001
	c0.256-0.253,0.475-0.54,0.666-0.857c0.189-0.316,0.414-0.667,0.668-1.05c2.922,2.543,5.049,4.259,6.383,5.146
	c1.334,0.892,2.318,1.334,2.951,1.334c0.639-0.127,0.734-0.92,0.287-2.381c-0.445-1.46-2.125-4.031-5.049-7.717
	c0.256-0.127,0.541-0.253,0.857-0.383c0.318-0.123,0.666-0.314,1.049-0.57c2.414,3.305,4.256,5.525,5.525,6.67
	c1.271,1.143,2.223,1.713,2.859,1.713c0.635,0.127,0.762-0.443,0.379-1.713c-0.379-1.271-1.777-4.004-4.191-8.195
	c0.889-0.253,2.16-0.506,3.813-0.762c1.904,2.925,3.494,5.209,4.762,6.858c1.271,1.654,2.287,2.858,3.047,3.621
	c0.764,0.763,1.336,1.176,1.717,1.237c0.379,0.067,0.639-0.027,0.762-0.283c0.256-0.637-0.031-1.908-0.857-3.813
	c-0.824-1.904-2.254-4.696-4.287-8.384c1.145-0.38,2.416-0.571,3.811-0.571c3.178,5.334,5.336,8.451,6.48,9.335
	c0.889,0.638,1.303,0.352,1.238-0.855c-0.063-1.207-1.051-4.097-2.955-8.671h2.477c1.906,4.83,3.559,7.624,4.953,8.384
	c0.383,0.259,0.764,0.352,1.146,0.287c0.379-0.065,0.635-0.38,0.762-0.954c0.127-0.57,0.031-1.524-0.287-2.857
	c-0.314-1.334-0.857-3.078-1.621-5.239c2.797-0.38,3.939-1.3,3.434-2.763c-0.508-1.46-2.223-2.889-5.146-4.287
	c-2.793-1.27-6.414-2.318-10.861-3.146c-4.445-0.824-9.336-1.364-14.672-1.618c-2.92-0.124-5.842-0.16-8.764-0.096
	c-2.92,0.064-5.652,0.223-8.193,0.477c0.127-0.254,0.189-0.634,0.189-1.146c-0.125-0.378-0.412-0.695-0.859-0.951
	c-0.441-0.253-1.236-0.253-2.379,0c-1.145,0.13-2.572,0.476-4.287,1.05c-1.717,0.57-3.078,1.173-4.098,1.809
	c-1.648,1.018-2.223,1.969-1.715,2.858c-1.396,0.89-2.508,2.001-3.334,3.334c-0.824,1.333-1.684,3.081-2.572,5.241h-0.191
	c-0.252-0.124-0.602-0.063-1.049,0.191c-0.441,0.253-0.982,0.951-1.617,2.093c-0.508,1.019-1.051,2.45-1.621,4.29
	s-0.92,3.398-1.047,4.668c0,2.031,0.445,3.049,1.334,3.049c-1.652,6.477-3.652,14.67-6.004,24.578
	c-2.35,9.908-5.301,22.36-8.859,37.347c-6.35-0.762-10.924-0.92-13.721-0.478c-2.791,0.449-4.316,1.145-4.572,2.099
	c-0.252,0.951,0.477,1.904,2.191,2.858c1.715,0.951,3.844,1.556,6.385,1.809c-2.795,1.271-4.828,2.352-6.1,3.241
	c-1.266,0.889-2.063,1.648-2.381,2.284c-0.314,0.636-0.252,1.176,0.191,1.618c0.445,0.449,1.047,0.858,1.811,1.24
	c1.396,0.636,3.049,0.951,4.953,0.951s4.256-1.204,7.051-3.618c-3.174,3.938-4.604,6.637-4.287,8.097
	c0.316,1.463,1.305,2.318,2.953,2.572c1.398,0.258,2.924-0.189,4.572-1.334c1.654-1.143,2.605-4.001,2.857-8.575
	c0.893,1.654,1.781,2.83,2.668,3.525c0.891,0.703,1.715,1.116,2.479,1.24c0.762,0.129,1.494-0.031,2.191-0.476
	s1.303-0.981,1.809-1.62c1.018-1.398,1.334-3.016,0.953-4.858c-0.381-1.841-2.223-3.652-5.525-5.431L52.31,73.058l-23.818,38.298
	c2.162,1.907,3.367,4.001,3.621,6.29c0.256,2.285-0.125,4.699-1.143,7.239l5.908,7.239h120.231
	c3.811-4.572,6.607-8.764,8.385-12.576c1.781-3.81,2.893-7.238,3.334-10.286C169.275,106.213,169.242,103.515,168.732,101.162z
	 M6.009,110.404c-1.016,0.38-1.969,0.256-2.857-0.383c-0.383-0.38-0.383-0.886,0-1.524c0.889-0.507,1.779-0.822,2.666-0.951
	c1.143,0,1.715,0.191,1.715,0.571C7.532,109.136,7.028,109.897,6.009,110.404z M8.104,119.739c-0.506,0.765-1.523,1.019-3.049,0.765
	c-1.143-0.253-1.84-0.697-2.096-1.336c-0.125-0.633,0.191-1.207,0.953-1.713c1.018-0.766,2.096-0.954,3.238-0.574
	C8.294,117.52,8.614,118.473,8.104,119.739z M15.536,127.172c-0.381,0.256-0.824,0.414-1.334,0.476
	c-0.508,0.067-0.953-0.096-1.334-0.476c-0.383-0.253-0.57-0.697-0.57-1.333c0-0.637,0.125-1.207,0.379-1.717
	c0.256-1.396,0.893-1.904,1.904-1.524c0.639,0,1.211,0.639,1.717,1.907C16.554,125.776,16.298,126.665,15.536,127.172z
	 M25.636,119.739c0.508-1.013,1.207-1.334,2.096-0.951c0.635,0,0.951,0.507,0.951,1.524c-0.254,0.89-0.824,1.461-1.713,1.714
	c-0.637,0.256-1.146,0.191-1.525-0.188C24.937,121.073,24.999,120.378,25.636,119.739z M147.201,111.929
	c-0.252,0.507-0.57,0.827-0.953,0.951c-0.887,0.13-1.713-0.314-2.477-1.333c-0.506-0.887-0.252-1.458,0.764-1.716
	c0.508-0.254,1.018-0.285,1.523-0.094c0.51,0.191,0.891,0.476,1.143,0.858C147.457,110.976,147.457,111.423,147.201,111.929z
	 M152.348,102.212c-0.508,1.019-1.016,1.522-1.525,1.522c-0.506,0.129-1.016-0.096-1.525-0.667c-0.506-0.571-0.887-1.171-1.143-1.81
	c-0.252-1.524,0.066-2.287,0.951-2.287c0.51-0.253,1.115-0.253,1.813,0c0.697,0.256,1.176,0.636,1.43,1.143v0.383
	C152.604,100.878,152.604,101.447,152.348,102.212z M162.35,95.637c-0.572,0.827-1.172,1.238-1.811,1.238
	c-0.506,0-1.016-0.411-1.523-1.238c-0.508-0.826-0.826-1.682-0.951-2.573c0-0.76,0.16-1.458,0.475-2.094
	c0.318-0.636,0.793-0.954,1.43-0.954c0.635,0,1.238,0.318,1.809,0.954c0.572,0.636,0.922,1.334,1.049,2.094
	C163.082,93.955,162.922,94.811,162.35,95.637z"/>
<path fill="#FFFFFF" d="M38.591,66.387c-2.541-1.775-3.684-4.191-3.43-7.238c0.256-3.05,1.525-5.555,3.813-7.528
	c2.285-1.967,4.762-3.143,7.43-3.525c1.271-0.124,2.605-0.028,4,0.289c1.402,0.315,2.605,0.855,3.621,1.618
	c2.543,1.78,3.686,4.321,3.43,7.621c-0.254,2.923-1.525,5.368-3.809,7.337c-2.287,1.97-4.699,3.143-7.242,3.525
	c-1.395,0.127-2.793,0.064-4.191-0.191C40.815,68.041,39.608,67.405,38.591,66.387z"/>
<path fill="#414042" d="M45.261,14.37c-1.016,0.381-1.715,0.828-2.096,1.334c-0.383,0.51-0.383,1.652,0,3.43
	c1.777-1.016,3.686-1.936,5.715-2.763c2.033-0.824,4.129-1.362,6.287-1.62c-1.904-1.014-3.744-1.427-5.525-1.238
	C47.866,13.704,46.403,13.991,45.261,14.37z"/>
<path fill="#414042" d="M46.784,51.906c-1.775,0-3.27,0.67-4.477,2.003c-1.207,1.334-1.813,2.951-1.813,4.859
	c0,1.777,0.605,3.333,1.813,4.667s2.701,2,4.477,2c1.779,0,3.271-0.666,4.479-2c1.209-1.334,1.809-2.89,1.809-4.667
	c0-1.908-0.6-3.525-1.809-4.859C50.056,52.576,48.563,51.906,46.784,51.906z"/>
<path fill="#414042" d="M42.782,14.751c0.639-0.633,1.813-1.238,3.525-1.81c1.717-0.573,3.654-0.729,5.813-0.476
	c-1.398-1.524-2.793-2.383-4.191-2.574s-2.604-0.093-3.621,0.287c-1.016,0.38-1.682,0.889-2,1.522
	C41.991,12.339,42.149,13.354,42.782,14.751z"/>
<path fill="#FFFFFF" d="M46.403,61.626c-1.777,0-2.668-1.018-2.668-3.049c0-0.763,0.256-1.432,0.764-2.001
	c0.51-0.573,1.143-0.857,1.904-0.857c0.637,0,1.018,0.129,1.143,0.38c0.256-0.38,0.639-0.571,1.145-0.571
	c0.889,0,1.334,0.509,1.334,1.524c0,0.383-0.254,0.827-0.762,1.334v0.191c0,0.889-0.287,1.617-0.859,2.191
	C47.833,61.34,47.165,61.626,46.403,61.626z"/>
<path fill="#414042" d="M42.403,10.368c0.508-0.381,1.303-0.791,2.379-1.236c1.082-0.444,2.258-0.478,3.525-0.098
	c-1.777-1.396-3.111-2.125-4-2.191c-0.887-0.063-1.525,0.033-1.904,0.287C41.515,7.768,41.515,8.843,42.403,10.368z"/>
<path fill="#414042" d="M46.021,56.479c-1.143,0-1.713,0.703-1.713,2.099c0,0.506,0.16,0.984,0.475,1.427
	c0.318,0.449,0.734,0.666,1.238,0.666c0.639,0,1.115-0.217,1.43-0.666c0.32-0.442,0.479-0.921,0.479-1.427
	C47.929,57.182,47.292,56.479,46.021,56.479z"/>
<path fill="#414042" d="M28.491,38.76c-0.381,1.142-0.477,2.034-0.285,2.667c0.191,0.636,1.115,1.271,2.764,1.907
	c0.256-2.031,0.635-4.223,1.143-6.575c0.508-2.349,1.332-4.479,2.479-6.383c-2.158,1.018-3.621,2.383-4.385,4.096
	C29.444,36.186,28.874,37.617,28.491,38.76z"/>
<path fill="#414042" d="M24.681,37.044c-0.885,2.163-0.123,3.496,2.289,4c0.256-0.883,0.604-2.188,1.045-3.902
	c0.447-1.716,1.43-3.463,2.955-5.24c-2.158,0.256-3.684,0.922-4.574,2C25.509,34.981,24.937,36.03,24.681,37.044z"/>
<path fill="#414042" d="M23.349,38.76c0-0.636,0.191-1.524,0.57-2.667c0.381-1.143,1.08-2.223,2.096-3.241
	c-2.031,0.765-3.334,1.494-3.904,2.192c-0.574,0.699-0.857,1.367-0.857,2C21.126,37.936,21.823,38.507,23.349,38.76z"/>
<path fill="#414042" d="M20.489,37.427c0-0.383,0.127-0.89,0.381-1.525c0.256-0.636,0.699-1.204,1.334-1.716
	c-2.029,0.638-3.109,1.24-3.238,1.812C18.841,36.568,19.347,37.044,20.489,37.427z"/>
</svg>
