<?xml version="1.0" encoding="utf-8"?>
<!-- Generator: Adobe Illustrator 16.0.3, SVG Export Plug-In . SVG Version: 6.00 Build 0)  -->
<!DOCTYPE svg PUBLIC "-//W3C//DTD SVG 1.1//EN" "http://www.w3.org/Graphics/SVG/1.1/DTD/svg11.dtd">
<svg version="1.1" id="Layer_1" xmlns="http://www.w3.org/2000/svg" xmlns:xlink="http://www.w3.org/1999/xlink" x="0px" y="0px"
	 width="108.874px" height="132.866px" viewBox="0 0 108.874 132.866" enable-background="new 0 0 108.874 132.866"
	 xml:space="preserve">
<path fill="#414042" d="M104.19,6.628c1.463,2.266,2.662,4.992,3.6,8.19c0.926,3.198,1.262,6.661,0.996,10.392
	c-0.135,3.599-0.898,7.36-2.297,11.29s-3.367,7.892-5.898,11.887c-1.994,3.469-4.396,6.797-7.193,9.992l-5.594,5.795v5.796
	c-1.066,6.262-5.729,9.859-13.984,10.787c-0.4,7.064-2,13.123-4.797,18.186c1.063,0.934,1.465,1.93,1.199,2.998
	s-0.934,2.066-1.996,2.998l-1.002,13.389c2.531,0.266,4.596,0.563,6.195,0.898c1.6,0.332,2.928,0.5,3.994,0.5
	c1.068,0.266,1.865,0.395,2.402,0.395c0.531,0,0.926,0.07,1.197,0.201c0.797,0.537,0.928,1.197,0.4,2
	c-0.135,0.266-0.336,0.531-0.602,0.797c-0.27,0.271-0.932,0.271-2,0c1.465,0.672,2.402,1.301,2.797,1.902
	c0.402,0.596,0.467,1.166,0.201,1.697s-0.764,0.965-1.496,1.301c-0.736,0.33-1.896,0.031-3.496-0.9
	c2.662,1.6,3.896,2.83,3.697,3.697c-0.201,0.867-0.635,1.43-1.301,1.695c-1.068,0.531-2.195,0.467-3.398-0.199
	c-0.668-0.531-1.367-1.166-2.098-1.898c-0.732-0.73-1.496-1.43-2.299-2.098c-0.797-0.666-1.6-1.23-2.396-1.701
	c-0.797-0.461-1.598-0.83-2.395-1.096c-0.803-0.266-1.6-0.33-2.402-0.199c-0.797,0.135-1.533,0.199-2.195,0.199
	c-1.469-0.266-2.465-0.666-2.996-1.197c-0.803-0.932-1.068-1.93-0.803-2.998c0-0.531,0.199-0.965,0.602-1.301
	c0.4-0.33,1.197-0.629,2.396-0.898c0.264-1.6,0-2.998-0.797-4.195c-0.803-1.199-1.334-2.467-1.6-3.795
	c-0.271-1.334-0.104-2.666,0.498-4c0.602-1.328,1.432-2.326,2.5-2.998c-1.068-1.994-2.066-3.723-2.998-5.193
	c-0.932-1.463-1.936-2.797-2.998-3.994c-1.068,1.197-2.064,2.531-2.998,3.994c-0.932,1.471-1.934,3.199-2.996,5.193
	c1.063,0.672,1.93,1.67,2.596,2.998c0.666,1.334,0.867,2.666,0.602,4c-0.271,1.328-0.834,2.596-1.695,3.795
	c-0.873,1.197-1.102,2.596-0.705,4.195c1.863,0.4,2.803,1.133,2.803,2.199c0.264,1.068,0,2.066-0.803,2.998
	c-0.668,0.666-1.664,1.068-2.998,1.197c-0.666,0-1.365-0.064-2.098-0.199c-0.732-0.131-1.496-0.066-2.299,0.199
	c-0.932,0.266-1.799,0.635-2.596,1.096c-0.803,0.471-1.6,1.035-2.395,1.701c-0.803,0.668-1.572,1.367-2.299,2.098
	c-0.738,0.732-1.438,1.367-2.098,1.898c-1.334,0.666-2.467,0.73-3.398,0.199c-0.668-0.266-1.068-0.828-1.199-1.695
	c-0.135-0.867,1.129-2.098,3.795-3.697c-1.734,0.932-2.965,1.23-3.697,0.9c-0.73-0.336-1.23-0.77-1.496-1.301
	c-0.27-0.531-0.199-1.102,0.195-1.697c0.402-0.602,1.404-1.23,2.998-1.902c-1.068,0.271-1.768,0.271-2.098,0
	c-0.33-0.266-0.635-0.531-0.9-0.797c-0.266-0.932-0.064-1.6,0.602-2c0.266-0.131,0.668-0.201,1.199-0.201s1.332-0.129,2.4-0.395
	c1.063,0,2.396-0.168,3.994-0.5c1.6-0.336,3.666-0.633,6.195-0.898l-1.002-13.389c-2.396-2.131-2.596-4.131-0.596-5.996
	c-2.934-5.328-4.467-11.523-4.598-18.584c-6.926-0.131-11.121-3.928-12.59-11.391l-9.99-10.589
	c-1.463-1.463-2.797-3.063-3.994-4.794c-1.199-1.729-2.332-3.464-3.4-5.198C5.881,44.392,3.946,40.43,2.483,36.5
	c-1.465-3.93-2.266-7.691-2.396-11.29c-0.271-3.73,0.098-7.193,1.1-10.392c0.998-3.198,2.229-5.925,3.697-8.19
	c1.463-2.266,3.096-3.864,4.895-4.797c1.801-0.93,3.297-1.528,4.494-1.799c2.266-0.131,4,1.2,5.197,3.997
	c0.266,0.8,0.467,1.667,0.598,2.599c0.129,0.933-0.033,1.732-0.5,2.396c-0.465,0.669-1.332,1.197-2.596,1.599
	c-1.268,0.401-3.166,0.469-5.697,0.2c2.668,0.269,4.766,0.732,6.293,1.398c1.535,0.667,2.699,1.432,3.502,2.299
	c0.797,0.867,1.295,1.731,1.496,2.596c0.201,0.867,0.299,1.699,0.299,2.499c0.135,2.797-0.732,4.396-2.598,4.798
	c-1.066,0.266-2.33,0.232-3.793-0.104c-1.469-0.33-2.934-1.162-4.396-2.496c1.865,1.596,3.127,3.064,3.795,4.396
	c0.666,1.333,0.828,2.43,0.498,3.298c-0.33,0.867-1.068,1.431-2.195,1.696c-1.133,0.269-2.57,0.136-4.299-0.401
	c2.797,2.8,5.398,5.096,7.795,6.895c2.396,1.8,4.596,3.231,6.592,4.299c0-0.802,0.07-1.398,0.199-1.8
	c0.266-4.26,1.27-7.523,2.998-9.791c1.729-2.264,4.33-3.928,7.795-4.996c-0.537-0.129-0.803-0.4-0.803-0.799
	c-0.131-0.266-0.098-0.6,0.104-1c0.199-0.398,0.764-0.729,1.695-0.998c1.068-0.4,2.266-0.73,3.6-1
	c1.328-0.266,2.525-0.33,3.594-0.197c1.729,0,2.467,0.531,2.201,1.596c0,0.27-0.137,0.535-0.402,0.8c1.465-0.13,3.102-0.2,4.895-0.2
	c1.801,0,3.633,0,5.496,0c1.865,0,3.73,0,5.596,0c1.863,0,3.527,0.07,4.996,0.2c0-0.13-0.031-0.229-0.102-0.298
	c-0.066-0.064-0.098-0.168-0.098-0.301c-0.402-1.065,0.33-1.6,2.199-1.6c0.928-0.133,2.098-0.064,3.496,0.201
	c1.398,0.268,2.564,0.599,3.496,1c1.063,0.266,1.697,0.596,1.898,0.997c0.199,0.401,0.232,0.735,0.098,1.001v0.197
	c2.932,0.936,5.197,2.334,6.797,4.197c1.598,1.868,2.525,4.729,2.797,8.592c0,0.398,0,0.832,0,1.299c0,0.469,0.064,0.97,0.199,1.501
	c1.865-1.067,3.795-2.401,5.795-4c1.994-1.597,4.125-3.526,6.391-5.795c-1.729,0.537-3.191,0.67-4.396,0.401
	c-1.197-0.266-1.93-0.829-2.193-1.696c-0.271-0.868-0.104-1.965,0.498-3.298c0.602-1.332,1.832-2.801,3.697-4.396
	c-1.471,1.334-2.895,2.166-4.299,2.496c-1.398,0.336-2.629,0.369-3.691,0.104c-1.871-0.402-2.803-2.001-2.803-4.798
	c0-0.8,0.104-1.632,0.303-2.499c0.201-0.864,0.699-1.729,1.496-2.596c0.803-0.867,1.963-1.632,3.496-2.299
	c1.535-0.666,3.697-1.13,6.494-1.398c-2.531,0.269-4.428,0.201-5.691-0.2c-1.268-0.401-2.135-0.93-2.596-1.599
	c-0.473-0.664-0.635-1.464-0.504-2.396c0.135-0.932,0.33-1.799,0.602-2.599c0.666-1.464,1.328-2.528,2-3.195
	c0.66-0.667,1.729-0.933,3.191-0.802C96,0.303,97.463,0.901,99.192,1.831C100.926,2.764,102.59,4.362,104.19,6.628z M12.278,25.812
	c-0.402,0.133-0.803,0.434-1.205,0.896c-0.395,0.469-0.529,0.967-0.395,1.498c0,0.535,0.227,0.9,0.699,1.102
	c0.467,0.2,0.965,0.297,1.496,0.297c1.068-0.266,1.463-0.996,1.197-2.197c-0.129-0.398-0.33-0.799-0.596-1.197
	C13.204,25.812,12.809,25.679,12.278,25.812z M12.874,3.831c-1.197,1.198-1.398,2.531-0.596,3.995
	c0.395,0.667,0.926,1.067,1.598,1.198c0.662,0.135,1.328,0.07,1.996-0.201c0.801-0.266,1.398-0.764,1.799-1.496
	c0.4-0.731,0.602-1.431,0.602-2.098c-0.271-1.731-1.068-2.799-2.4-3.197C14.672,1.901,13.676,2.498,12.874,3.831z M17.069,16.618
	c-0.531,0.135-0.965,0.466-1.295,0.997c-0.336,0.536-0.5,1.133-0.5,1.8c0,0.666,0.164,1.232,0.5,1.699
	c0.33,0.469,0.828,0.699,1.496,0.699c0.531,0.133,1.1,0.1,1.701-0.101c0.596-0.2,1.029-0.563,1.295-1.101
	c0.266-0.531,0.332-1.063,0.201-1.599c-0.135-0.528-0.336-1.063-0.602-1.597C18.797,16.353,17.872,16.087,17.069,16.618z
	 M27.661,34.402c0.129,0.797,0.531,1.366,1.197,1.696c0.666,0.336,1.432,0.569,2.299,0.699c0.867,0.136,1.701,0.168,2.498,0.104
	c0.797-0.068,1.463-0.168,2-0.304h0.201c0.525-0.13,1.197-0.363,1.994-0.699c0.803-0.331,1.529-0.699,2.201-1.098
	c0.66-0.398,1.23-0.897,1.695-1.499c0.467-0.599,0.629-1.298,0.5-2.098c-0.137-0.667-0.5-1.197-1.102-1.6
	c-0.596-0.398-1.295-0.628-2.098-0.699c-0.797-0.064-1.598-0.097-2.395-0.097s-1.469,0.065-2,0.198h-0.396
	c-0.4,0.133-1.002,0.332-1.799,0.598c-0.803,0.271-1.6,0.635-2.402,1.101c-0.797,0.467-1.43,0.998-1.896,1.6
	C27.692,32.903,27.524,33.603,27.661,34.402z M83.208,64.374c0-2.263-0.033-4.897-0.098-7.895c-0.07-2.998-0.299-5.361-0.699-7.09
	c-0.666-1.865-1.799-2.998-3.398-3.398c0,3.596-0.135,5.693-0.4,6.293c-0.266,0.602-0.598,0.899-0.998,0.899
	c-0.666,0-1.133-0.13-1.398-0.401c-0.135-0.263-0.201-0.796-0.201-1.596s0-2.528,0-5.195h-3.197c0,2.667,0,4.396,0,5.195
	s-0.064,1.333-0.195,1.596c-0.271,0.271-0.803,0.401-1.6,0.401c-0.27,0-0.568-0.298-0.898-0.899c-0.336-0.6-0.5-2.697-0.5-6.293
	h-1.598c0,2.667-0.039,4.396-0.104,5.195s-0.168,1.333-0.299,1.596c-0.135,0.271-0.602,0.401-1.398,0.401
	c-0.27,0-0.568-0.298-0.898-0.899c-0.336-0.6-0.5-2.697-0.5-6.293h-1.598c0,2.667,0,4.396,0,5.195s-0.072,1.333-0.201,1.596
	c-0.266,0.271-0.797,0.401-1.6,0.401c-0.266,0-0.568-0.298-0.898-0.899c-0.332-0.6-0.57-2.697-0.699-6.293h-1.4
	c0,2.667-0.031,4.396-0.096,5.195c-0.072,0.8-0.168,1.333-0.305,1.596c-0.129,0.271-0.596,0.401-1.398,0.401
	c-0.266,0-0.564-0.298-0.895-0.899c-0.336-0.6-0.504-2.697-0.504-6.293H53.44c0,2.667,0,4.396,0,5.195s-0.072,1.333-0.201,1.596
	c-0.137,0.271-0.672,0.401-1.6,0.401c-0.271,0-0.537-0.298-0.803-0.899c-0.266-0.6-0.465-2.697-0.596-6.293h-1.398
	c0,2.667-0.037,4.396-0.104,5.195c-0.064,0.8-0.168,1.333-0.297,1.596c-0.137,0.271-0.602,0.401-1.398,0.401
	c-0.402,0-0.77-0.298-1.102-0.899c-0.33-0.6-0.498-2.697-0.498-6.293h-1.6c0,2.667,0,4.396,0,5.195s-0.07,1.333-0.199,1.596
	c-0.137,0.271-0.668,0.401-1.6,0.401c-0.266,0-0.531-0.298-0.797-0.899c-0.271-0.6-0.471-2.697-0.602-6.293h-1.6
	c0,2.667,0,4.396,0,5.195s-0.064,1.333-0.193,1.596c-0.137,0.271-0.604,0.401-1.404,0.401c-0.396,0-0.766-0.298-1.096-0.899
	c-0.336-0.6-0.498-2.697-0.498-6.293h-0.201h-1.398c0,2.667,0,4.396,0,5.195s-0.135,1.333-0.4,1.596
	c-0.137,0.271-0.602,0.401-1.398,0.401c-0.271,0-0.537-0.266-0.803-0.8c-0.266-0.528-0.467-2.398-0.596-5.594
	c-0.271,0.269-0.537,0.6-0.803,1c-0.266,0.398-0.467,0.933-0.596,1.6c-0.537,1.729-0.803,4.092-0.803,7.09c0,2.997,0,5.632,0,7.895
	c0.131,2.269,0.303,3.965,0.498,5.094c0.201,1.133,0.57,1.965,1.102,2.496c0.266,0.402,0.73,0.67,1.398,0.803
	c0.129-2.398,0.199-3.998,0.199-4.797s0.066-1.328,0.201-1.599c0.131-0.531,0.602-0.797,1.398-0.797c0.4,0,0.764,0.299,1.1,0.897
	c0.332,0.598,0.5,2.768,0.5,6.493c0.266,0,0.531,0.037,0.797,0.102c0.266,0.07,0.531,0.1,0.801,0.1c0-2.664,0-4.396,0-5.195
	s0.066-1.328,0.201-1.599c0.266-0.531,0.797-0.797,1.6-0.797c0.266,0,0.531,0.331,0.797,0.998c0.266,0.666,0.465,2.867,0.602,6.593
	h1.6c0-2.664,0-4.396,0-5.195s0.064-1.328,0.193-1.599c0.137-0.531,0.668-0.797,1.6-0.797c0.266,0,0.568,0.331,0.9,0.998
	c0.33,0.666,0.498,2.867,0.498,6.593h1.6c0-2.664,0-4.396,0-5.195s0.135-1.328,0.4-1.599c0.131-0.531,0.602-0.797,1.398-0.797
	c0.266,0,0.531,0.331,0.803,0.998c0.266,0.666,0.461,2.867,0.596,6.593h1.799v-6.794c0.266-0.531,0.797-0.797,1.6-0.797
	c0.266,0,0.564,0.331,0.9,0.998c0.33,0.666,0.498,2.867,0.498,6.593h1.6c0-2.664,0-4.396,0-5.195s0.129-1.328,0.4-1.599
	c0.131-0.531,0.596-0.797,1.398-0.797c0.266,0,0.564,0.331,0.895,0.998c0.336,0.666,0.504,2.867,0.504,6.593h1.795
	c0-2.664,0-4.396,0-5.195s0.07-1.328,0.201-1.599c0.129-0.531,0.602-0.797,1.398-0.797c0.266,0,0.568,0.331,0.898,0.998
	c0.33,0.666,0.5,2.867,0.5,6.593h1.598c0-2.664,0-4.396,0-5.195s0.131-1.328,0.402-1.599c0.129-0.531,0.602-0.797,1.398-0.797
	c0.266,0,0.563,0.331,0.898,0.998c0.332,0.666,0.564,2.867,0.699,6.593h1.6c0-2.664,0-4.396,0-5.195s0.064-1.328,0.201-1.599
	c0.129-0.531,0.596-0.797,1.398-0.797c0.4,0,0.73,0.331,0.996,0.998c0.266,0.666,0.402,2.867,0.402,6.593
	c1.197,0,2.064-0.064,2.596-0.201c0-1.861,0.033-3.098,0.104-3.693c0.064-0.602,0.162-1.033,0.297-1.301
	c0.131-0.4,0.598-0.6,1.398-0.6c0.266,0,0.531,0.234,0.797,0.699c0.266,0.471,0.467,2.033,0.602,4.697
	c0.668,0,1.129-0.064,1.398-0.199c0.266-0.131,0.531-0.332,0.797-0.604c0.668-0.531,1.068-1.363,1.203-2.496
	C82.942,68.339,83.077,66.643,83.208,64.374z M33.454,126.117c0.131-0.531-0.064-0.928-0.596-1.199h-1.203
	c-0.396,0-0.732,0.271-0.998,0.803s-0.199,0.932,0.201,1.197c0.4,0.396,0.861,0.531,1.398,0.396
	C32.788,127.183,33.188,126.789,33.454,126.117z M32.458,122.322c0.4,0,0.465-0.266,0.199-0.803
	c-0.27-0.395-0.602-0.596-1.002-0.596c-0.531,0-0.797,0.266-0.797,0.797c-0.271,0.537-0.135,0.803,0.4,0.803
	C31.655,122.789,32.055,122.722,32.458,122.322z M35.856,36.399c-0.938,0.269-1.768,0.101-2.5-0.501
	c-0.736-0.597-1.234-1.36-1.5-2.296c-0.137-0.93,0.031-1.797,0.498-2.599c0.467-0.797,1.166-1.263,2.098-1.399h0.201
	c2-0.398,3.262,0.47,3.799,2.597C38.854,34.337,37.981,35.735,35.856,36.399z M34.256,131.515c0.928-0.266,1.264-0.732,0.998-1.398
	c0-0.531-0.537-0.803-1.6-0.803c-0.531,0.271-0.932,0.537-1.197,0.803c-0.271,0.531-0.137,0.932,0.4,1.197
	C33.124,131.714,33.584,131.781,34.256,131.515z M33.655,31.204c-0.4,0.401-0.531,0.667-0.4,0.8c0,0.133,0.064,0.268,0.199,0.398
	c0.131,0.135,0.266,0.135,0.402,0c-0.271,0.271-0.271,0.536,0,0.802c0,0.398,0.199,0.731,0.596,0.997
	c0.4,0.269,0.803,0.337,1.203,0.201c0.662-0.266,0.998-0.867,0.998-1.8c-0.271-0.93-0.797-1.263-1.6-0.997
	c-0.4,0-0.666,0.067-0.797,0.2C34.256,31.404,34.055,31.204,33.655,31.204z M35.254,33.402c-0.668,0-0.998-0.266-0.998-0.8
	c0-0.401,0.33-0.599,0.998-0.599c0.4,0,0.602,0.197,0.602,0.599C35.856,33.137,35.655,33.402,35.254,33.402z M41.45,18.017
	c1.063-0.131,1.799-0.101,2.195,0.1c0.4,0.198,0.867,1.033,1.398,2.496c-1.73,0-3.529,0.104-5.395,0.301
	c-1.863,0.201-3.598,0.635-5.197,1.299c1.068-1.464,2.266-2.461,3.6-2.998C39.379,18.683,40.518,18.284,41.45,18.017z
	 M43.444,17.217c-0.666-0.133-1.697-0.065-3.096,0.2c-1.398,0.269-2.898,0.867-4.492,1.797c0.525-1.599,1.262-2.727,2.195-3.396
	c0.932-0.664,1.799-1.065,2.596-1.2C42.512,14.22,43.444,15.089,43.444,17.217z M42.045,14.021
	c-0.395-0.133-1.094-0.103-2.098,0.098c-0.998,0.2-1.832,0.634-2.498,1.301c0.666-1.599,1.301-2.629,1.902-3.098
	c0.596-0.466,1.166-0.702,1.695-0.702c0.266,0.136,0.5,0.336,0.699,0.602C41.948,12.49,42.045,13.089,42.045,14.021z M41.45,11.225
	c-0.271,0-0.672,0.032-1.197,0.098c-0.537,0.07-1.004,0.434-1.398,1.101c0.66-1.729,1.225-2.629,1.695-2.699
	C41.016,9.658,41.313,10.157,41.45,11.225z M51.239,37.601c-0.266,0.398-0.467,0.796-0.602,1.197
	c-0.266,0.933-0.066,1.398,0.602,1.398c0.4,0.136,0.699,0.033,0.898-0.301c0.201-0.33,0.299-0.699,0.299-1.098
	c0-0.401-0.098-0.731-0.299-1C51.938,37.532,51.639,37.468,51.239,37.601z M57.834,37.601c-0.271,0.398-0.471,0.796-0.602,1.197
	c-0.271,0.933-0.07,1.398,0.602,1.398c0.396,0.136,0.699,0.033,0.895-0.301c0.201-0.33,0.305-0.699,0.305-1.098
	c0-0.401-0.104-0.731-0.305-1C58.534,37.532,58.231,37.468,57.834,37.601z M70.221,18.217c0.932,0.269,2.064,0.634,3.398,1.101
	c1.328,0.467,2.525,1.496,3.594,3.095c-1.6-0.667-3.328-1.101-5.193-1.298c-1.869-0.201-3.6-0.301-5.197-0.301
	c0.266-1.464,0.633-2.299,1.1-2.499C68.389,18.116,69.153,18.087,70.221,18.217z M68.026,30.605
	c-0.271,0.935-0.168,1.767,0.297,2.496c0.467,0.734,1.063,1.333,1.801,1.799c0.73,0.47,1.496,0.868,2.297,1.198
	c0.797,0.336,1.398,0.569,1.795,0.699h0.4c0.531,0.136,1.199,0.236,2,0.301c0.797,0.068,1.627,0.035,2.5-0.101
	c0.861-0.13,1.625-0.431,2.297-0.899c0.662-0.463,1.129-1.098,1.398-1.897c0.131-0.932-0.037-1.764-0.504-2.498
	c-0.465-0.729-1.066-1.328-1.793-1.798c-0.738-0.465-1.502-0.863-2.299-1.199c-0.803-0.332-1.398-0.564-1.799-0.699h-0.201
	c-0.4-0.131-1.035-0.23-1.896-0.299c-0.867-0.064-1.697-0.033-2.5,0.098c-0.797,0.135-1.566,0.4-2.297,0.803
	C68.79,29.007,68.292,29.676,68.026,30.605z M75.614,19.415c-1.463-0.93-2.928-1.529-4.396-1.8
	c-1.463-0.266-2.531-0.331-3.191-0.198c0.129-2.13,1.127-2.997,2.996-2.599c0.928,0.136,1.859,0.536,2.797,1.198
	C74.747,16.688,75.348,17.815,75.614,19.415z M74.417,15.62c-0.668-0.802-1.496-1.268-2.5-1.4c-0.996-0.131-1.832-0.198-2.492-0.198
	c0.129-1.333,0.596-2.065,1.398-2.2c0.395,0,0.926,0.235,1.598,0.699C73.083,12.991,73.749,14.021,74.417,15.62z M73.018,12.623
	c-0.531-0.667-1.068-1.032-1.6-1.101c-0.531-0.064-0.932-0.1-1.197-0.1C70.752,8.894,71.684,9.295,73.018,12.623z M74.215,36.202
	c-1.068-0.266-1.795-0.868-2.195-1.8c-0.4-0.933-0.467-1.93-0.201-2.998c0.266-0.932,0.803-1.764,1.6-2.499
	c0.797-0.73,1.729-0.965,2.797-0.699c1.063,0.27,1.799,0.9,2.201,1.898c0.395,0.999,0.461,1.967,0.195,2.899
	c-0.266,0.932-0.732,1.767-1.398,2.496c-0.668,0.734-1.529,1.032-2.598,0.899L74.215,36.202z M73.62,31.605
	c-0.271,0.932,0.129,1.599,1.197,1.997c0.266,0.133,0.564,0.035,0.9-0.301c0.33-0.331,0.563-0.699,0.699-1.101
	c0.531-1.063,0.199-1.729-0.998-1.994h-0.4c0-0.133-0.137-0.331-0.402-0.603c-0.531,0-0.797,0.271-0.797,0.801v0.599
	C73.819,31.274,73.749,31.473,73.62,31.605z M75.018,33.004c-0.402,0-0.602-0.331-0.602-1c0-0.8,0.199-1.201,0.602-1.201
	c0.666,0,0.996,0.401,0.996,1.201C76.014,32.673,75.684,33.004,75.018,33.004z M76.417,130.117c0,0.666,0.33,1.133,0.996,1.398
	c0.668,0.266,1.199,0.199,1.6-0.201c0.131-0.131,0.201-0.531,0.201-1.197c-0.402-0.402-0.867-0.668-1.398-0.803
	C77.147,129.314,76.682,129.585,76.417,130.117z M79.012,124.917c-0.531,0.271-0.732,0.668-0.596,1.199
	c0,0.535,0.33,0.938,0.996,1.197c0.531,0.271,1.063,0.135,1.6-0.396c0.266-0.266,0.266-0.666,0-1.197
	c0-0.531-0.336-0.803-1.002-0.803H79.012z M79.012,121.519c0,0.537,0.064,0.803,0.201,0.803c0.4,0.4,0.867,0.467,1.398,0.201
	c0.266,0,0.4-0.266,0.4-0.803c0-0.531-0.336-0.797-1.002-0.797C79.479,120.923,79.143,121.125,79.012,121.519z M91.799,21.813
	c0.531,0,1.002-0.23,1.404-0.699c0.395-0.467,0.596-1.033,0.596-1.699c0-0.667-0.201-1.264-0.596-1.8
	c-0.402-0.531-0.803-0.862-1.205-0.997c-0.932-0.401-1.863-0.131-2.797,0.799c-0.266,0.534-0.465,1.068-0.596,1.597
	c-0.135,0.536-0.07,1.067,0.201,1.599c0.26,0.537,0.66,0.9,1.197,1.101C90.536,21.913,91.131,21.946,91.799,21.813z M96.797,7.826
	c0.266-0.667,0.297-1.366,0.096-2.098c-0.193-0.731-0.434-1.366-0.699-1.897c-0.795-1.466-1.863-2.064-3.191-1.799
	C92.465,2.3,91.967,2.731,91.5,3.33s-0.699,1.233-0.699,1.899c-0.135,0.667,0,1.366,0.402,2.098c0.4,0.732,0.932,1.23,1.598,1.496
	C94.667,9.36,96,9.024,96.797,7.826z M98.395,28.206c0.131-0.531,0-1.029-0.4-1.498c-0.396-0.463-0.797-0.764-1.197-0.896
	c-0.531-0.133-0.998,0-1.398,0.398c-0.402,0.398-0.604,0.799-0.604,1.197c0,1.334,0.467,2.068,1.398,2.197
	c0.402,0,0.836-0.097,1.303-0.297C97.961,29.106,98.26,28.741,98.395,28.206z"/>
</svg>
