<?xml version="1.0" encoding="utf-8"?>
<!-- Generator: Adobe Illustrator 16.0.3, SVG Export Plug-In . SVG Version: 6.00 Build 0)  -->
<!DOCTYPE svg PUBLIC "-//W3C//DTD SVG 1.1//EN" "http://www.w3.org/Graphics/SVG/1.1/DTD/svg11.dtd">
<svg version="1.1" id="Layer_1" xmlns="http://www.w3.org/2000/svg" xmlns:xlink="http://www.w3.org/1999/xlink" x="0px" y="0px"
	 width="204.323px" height="213.97px" viewBox="-15.416 -51.341 204.323 213.97"
	 enable-background="new -15.416 -51.341 204.323 213.97" xml:space="preserve">
<g>
	<g>
		<polygon fill-rule="evenodd" clip-rule="evenodd" fill="#CCCCCC" points="34.776,70.413 11.604,109.342 -14.951,146.505 
			36.975,162.628 98.119,143.584 153.389,157.579 128.394,77.301 		"/>
		<g>
			<path fill-rule="evenodd" clip-rule="evenodd" fill="#8ACBD7" d="M42.833,142.819c-3.96,0.05-7.922,0.06-11.881,0.172
				c-1.455,0.041-2.909,0.058-4.366,0.094c-2.024,0.049-4.05,0.067-6.073,0.157c-0.692,0.031-1.21-0.174-1.709-0.63
				c-3.089-2.82-6.188-5.632-9.293-8.435c-3.022-2.728-6.052-5.446-9.091-8.153c-0.403-0.359-0.484-0.59-0.137-1.093
				c3.199-4.646,6.411-9.284,9.499-14.003c0.96-1.467,2.297-1.903,3.817-2.148c2.317-0.372,4.621,0.017,6.927,0.219
				c1.811,0.158,3.613,0.236,5.437-0.021c5.105-0.719,9.978-0.149,14.336,2.888c2.153,1.5,3.909,3.399,5.413,5.533
				c0.855,1.213,1.758,2.364,3.048,3.168c0.5,0.313,0.937,0.403,1.437,0.087c2.804,0.678,5.654,1.038,8.528,1.247
				c1.242,0.09,2.485,0.192,3.729,0.293c2.143,0.174,4.283,0.397,6.416,0.665c1.647,0.204,3.288,0.467,5.018,0.896
				c-2.39,1.446-4.675,2.837-6.965,4.215c-4.009,2.413-8.02,4.821-12.03,7.23c-3.466,2.082-6.931,4.165-10.397,6.246
				C43.87,141.821,43.234,142.177,42.833,142.819z"/>
			<path fill-rule="evenodd" clip-rule="evenodd" fill="#0B9444" d="M42.028,147.243c0.179-0.114,0.357-0.228,0.536-0.339
				c0.897,0.29,1.692-0.051,2.354-0.563c1.682-1.3,3.527-2.33,5.338-3.421c9.309-5.608,18.624-11.209,27.821-17.002
				c1.933-1.217,4.052-1.903,6.346-1.673c2.482,0.249,4.946,0.672,7.421,0.985c1.709,0.218,3.407,0.522,5.131,0.616l-0.017,0.04
				c0.062,2.514,0.185,5.027,0.25,7.542c0.056,2.155,0.249,4.309,0.172,6.469c-0.014,0.383,0.062,0.766,0.09,1.145
				c0.055,0.807,0.177,1.63-0.088,2.43c-5.015,1.455-10.028,2.918-15.046,4.365c-14.354,4.145-28.712,8.283-43.069,12.421
				c-0.086,0.025-0.178,0.03-0.266,0.046c-0.489-0.187-0.12-0.533-0.074-0.727c0.53-2.192,1.114-4.371,1.669-6.559
				C41.083,151.096,41.55,149.168,42.028,147.243z"/>
			<path fill-rule="evenodd" clip-rule="evenodd" fill="#8ACBD7" d="M96.833,114.654c1.616-1.053,3.379-1.388,5.308-1.406
				c3.706-0.032,7.409-0.225,11.11-0.4c2.271-0.109,4.543-0.175,6.814-0.278c4.655-0.209,9.312-0.411,13.971-0.547
				c1.406-0.041,2.813-0.137,4.217-0.237c0.49-0.034,0.712,0.132,0.871,0.608c1.347,4.008,2.718,8.007,4.092,12.004
				c1.738,5.052,3.487,10.099,5.222,15.151c0.066,0.195,0.303,0.429,0.088,0.614c-0.159,0.136-0.39-0.052-0.572-0.118
				c-5.409-1.955-10.813-3.924-16.222-5.881c-6.367-2.304-12.738-4.599-19.108-6.9c-5.088-1.838-10.176-3.676-15.266-5.511
				c-0.167-0.061-0.348-0.087-0.523-0.129c-0.055-0.038-0.106-0.105-0.164-0.111c-2.763-0.284-5.527-0.561-8.291-0.844
				c-0.191-0.02-0.454,0.087-0.538-0.166c-0.074-0.223,0.182-0.287,0.311-0.394c2.536-2.087,5.345-3.734,8.306-5.133
				C96.613,114.902,96.83,114.903,96.833,114.654z"/>
			<path fill-rule="evenodd" clip-rule="evenodd" fill="#3AB44B" d="M97.381,143.472c0.265-0.8,0.143-1.623,0.088-2.43
				c-0.028-0.379-0.104-0.762-0.09-1.145c0.077-2.16-0.116-4.313-0.172-6.469c-0.065-2.515-0.188-5.028-0.25-7.542
				c2.431,0.876,4.867,1.741,7.296,2.631c14.916,5.462,29.831,10.933,44.751,16.385c0.519,0.189,0.81,0.452,0.978,0.985
				c1.204,3.837,2.284,7.708,3.407,11.69c-1.191-0.295-2.303-0.563-3.41-0.844c-13.63-3.457-27.259-6.915-40.888-10.373
				c-3.658-0.928-7.314-1.854-10.973-2.777C97.879,143.524,97.627,143.508,97.381,143.472z"/>
			<path fill-rule="evenodd" clip-rule="evenodd" fill="#3AB44B" d="M53.504,104.85c-0.365-0.002-0.729-0.004-1.096-0.006
				c-0.183-0.005-0.364-0.01-0.546-0.015c-2.408-0.211-4.758,0.287-7.127,0.571c-1.403,0.169-2.813,0.208-4.22-0.024
				c-0.379-0.063-0.668-0.229-0.93-0.51c-5.239-5.604-10.479-11.204-15.729-16.797c-0.295-0.313-0.352-0.541-0.111-0.934
				c3.397-5.527,6.783-11.061,10.145-16.608c0.316-0.521,0.537-0.337,0.886-0.115c8.292,5.285,16.587,10.566,24.883,15.849
				c-0.007,0.066-0.003,0.138-0.022,0.202c-1.465,5.134-2.938,10.266-4.384,15.404c-0.157,0.565-0.522,1.103-0.356,1.739
				C54.43,104.019,54.141,104.629,53.504,104.85z"/>
			<path fill-rule="evenodd" clip-rule="evenodd" fill="#CCCCCC" d="M32.593,161.125c-1.207-0.352-2.419-0.687-3.621-1.054
				c-5.754-1.756-11.507-3.511-17.256-5.283c-6.008-1.854-12.011-3.726-18.015-5.592c-2.884-0.897-5.762-1.816-8.652-2.69
				c-0.587-0.179-0.559-0.376-0.242-0.801c3.61-4.871,7.209-9.751,10.811-14.626c0.526-0.711,1.072-1.409,1.59-2.127
				c0.233-0.324,0.403-0.409,0.74-0.09c1.92,1.81,3.857,3.597,5.79,5.392c3.199,2.969,6.397,5.938,9.598,8.904
				c1.833,1.701,3.67,3.398,5.502,5.099c3.263,3.032,6.523,6.07,9.792,9.098c1.327,1.232,2.674,2.444,4.012,3.665
				C32.625,161.055,32.61,161.088,32.593,161.125z"/>
			<path fill-rule="evenodd" clip-rule="evenodd" fill="#3AB44B" d="M96.016,85.551c8.413-2.239,16.859-4.35,25.3-6.476
				c2.358-0.596,4.721-1.171,7.078-1.774c0.361-0.095,0.486-0.058,0.607,0.338c2.296,7.521,4.61,15.035,6.922,22.553
				c0.026,0.087,0.039,0.177,0.077,0.358c-0.625-0.149-1.209-0.279-1.788-0.428c-12.511-3.188-25.02-6.377-37.529-9.563
				c-0.219-0.057-0.443-0.101-0.664-0.149c-0.076-0.162-0.137-0.332-0.229-0.483C94.846,88.415,94.678,86.944,96.016,85.551z"/>
			<path fill-rule="evenodd" clip-rule="evenodd" fill="#CCCCCC" d="M96.833,114.654c-0.003,0.249-0.22,0.248-0.376,0.322
				c-2.961,1.398-5.77,3.046-8.306,5.133c-0.129,0.106-0.385,0.171-0.311,0.394c0.084,0.253,0.347,0.146,0.538,0.166
				c2.764,0.283,5.528,0.56,8.291,0.844c0.058,0.006,0.109,0.073,0.164,0.111c0.259,1.4,0.079,2.817,0.141,4.224
				c-1.724-0.094-3.422-0.398-5.131-0.616c-2.475-0.313-4.938-0.736-7.421-0.985c-2.294-0.23-4.413,0.456-6.346,1.673
				c-9.197,5.793-18.513,11.394-27.821,17.002c-1.811,1.091-3.656,2.121-5.338,3.421c-0.661,0.512-1.456,0.853-2.354,0.563
				c0.044-0.149,0.123-0.297,0.13-0.447c0.054-1.212,0.095-2.425,0.139-3.638c0.401-0.642,1.037-0.998,1.661-1.373
				c3.467-2.081,6.932-4.164,10.397-6.246c4.011-2.409,8.021-4.817,12.03-7.23c2.29-1.378,4.575-2.769,6.965-4.215
				c-1.729-0.429-3.37-0.691-5.018-0.896c-2.133-0.268-4.273-0.491-6.416-0.665c-1.243-0.101-2.486-0.203-3.729-0.293
				c-2.874-0.209-5.725-0.569-8.528-1.247c0.052-1.079,0.103-2.157,0.156-3.236c0.012-0.25-0.016-0.493-0.112-0.728
				c0.315-0.004,0.632-0.006,0.948-0.008c1.553,0.19,3.107,0.377,4.66,0.569c2.364,0.295,4.724,0.604,7.088,0.885
				c2.637,0.31,5.274,0.615,7.915,0.886c1.966,0.199,3.937,0.323,5.901,0.515c2.159,0.208,4.242,0.121,6.188-1.033
				c1.111-0.661,2.268-1.254,3.37-1.935c3.661-2.261,7.089-4.86,10.655-7.262c0.094,0.012,0.188,0.024,0.282,0.035
				c-0.237,0.408-0.258,0.881-0.254,1.311C97.01,111.991,96.826,113.318,96.833,114.654z"/>
			<path fill-rule="evenodd" clip-rule="evenodd" fill="#3AB44B" d="M97.248,109.342c-0.095-0.011-0.188-0.023-0.282-0.035
				c-0.139-2.41-0.236-4.824-0.441-7.229c-0.06-0.699-0.051-1.398-0.117-2.094c-0.19-2.021-0.361-4.045-0.39-6.075
				c0.002-0.024-0.002-0.048-0.008-0.07c13.403,3.575,26.807,7.155,40.218,10.715c0.533,0.142,0.796,0.385,0.924,0.912
				c0.175,0.726,0.419,1.438,0.661,2.147c0.138,0.398,0.032,0.503-0.384,0.513c-2.774,0.07-5.548,0.166-8.323,0.252
				c-5.66,0.175-11.322,0.351-16.982,0.523C107.164,109.05,102.205,109.196,97.248,109.342z"/>
			<path fill-rule="evenodd" clip-rule="evenodd" fill="#3AB44B" d="M21.48,90.85c3.978,4.7,7.896,9.33,11.878,14.038
				c-0.742,0.142-1.389,0.076-2.029,0.075c-5.918-0.007-11.835-0.024-17.754-0.044c-0.24-0.001-0.57,0.111-0.702-0.108
				c-0.142-0.235,0.158-0.438,0.282-0.637C15.91,99.756,18.67,95.343,21.48,90.85z"/>
			<path fill-rule="evenodd" clip-rule="evenodd" fill="#3AB44B" d="M42.028,147.243c-0.478,1.926-0.944,3.854-1.433,5.776
				c-0.555,2.188-1.139,4.366-1.669,6.559c-0.046,0.193-0.415,0.54,0.074,0.727c-0.368,0.295-0.586-0.039-0.824-0.211
				c-3.265-2.37-6.287-5.028-9.173-7.839c-1.642-1.602-3.223-3.265-4.941-5.012C30.111,147.243,36.07,147.243,42.028,147.243z"/>
			<path fill-rule="evenodd" clip-rule="evenodd" fill="#0B9444" d="M54.896,103.607c-0.166-0.637,0.199-1.174,0.356-1.739
				c1.445-5.139,2.919-10.271,4.384-15.404c0.02-0.064,0.016-0.136,0.022-0.202c0.649-0.254,1.3-0.508,1.95-0.761
				c0.916,1.919,1.844,3.832,2.747,5.759c0.944,2.007,1.864,4.025,2.794,6.039c-0.787,0.41-1.571,0.822-2.361,1.228
				C61.493,100.221,58.194,101.914,54.896,103.607z"/>
			<path fill-rule="evenodd" clip-rule="evenodd" fill="#CCCCCC" d="M96.016,85.551c-1.338,1.393-1.17,2.863-0.227,4.375
				c0.093,0.151,0.153,0.321,0.229,0.483c-0.004,1.143-0.007,2.285-0.01,3.429c0.006,0.022,0.01,0.046,0.008,0.07
				c-3.463-1.958-7.111-2.4-10.969-1.44c-1.701,0.423-3.308,1.093-4.945,1.681c0.48-1.253,1.091-2.445,1.675-3.65
				c0.464-0.961,0.937-1.917,1.406-2.875c0.108-0.025,0.227-0.032,0.327-0.078c4.124-1.872,8.247-3.748,12.368-5.624
				c0.005,0.029,0.002,0.058-0.008,0.086C95.919,83.19,95.968,84.37,96.016,85.551z"/>
			<path fill-rule="evenodd" clip-rule="evenodd" fill="#3AB44B" d="M94.907,74.939c3.154,0.135,6.31,0.266,9.463,0.409
				c3.567,0.161,7.133,0.335,10.7,0.506c2.263,0.108,4.525,0.218,6.811,0.458c-0.859,0.193-1.718,0.396-2.579,0.581
				c-7.637,1.653-15.273,3.303-22.909,4.955c-0.177,0.039-0.347,0.106-0.521,0.159c0.01-0.028,0.013-0.057,0.008-0.086
				c-0.403-1.184-0.382-2.434-0.551-3.652C95.176,77.161,95.047,76.048,94.907,74.939z"/>
			<path fill-rule="evenodd" clip-rule="evenodd" fill="#0B9444" d="M94.907,74.939c0.141,1.109,0.27,2.222,0.422,3.33
				c0.169,1.219,0.147,2.469,0.551,3.652c-4.121,1.876-8.244,3.752-12.368,5.624c-0.101,0.046-0.219,0.053-0.327,0.078
				c1.783-3.822,3.562-7.648,5.452-11.42C90.709,75.698,92.777,75.167,94.907,74.939z"/>
			<path fill-rule="evenodd" clip-rule="evenodd" fill="#CCCCCC" d="M54.896,103.607c3.298-1.693,6.597-3.386,9.893-5.081
				c0.79-0.405,1.574-0.817,2.361-1.228c0.57,1.047,1.107,2.108,1.519,3.229c-1.053,0.575-2.111,1.145-3.162,1.729
				c-4.187,2.319-8.372,4.641-12.558,6.962c-0.001-0.023,0.002-0.047,0.01-0.07c0.207-1.174,0.405-2.35,0.623-3.522
				c0.051-0.273,0.109-0.532-0.077-0.775C54.141,104.629,54.43,104.019,54.896,103.607z"/>
			<path fill-rule="evenodd" clip-rule="evenodd" fill="#3AB44B" d="M51.188,116.682c-0.316,0.002-0.633,0.004-0.948,0.008
				c-2.181-2.465-4.362-4.93-6.675-7.542c3.232,0,6.313,0,9.394,0c-0.008,0.023-0.011,0.047-0.01,0.07
				C52.362,111.707,51.775,114.193,51.188,116.682z"/>
			<path fill-rule="evenodd" clip-rule="evenodd" fill="#CCCCCC" d="M51.863,104.83c0.182,0.005,0.363,0.01,0.546,0.015
				C52.222,104.984,52.042,104.982,51.863,104.83z"/>
			<path fill-rule="evenodd" clip-rule="evenodd" fill="#0B9444" d="M51.188,116.682c0.587-2.489,1.174-4.976,1.761-7.464
				c4.186-2.321,8.371-4.643,12.558-6.962c1.051-0.584,2.109-1.153,3.162-1.729c1.237,2.604,2.47,5.212,3.711,7.814
				c0.134,0.282,0.203,0.604,0.506,0.862c0.733-1.53,1.458-3.042,2.179-4.556c1.57-3.3,3.136-6.605,4.708-9.906
				c0.098-0.204,0.221-0.396,0.331-0.594c1.638-0.588,3.244-1.258,4.945-1.681c3.857-0.96,7.506-0.518,10.969,1.44
				c0.028,2.03,0.199,4.054,0.39,6.075c0.066,0.695,0.058,1.395,0.117,2.094c0.205,2.405,0.303,4.819,0.441,7.229
				c-3.566,2.401-6.994,5.001-10.655,7.262c-1.103,0.681-2.259,1.273-3.37,1.935c-1.945,1.154-4.028,1.241-6.188,1.033
				c-1.965-0.191-3.936-0.315-5.901-0.515c-2.641-0.271-5.278-0.576-7.915-0.886c-2.364-0.28-4.724-0.59-7.088-0.885
				C54.295,117.059,52.741,116.873,51.188,116.682z"/>
		</g>
	</g>
	<path fill="#231F20" d="M184.774-21.84c2.009,2.168,3.249,4.49,3.715,6.96c0.467,2.482,0.542,4.569,0.234,6.273
		c-0.617,2.009-1.588,3.52-2.903,4.524c-1.316,1.007-2.979,2.207-4.988,3.598c-0.465,0.463-1.044,1.008-1.744,1.625
		c-0.691,0.621-1.43,1.316-2.204,2.091c-1.548,1.854-3.249,4.604-5.106,8.237c-1.858,3.64-3.948,9.017-6.267,16.137
		c-0.466,1.703-0.894,3.328-1.278,4.874c-0.391,1.55-0.812,3.02-1.278,4.411c-1.392,4.333-2.551,7.856-3.482,10.562
		c-0.926,2.71-1.737,4.842-2.437,6.385c-0.692,1.55-1.315,2.67-1.857,3.365c-0.542,0.697-1.046,1.275-1.507,1.742
		c-0.313,0.312-0.623,0.466-0.931,0.466c-0.925,6.812-1.588,12.186-1.971,16.135c-0.392,3.945-0.661,6.965-0.813,9.052
		c-0.158,2.088-0.233,3.447-0.233,4.064s0.075,1.084,0.233,1.392c0.616,0.617,1.543,0.927,2.783,0.927
		c0.774,0.315,1.586,0.504,2.438,0.582c0.85,0.079,1.661,0.116,2.436,0.116c0.775,0,1.394-0.116,1.858-0.35
		c0.466-0.229,0.851-0.349,1.158-0.349c0.31,0,0.618,0.157,0.933,0.466c0.309,0.312,0.467,0.62,0.467,0.929
		c0.308,0.313,0.265,0.62-0.121,0.93c-0.383,0.311-0.736,0.465-1.044,0.465c1.082,0.927,1.397,1.819,0.931,2.667
		c-0.466,0.854-1.315,1.124-2.556,0.813c1.24,2.785,0.85,4.722-1.159,5.803c-1.392,1.086-2.94,1.086-4.642,0
		c-0.623-0.464-1.24-1.081-1.857-1.858c-0.623-0.771-1.165-1.392-1.624-1.854c-0.466-0.617-1.008-1.046-1.625-1.275
		c-0.623-0.232-1.165-0.504-1.626-0.814c-1.705-0.615-3.136-1.352-4.293-2.205c-1.165-0.848-1.203-2.824-0.121-5.919
		c0.151-1.238,0.354-4.217,0.58-8.939c0.233-4.716,0.504-11.26,0.812-19.616h-4.175h-4.182c0.467,8.356,0.813,14.9,1.046,19.616
		c0.232,4.723,0.504,7.701,0.813,8.939c0.933,3.095,0.851,5.071-0.232,5.919c-1.084,0.854-2.476,1.59-4.177,2.205
		c-0.623,0.311-1.24,0.582-1.857,0.814c-0.623,0.229-1.24,0.658-1.856,1.275c-0.315,0.463-0.737,1.083-1.279,1.854
		c-0.541,0.777-1.195,1.395-1.972,1.858c-1.548,1.086-3.098,1.086-4.641,0c-0.78-0.464-1.315-1.159-1.624-2.088
		c-0.314-0.93-0.082-2.167,0.693-3.715c-1.55,0.311-2.521,0.04-2.903-0.813c-0.386-0.848,0.037-1.74,1.277-2.667
		c-0.773,0-1.24-0.154-1.391-0.465c-0.159-0.31-0.234-0.617-0.234-0.93c0-0.309,0.151-0.617,0.466-0.929
		c0.31-0.309,0.693-0.466,1.159-0.466c0.467,0,0.933,0.119,1.392,0.349c0.467,0.233,1.084,0.35,1.858,0.35
		c0.617,0,1.392-0.037,2.324-0.116c0.925-0.078,1.623-0.267,2.09-0.582c1.392,0,2.394-0.31,3.017-0.927
		c0.151-0.308,0.265-0.774,0.346-1.392c0.075-0.617,0.038-1.977-0.113-4.064c-0.157-2.087-0.427-5.106-0.812-9.052
		c-0.391-3.949-1.046-9.323-1.978-16.135c-0.46,0-0.851-0.154-1.159-0.466c-0.314-0.151-0.579-0.384-0.812-0.696
		c-0.233-0.308-0.504-0.617-0.813-0.928c-1.082-0.467-2.203-2.205-3.368-5.225c-1.159-3.019-2.28-6.303-3.362-9.864
		c-1.241-4.023-2.476-8.591-3.716-13.697h0.232c-0.157-0.309-0.232-0.617-0.232-0.929c-2.015-7.428-3.948-12.918-5.8-16.482
		c-1.858-3.56-3.641-6.267-5.341-8.124c-0.78-0.774-1.474-1.43-2.091-1.974c-0.623-0.539-1.24-1.046-1.857-1.509
		c-1.858-1.392-3.444-2.591-4.76-3.598c-1.317-1.005-2.13-2.516-2.438-4.524c-0.31-1.704-0.113-3.791,0.579-6.273
		c0.699-2.471,1.896-4.792,3.602-6.96c0.768-0.771,1.7-1.509,2.784-2.208c1.082-0.696,2.557-1.197,4.408-1.508v-0.231
		c-0.152-0.616-0.075-1.24,0.232-1.857c0.308-0.616,1.316-1.241,3.022-1.856c1.701-0.776,3.904-1.355,6.612-1.742
		c2.707-0.388,4.912-0.501,6.619-0.35c1.857,0,3.016,0.315,3.481,0.93c0.467,0.62,0.617,1.319,0.467,2.087
		c-0.157,0.157-0.232,0.273-0.232,0.353c0,0.075-0.083,0.194-0.234,0.346c1.701,0,3.559-0.038,5.573-0.116
		c2.009-0.076,4.094-0.116,6.267-0.116h3.947h1.159h0.467h3.249h1.624h4.408c1.701,0,3.287,0.041,4.762,0.116
		c1.467,0.078,2.903,0.116,4.295,0.116c-0.315-0.308-0.466-0.542-0.466-0.699c-0.157-0.769,0-1.426,0.466-1.971
		c0.467-0.542,1.543-0.812,3.249-0.812c1.858-0.151,4.1-0.038,6.731,0.346c2.634,0.391,4.793,0.97,6.5,1.745
		c1.699,0.617,2.745,1.24,3.136,1.858c0.384,0.617,0.58,1.159,0.58,1.624c-0.158,0.156-0.234,0.31-0.234,0.463
		c1.701,0.463,3.017,0.967,3.949,1.508C183.15-23.27,184-22.612,184.774-21.84z"/>
	<path fill="#FFFFFF" d="M109.559-5.357c0.774-0.154,1.857-0.504,3.255-1.045c1.392-0.542,2.702-1.278,3.942-2.204
		c1.24-0.933,2.241-2.054,3.017-3.37c0.774-1.313,0.932-2.821,0.467-4.527c-0.31-1.701-1.121-2.934-2.438-3.712
		c-1.316-0.771-2.753-1.313-4.295-1.624c-1.55-0.31-3.099-0.388-4.641-0.234c-1.55,0.154-2.709,0.312-3.483,0.463
		c-0.774,0.315-1.858,0.736-3.249,1.278c-1.392,0.544-2.753,1.278-4.062,2.203c-1.316,0.933-2.324,2.054-3.022,3.37
		c-0.693,1.316-0.813,2.824-0.348,4.524c0.31,1.704,1.121,2.944,2.438,3.716c1.315,0.777,2.745,1.275,4.295,1.507
		c1.549,0.234,3.099,0.313,4.641,0.234C107.625-4.853,108.784-5.049,109.559-5.357z"/>
	<path fill="#231F20" d="M106.308-21.145c2.324-0.618,4.446-0.466,6.387,0.466c1.934,0.925,3.212,2.474,3.829,4.641
		c0.616,2.168,0.232,4.177-1.159,6.035c-1.392,1.855-3.174,2.941-5.341,3.25c-2.166,0.62-4.218,0.463-6.151-0.462
		c-1.934-0.933-3.288-2.475-4.063-4.646c-0.467-2.163-0.038-4.177,1.278-6.035C102.398-19.753,104.143-20.834,106.308-21.145z"/>
	<path fill="#231F20" d="M115.597-37.166c1.701-0.305,2.936-0.264,3.716,0.121c0.769,0.386,1.542,1.737,2.318,4.061
		c-2.941,0-6.072,0.195-9.402,0.58c-3.325,0.391-6.536,1.203-9.635,2.438c1.856-2.785,4.067-4.603,6.618-5.454
		C111.768-36.271,113.89-36.851,115.597-37.166z"/>
	<path fill="#FFFFFF" d="M111.649-14.88c-0.156-0.151-0.232-0.346-0.232-0.578c0-0.234-0.076-0.423-0.233-0.58
		c0.774-0.31,1.165-0.85,1.165-1.625c-0.157-1.082-0.932-1.467-2.324-1.162c-0.308,0-0.579,0.234-0.812,0.696
		c-0.232,0.466-0.346,0.933-0.346,1.396c-0.315-0.463-0.776-0.463-1.392,0c-0.933,0.154-1.669,0.58-2.211,1.275
		c-0.542,0.699-0.655,1.435-0.348,2.204c0.31,0.932,0.852,1.628,1.626,2.09c0.774,0.466,1.548,0.625,2.324,0.466
		C111.183-11.472,112.116-12.864,111.649-14.88z"/>
	<path fill="#231F20" d="M119.081-38.558c-1.24-0.151-3.136-0.035-5.687,0.35c-2.557,0.386-5.228,1.356-8.011,2.899
		c0.774-2.783,2.009-4.716,3.716-5.8c1.7-1.083,3.249-1.78,4.641-2.09c1.544-0.151,2.784,0.038,3.715,0.58
		C118.381-42.074,118.922-40.723,119.081-38.558z"/>
	<path fill="#231F20" d="M108.4-16.038c1.543,0,2.324,0.545,2.324,1.624c0,1.24-0.781,1.857-2.324,1.857
		c-1.24,0-1.857-0.617-1.857-1.857C106.542-15.493,107.16-16.038,108.4-16.038z"/>
	<path fill="#231F20" d="M116.524-44.36c-0.927,0-2.242,0.116-3.942,0.35c-1.706,0.232-3.175,0.969-4.415,2.204
		c1.24-2.783,2.399-4.528,3.482-5.221c1.084-0.699,2.009-0.966,2.791-0.815C115.832-47.843,116.524-46.681,116.524-44.36z"/>
	<path fill="#231F20" d="M117.365-49.005c-0.466,0-1.159,0.082-2.092,0.233c-0.925,0.157-1.78,0.778-2.549,1.857
		c1.076-2.784,2.09-4.253,3.016-4.408C116.667-51.476,117.207-50.705,117.365-49.005z"/>
	<path fill="#FFFFFF" d="M118.381,92.604c0.151,0.315,0.384,0.315,0.699,0c0.466-0.151,0.466-0.384,0-0.693h-0.234
		c-0.156,0-0.313,0.08-0.465,0.231V92.604z"/>
	<path fill="#FFFFFF" d="M120.005,95.624c0.31-0.308,0.31-0.771,0-1.392c-0.459-0.308-0.85-0.308-1.159,0
		c-0.465,0.464-0.541,0.929-0.232,1.392C118.922,96.244,119.388,96.244,120.005,95.624z"/>
	<path fill="#FFFFFF" d="M124.419,101.426c0.31-0.308,0.542-0.655,0.693-1.044c0.151-0.385,0.075-0.73-0.232-1.043
		c-0.31-0.464-0.775-0.771-1.392-0.929c-0.617-0.15-1.159-0.15-1.625,0c-1.084,0.312-1.624,0.851-1.624,1.624
		c0,0.467,0.15,0.813,0.465,1.046c0.31,0.232,0.617,0.429,0.927,0.58C122.247,102.281,123.179,102.205,124.419,101.426z"/>
	<path fill="#FFFFFF" d="M128.596-10.002c-0.776,0.463-1.626,1.125-2.551,1.976c-0.933,0.85-0.623,1.662,0.925,2.436
		c0.933,0.463,1.701,0.504,2.324,0.113c0.617-0.383,1.046-0.925,1.278-1.624c0.227-0.693,0.227-1.392,0-2.087
		c-0.232-0.696-0.736-1.046-1.511-1.046h0.232h-0.466h0.233c-0.158,0-0.233,0.041-0.233,0.116
		C128.829-10.037,128.747-10.002,128.596-10.002z"/>
	<path fill="#FFFFFF" d="M143.917-8.84c-0.774,0.31-1.588,0.892-2.438,1.739c-0.85,0.853-0.504,1.669,1.046,2.437
		c0.931,0.465,1.699,0.507,2.322,0.119c0.617-0.383,1.046-0.933,1.272-1.625c0.233-0.699,0.196-1.354-0.113-1.977
		c-0.308-0.614-0.85-0.925-1.624-0.925l0.232-0.234v-0.232l-0.232,0.466h-0.233C143.993-9.073,143.917-8.994,143.917-8.84z"/>
	<path fill="#FFFFFF" d="M154.131,99.339c-0.308,0.313-0.346,0.658-0.113,1.043c0.232,0.389,0.579,0.736,1.046,1.044
		c0.769,0.778,1.624,0.854,2.549,0.234c0.617-0.151,0.933-0.696,0.933-1.626c0-0.308-0.081-0.617-0.232-0.928
		c-0.158-0.31-0.391-0.539-0.7-0.696C156.065,98.102,154.906,98.411,154.131,99.339z"/>
	<path fill="#FFFFFF" d="M169.805-2.342c0.933,0,2.255-0.116,3.975-0.346c1.712-0.232,3.431-0.699,5.145-1.395
		c1.713-0.696,3.198-1.625,4.446-2.787c1.246-1.158,1.869-2.746,1.869-4.757s-0.623-3.675-1.869-4.991
		c-1.248-1.316-2.733-2.324-4.446-3.02c-1.714-0.695-3.433-1.197-5.145-1.507c-1.72-0.31-3.042-0.466-3.975-0.466
		c-1.095,0-2.537,0.157-4.333,0.466c-1.788,0.311-3.545,0.812-5.258,1.507c-1.713,0.696-3.192,1.704-4.438,3.02
		c-1.248,1.316-1.877,2.979-1.877,4.991s0.629,3.6,1.877,4.757c1.246,1.162,2.726,2.091,4.438,2.787s3.47,1.162,5.258,1.395
		C167.268-2.458,168.71-2.342,169.805-2.342z"/>
	<path fill="#FFFFFF" d="M140.229,40.922c0.933,0,2.255-0.059,3.975-0.173c1.712-0.116,3.431-0.35,5.145-0.697
		c1.713-0.349,3.198-0.813,4.446-1.394c1.246-0.579,1.869-1.373,1.869-2.379s-0.623-1.838-1.869-2.495
		c-1.248-0.658-2.733-1.162-4.446-1.511c-1.714-0.348-3.433-0.598-5.145-0.753c-1.72-0.155-3.042-0.233-3.975-0.233
		c-1.095,0-2.537,0.078-4.333,0.233c-1.788,0.155-3.545,0.405-5.258,0.753c-1.713,0.349-3.192,0.853-4.438,1.511
		c-1.248,0.657-1.877,1.489-1.877,2.495s0.629,1.8,1.877,2.379c1.246,0.58,2.726,1.045,4.438,1.394
		c1.713,0.348,3.47,0.581,5.258,0.697C137.692,40.864,139.134,40.922,140.229,40.922z"/>
	<path fill="#FFFFFF" d="M159.239,94.232c-0.309,0.313-0.384,0.58-0.232,0.813c0.156,0.23,0.308,0.428,0.465,0.579
		c0.309,0.464,0.699,0.464,1.158,0c0.159-0.463,0.159-0.928,0-1.392C159.856,94.079,159.395,94.079,159.239,94.232z"/>
	<path fill="#231F20" d="M165.34-36.932c1.72,0.313,3.872,0.893,6.455,1.745c2.588,0.85,4.818,2.745,6.694,5.687
		c-3.136-1.393-6.379-2.284-9.749-2.671c-3.362-0.383-6.455-0.58-9.27-0.58c0.787-2.322,1.53-3.676,2.229-4.061
		C162.407-37.201,163.622-37.242,165.34-36.932z"/>
	<path fill="#FFFFFF" d="M159.937,91.911c-0.313,0.31-0.313,0.542,0,0.693c0.31,0.315,0.617,0.315,0.927,0
		c0.157-0.151,0.157-0.306,0-0.462C160.864,91.991,160.554,91.911,159.937,91.911z"/>
	<path fill="#1A1A1A" d="M170.151-20.912c2.634,0,4.913,0.812,6.846,2.437c1.934,1.625,2.904,3.753,2.904,6.385
		c0,2.632-0.971,4.759-2.904,6.382c-1.933,1.625-4.212,2.438-6.846,2.438c-2.632,0-4.956-0.812-6.965-2.438
		c-2.015-1.624-3.016-3.75-3.016-6.382c0-2.632,1.001-4.76,3.016-6.385C165.195-20.1,167.519-20.912,170.151-20.912z"/>
	<path fill="#231F20" d="M175.7-34.608c-2.67-1.858-5.34-3.017-8.011-3.483c-2.67-0.466-4.71-0.617-6.127-0.466
		c0.309-1.858,0.938-3.092,1.883-3.715c0.944-0.615,2.197-0.847,3.772-0.693c1.568,0.309,3.181,1.046,4.829,2.205
		C173.691-39.604,174.913-37.549,175.7-34.608z"/>
	<path fill="#231F20" d="M172.936-41.574c-1.241-1.236-2.747-2.009-4.528-2.323c-1.776-0.31-3.13-0.385-4.063-0.231
		c0-2.32,0.774-3.557,2.324-3.715c0.774,0,1.701,0.387,2.783,1.162C170.536-45.906,171.695-44.207,172.936-41.574z"/>
	<path fill="#FFFFFF" d="M170.151-8.606c1.084,0,2.009-0.31,2.785-0.933c0.773-0.617,1.164-1.467,1.164-2.551
		c0-1.24-0.391-2.166-1.164-2.79c-0.776-0.613-1.701-0.925-2.785-0.925c-0.313,0-0.66,0-1.044,0c-0.391,0-0.661,0.079-0.813,0.234
		c0-0.776-0.54-1.162-1.624-1.162c-1.392,0-2.09,0.386-2.09,1.162c0,1.24,0.698,1.858,2.09,1.858
		c-0.466,0.459-0.698,1.006-0.698,1.624c0,1.084,0.427,1.934,1.277,2.551C168.099-8.916,169.069-8.606,170.151-8.606z"/>
	<path fill="#231F20" d="M172.385-46.681c-0.774-1.083-1.626-1.7-2.557-1.858c-0.927-0.151-1.701-0.233-2.318-0.233
		c0.31-1.7,0.888-2.513,1.738-2.438C170.099-51.127,171.145-49.619,172.385-46.681z"/>
	<path fill="#231F20" d="M170.151-14.88c1.544,0,2.324,0.778,2.324,2.324c0,1.55-0.78,2.321-2.324,2.321
		c-1.705,0-2.557-0.771-2.557-2.321C167.594-14.102,168.446-14.88,170.151-14.88z"/>
	<g>
		<path fill-rule="evenodd" clip-rule="evenodd" fill="#FF0000" d="M72.756,110.045c-4.721-6.563-9.356-12.5-13.415-18.825
			c-2.911-4.536-5.579-9.391-7.433-14.453c-5.034-13.75,4.759-28.045,19.134-28.463c14.272-0.413,24.72,13.027,20.918,27.078
			c-2.573,9.516-7.789,17.69-13.067,25.798C77.092,103.945,75.142,106.61,72.756,110.045z M84.22,69.442
			c-0.229-7.102-6.123-12.712-13.045-12.417c-6.872,0.293-12.253,6.159-12.055,13.143c0.204,7.14,5.994,12.778,12.927,12.587
			C78.959,82.563,84.453,76.554,84.22,69.442z"/>
		<path fill-rule="evenodd" clip-rule="evenodd" fill="#FFFFFF" d="M84.22,69.442c0.232,7.112-5.261,13.121-12.173,13.313
			c-6.933,0.191-12.723-5.447-12.927-12.587c-0.198-6.983,5.183-12.85,12.055-13.143C78.097,56.73,83.991,62.34,84.22,69.442z
			 M63.101,70.2c0.165,4.797,4.235,8.678,8.9,8.486c4.697-0.191,8.425-4.32,8.248-9.134c-0.18-4.908-4.063-8.568-8.902-8.391
			C66.518,61.339,62.931,65.271,63.101,70.2z"/>
		<path fill-rule="evenodd" clip-rule="evenodd" fill="#FF0000" d="M63.101,70.2c-0.17-4.929,3.417-8.86,8.246-9.038
			c4.84-0.178,8.723,3.482,8.902,8.391c0.177,4.813-3.551,8.942-8.248,9.134C67.336,78.877,63.266,74.997,63.101,70.2z"/>
	</g>
	<path fill="#231F20" d="M180.903,12.632c0.685,3.271,1.348,7.393,1.987,12.368c0.643,4.975,0.938,10.561,0.908,16.753
		c0.115,6.354-0.238,12.762-1.063,19.242c-0.823,6.477-1.85,11.789-3.065,15.93c-1.224,4.144-2.639,6.925-4.244,8.349
		c-1.607,1.424-3.596,2.327-5.95,2.717c-2.509,0.237-5.201,0.155-8.076-0.248c-2.879-0.396-5.313-1.01-7.295-1.85
		c-3.664-1.504-4.926-3.477-3.762-5.917c0.483-0.762,1.472-1.385,2.955-1.89c1.489-0.491,3.291-0.088,5.425,1.214
		c-1.521-0.972-2.574-1.938-3.162-2.882c-0.595-0.948-0.877-1.808-0.854-2.584c0.024-0.768,0.237-1.386,0.639-1.837
		c0.396-0.45,0.835-0.821,1.312-1.122c1.896-1.176,4.418-0.015,7.562,3.484c-0.831-3.277-0.807-5.323,0.068-6.154
		c0.875-0.819,1.93-1.062,3.159-0.715c0.915,0.343,1.749,0.912,2.5,1.704c0.751,0.801,1.185,1.817,1.304,3.059l-0.042,1.395
		l0.042-1.395c0.276-8.969-2.115-19.492-7.164-31.572c0.349-1.229,0.692-2.416,1.044-3.569c0.344-1.152,0.685-2.188,1.021-3.104
		c0.338-0.919,0.68-1.989,1.032-3.22c0.178-0.926,0.513-1.764,1.005-2.526c0.169-0.612,0.304-1.112,0.391-1.493
		c0.095-0.386,0.225-0.887,0.399-1.5c0.165-0.462,0.376-0.952,0.626-1.49c0.25-0.534,0.533-1.183,0.872-1.947
		c0.337-0.917,0.675-1.873,1.015-2.873c0.339-0.99,0.756-1.871,1.247-2.634c0.33-0.759,0.668-1.484,1.006-2.175
		c0.342-0.688,0.679-1.408,1.018-2.174c0.327-0.456,0.658-0.944,0.99-1.48c0.331-0.528,0.666-1.177,1.01-1.941
		c0.488-0.451,0.854-0.903,1.107-1.358c0.247-0.458,0.537-0.917,0.873-1.368c0.449,0.792,0.807,1.808,1.085,3.053
		C180.11,10.13,180.461,11.377,180.903,12.632z"/>
	<path fill="#FFFFFF" d="M156.294,82.71c0.49-0.757,0.665-1.525,0.537-2.306c-0.604-0.633-1.292-0.813-2.077-0.528
		c-0.925-0.027-1.637,0.413-2.131,1.327c-0.484,0.761-0.272,1.31,0.648,1.646C154.346,83.195,155.355,83.146,156.294,82.71z"/>
	<path fill="#FFFFFF" d="M158.824,76.053c0.939-0.435,1.429-1.193,1.461-2.278c0.039-1.237-0.482-1.873-1.566-1.906
		c-0.313-0.01-0.74,0.094-1.288,0.31c-0.549,0.216-0.908,0.477-1.07,0.78c-0.487,0.912-0.438,1.77,0.156,2.56
		C157.114,76.158,157.883,76.34,158.824,76.053z"/>
	<path fill="#FFFFFF" d="M167.786,71.685c0.924,0.029,1.243-0.347,0.959-1.134c-0.146-0.313-0.408-0.595-0.786-0.836
		c-0.383-0.244-0.72-0.524-1.021-0.846c-0.765-0.332-1.388-0.118-1.876,0.639c-0.338,0.919-0.127,1.622,0.632,2.112
		C166.302,71.951,166.996,71.971,167.786,71.685z"/>
	<g>
		<path fill="#231F20" d="M91.96,30.36"/>
		<path fill="#231F20" d="M112.348,33.392c-13.494,2.567-53.475,13.688-60.331,18.19l-1.167,0.766l1.167-0.766
			c2.322-0.968,4.381-0.654,6.178,0.945c0.766,0.604,1.048,1.534,0.849,2.773c-0.208,1.244-1.918,2.369-5.143,3.377
			c2.487,0.401,4.249,0.909,5.301,1.522c1.042,0.603,1.581,1.635,1.618,3.095c0.122,1.036-0.382,2.105-1.503,3.211
			c-1.123,1.105-3.379,0.92-6.755-0.561c2.222,1.133,3.49,2.431,3.806,3.888c0.304,1.468,0.267,2.599-0.126,3.415
			c-1.091,2.561-3.431,2.531-7.016-0.118c-1.67-1.126-3.437-2.837-5.305-5.119c-1.88-2.292-3.323-4.487-4.333-6.603
			c-0.972-2.321-1.253-4.505-0.826-6.539c0.421-2.039,2.037-4.721,4.854-8.046c2.983-3.068,7.044-6.615,12.179-10.634
			c5.134-4.026,10.395-7.706,15.787-11.058c5.174-3.399,10.224-6.06,14.552-8.611c4.944-2.915,7.945-4.481,10.861-6.109
			c1.28-0.715,2.275-1.158,3.354-1.837c1.12-0.705,2.533-1.27,3.354-1.438c-0.093,0.43,2.52,6.17,2.752,6.823
			c0.733,2.061,4.069,9.856,4.137,10.412"/>
		<path fill="#FFFFFF" d="M55.463,55.988c0.854,0.178,1.522-0.08,2.003-0.758c0.604-0.774,0.499-1.352-0.313-1.746
			c-0.98-0.652-1.774-0.867-2.374-0.656c-0.65,0.428-0.847,0.828-0.591,1.218C54.572,54.909,54.993,55.551,55.463,55.988z"/>
		<path fill="#FFFFFF" d="M56.457,61.724c-0.436-0.091-0.712,0.188-0.846,0.833c-0.135,0.64-0.247,1.173-0.332,1.605
			c0.208,0.603,0.764,1.162,1.657,1.682c1.033-0.119,1.785-0.522,2.265-1.205c0.394-0.811,0.336-1.605-0.173-2.381
			C58.346,61.221,57.491,61.045,56.457,61.724z"/>
		<path fill="#FFFFFF" d="M51.051,69.991c-0.093,0.429,0.016,0.87,0.313,1.322c0.297,0.452,0.636,0.832,1.021,1.135
			c0.85,0.732,1.475,0.697,1.867-0.116c0.521-0.9,0.482-1.802-0.108-2.701c-0.254-0.949-0.723-1.377-1.407-1.3
			C51.535,68.187,50.972,68.745,51.051,69.991z"/>
	</g>
</g>
</svg>
